M48
METRIC,LZ,000.000
;FILE_FORMAT=3:3
;TYPE=PLATED
;Layer: PTH_Through
;EasyEDA v6.5.34, 2023-10-13 11:13:59
;8dd2d23bddbb44bbbc94aa604b75b510,674c0623d3a246009f606e19fc16e94a,10
;Gerber Generator version 0.2
;Holesize 1 = 0.305 mm
T01C0.305
;Holesize 2 = 0.310 mm
T02C0.310
;Holesize 3 = 0.701 mm
T03C0.701
;Holesize 4 = 0.800 mm
T04C0.800
;Holesize 5 = 0.813 mm
T05C0.813
;Holesize 6 = 0.889 mm
T06C0.889
;Holesize 7 = 0.915 mm
T07C0.915
;Holesize 8 = 0.966 mm
T08C0.966
;Holesize 9 = 1.000 mm
T09C1.000
;Holesize 10 = 1.001 mm
T10C1.001
;Holesize 11 = 1.501 mm
T11C1.501
;Holesize 12 = 1.800 mm
T12C1.800
;Holesize 13 = 2.101 mm
T13C2.101
;Holesize 14 = 2.301 mm
T14C2.301
;Holesize 15 = 3.000 mm
T15C3.000
%
G05
G90
T01
X051986Y-045351
X090486Y-035151
X090486Y-021651
X050886Y-033751
X047586Y-033951
X060086Y-004251
X044886Y-033851
X116681Y-046531
X100625Y-036217
X107501Y-013537
X107825Y-006895
X096989Y-026749
X120749Y-009109
X162756Y-046531
X146700Y-036217
X153576Y-013537
X153900Y-006895
X143064Y-026749
X166824Y-009109
X208838Y-046531
X192782Y-036217
X199658Y-013537
X199982Y-006895
X189146Y-026749
X212906Y-009109
X254918Y-046531
X238862Y-036217
X245738Y-013537
X246062Y-006895
X235226Y-026749
X258986Y-009109
X301014Y-046531
X284958Y-036217
X291834Y-013537
X292158Y-006895
X281322Y-026749
X305082Y-009109
X347111Y-046531
X331055Y-036217
X337931Y-013537
X338255Y-006895
X327419Y-026749
X351179Y-009109
X393198Y-046531
X377142Y-036217
X384018Y-013537
X384342Y-006895
X373506Y-026749
X397266Y-009109
X423224Y-036221
X430100Y-013540
X430424Y-006899
X419588Y-026753
X443348Y-009113
X158346Y-048457
X160886Y-048457
X204428Y-048457
X206968Y-048457
X250508Y-048457
X253048Y-048457
X296604Y-048457
X299144Y-048457
X342701Y-048457
X345241Y-048457
X388788Y-048457
X391328Y-048457
X437410Y-048461
T02
X064516Y-046355
X115062Y-048006
X109093Y-048387
T03
X047016Y-013651
X049556Y-013651
X053516Y-013651
X056056Y-013651
X046316Y-041951
X047586Y-041951
X048856Y-041951
X421792Y-045922
X423062Y-045922
X424332Y-045922
X375710Y-045918
X376980Y-045918
X378250Y-045918
X329623Y-045918
X330893Y-045918
X332163Y-045918
X283527Y-045918
X284797Y-045918
X286067Y-045918
X237430Y-045918
X238700Y-045918
X239970Y-045918
X191350Y-045918
X192620Y-045918
X193890Y-045918
X145268Y-045918
X146538Y-045918
X147808Y-045918
X099193Y-045918
X100463Y-045918
X101733Y-045918
X421485Y-007024
X424025Y-007024
X421487Y-013667
X424027Y-013667
X375403Y-007021
X377943Y-007021
X375404Y-013663
X377944Y-013663
X329316Y-007021
X331856Y-007021
X329317Y-013663
X331857Y-013663
X283219Y-007021
X285759Y-007021
X283221Y-013663
X285761Y-013663
X237123Y-007021
X239663Y-007021
X237124Y-013663
X239664Y-013663
X191043Y-007021
X193583Y-007021
X191044Y-013663
X193584Y-013663
X144961Y-007021
X147501Y-007021
X144962Y-013663
X147502Y-013663
X098886Y-007021
X101426Y-007021
X098887Y-013663
X101427Y-013663
T04
X067886Y-015451
X077910Y-015451
X065586Y-005551
X065586Y-015575
X060886Y-048451
X050862Y-048451
X046286Y-019151
X056310Y-019151
X025186Y-047351
X015162Y-047351
X026486Y-001751
X036510Y-001751
X451772Y-046336
X461796Y-046336
X434078Y-013468
X434078Y-003444
X426644Y-002976
X426644Y-012999
X440073Y-009094
X450097Y-009094
X405690Y-046332
X415714Y-046332
X387996Y-013465
X387996Y-003441
X380562Y-002972
X380562Y-012996
X393991Y-009091
X404014Y-009091
X359603Y-046332
X369627Y-046332
X341909Y-013465
X341909Y-003441
X334475Y-002972
X334475Y-012996
X347903Y-009091
X357927Y-009091
X313506Y-046332
X323530Y-046332
X295812Y-013465
X295812Y-003441
X288378Y-002972
X288378Y-012996
X301807Y-009091
X311831Y-009091
X267410Y-046332
X277434Y-046332
X249716Y-013465
X249716Y-003441
X242282Y-002972
X242282Y-012996
X255711Y-009091
X265734Y-009091
X221330Y-046332
X231353Y-046332
X203636Y-013465
X203636Y-003441
X196201Y-002972
X196201Y-012996
X209630Y-009091
X219654Y-009091
X175248Y-046332
X185272Y-046332
X157554Y-013465
X157554Y-003441
X150120Y-002972
X150120Y-012996
X163549Y-009091
X173573Y-009091
X129173Y-046332
X139197Y-046332
X111479Y-013465
X111479Y-003441
X104045Y-002972
X104045Y-012996
X117474Y-009091
X127498Y-009091
T05
X073516Y-004851
X076056Y-004851
X048656Y-047051
X046116Y-047051
X012356Y-047251
X009816Y-047251
X460601Y-042305
X458061Y-042305
X441737Y-004848
X444277Y-004848
X414519Y-042301
X411979Y-042301
X395654Y-004844
X398194Y-004844
X368432Y-042301
X365892Y-042301
X349567Y-004844
X352107Y-004844
X322335Y-042301
X319795Y-042301
X303471Y-004844
X306011Y-004844
X276239Y-042301
X273699Y-042301
X257374Y-004844
X259914Y-004844
X230159Y-042301
X227619Y-042301
X211294Y-004844
X213834Y-004844
X184077Y-042301
X181537Y-042301
X165212Y-004844
X167752Y-004844
X138002Y-042301
X135462Y-042301
X119138Y-004844
X121678Y-004844
T06
X042826Y-048451
X040286Y-048451
T07
X037746Y-048451
T08
X055956Y-039051
X053416Y-039051
X424050Y-039115
X421510Y-039115
X377968Y-039111
X375428Y-039111
X331881Y-039111
X329341Y-039111
X285784Y-039111
X283244Y-039111
X239688Y-039111
X237148Y-039111
X193608Y-039111
X191068Y-039111
X147526Y-039111
X144986Y-039111
X101451Y-039111
X098911Y-039111
T09
X091345Y-004951G85X091945Y-004951
X085785Y-004951G85X086385Y-004951
X080225Y-004951G85X080825Y-004951
X051645Y-004750G85X052245Y-004750
X046085Y-004750G85X046685Y-004750
X040525Y-004750G85X041125Y-004750
X459389Y-004972G85X459989Y-004972
X453829Y-004972G85X454429Y-004972
X448269Y-004972G85X448869Y-004972
X413307Y-004968G85X413907Y-004968
X407747Y-004968G85X408347Y-004968
X402187Y-004968G85X402787Y-004968
X367220Y-004968G85X367820Y-004968
X361660Y-004968G85X362260Y-004968
X356100Y-004968G85X356700Y-004968
X321123Y-004968G85X321723Y-004968
X315563Y-004968G85X316163Y-004968
X310003Y-004968G85X310603Y-004968
X275027Y-004968G85X275627Y-004968
X269467Y-004968G85X270067Y-004968
X263907Y-004968G85X264507Y-004968
X228947Y-004968G85X229547Y-004968
X223387Y-004968G85X223987Y-004968
X217827Y-004968G85X218427Y-004968
X182865Y-004968G85X183465Y-004968
X177305Y-004968G85X177905Y-004968
X171745Y-004968G85X172345Y-004968
X136790Y-004968G85X137390Y-004968
X131230Y-004968G85X131830Y-004968
X125670Y-004968G85X126270Y-004968
T10
X069986Y-006651
X069986Y-002651
X438650Y-007222
X438650Y-003222
X392568Y-007219
X392568Y-003219
X346481Y-007219
X346481Y-003219
X300384Y-007219
X300384Y-003219
X254288Y-007219
X254288Y-003219
X208208Y-007219
X208208Y-003219
X162126Y-007219
X162126Y-003219
X116051Y-007219
X116051Y-003219
T11
X013686Y-001951
X016386Y-001951
X020586Y-001951
X023286Y-001951
X007386Y-002051
X007386Y-006551
T12
X060886Y-018051
X060886Y-043051
X014386Y-018051
X014386Y-043051
X428799Y-043096
X428799Y-018096
X382717Y-043092
X382717Y-018092
X336630Y-043092
X336630Y-018092
X290533Y-043092
X290533Y-018092
X244437Y-043092
X244437Y-018092
X198357Y-043092
X198357Y-018092
X152275Y-043092
X152275Y-018092
X106200Y-043092
X106200Y-018092
T13
X060886Y-024226
X060886Y-037076
X014386Y-024226
X014386Y-037076
X083611Y-042651
X070761Y-042651
X037411Y-042651
X024561Y-042651
X428940Y-024270
X428940Y-037120
X452096Y-042666
X439246Y-042666
X382858Y-024266
X382858Y-037116
X406014Y-042662
X393164Y-042662
X336771Y-024266
X336771Y-037116
X359927Y-042662
X347077Y-042662
X290674Y-024266
X290674Y-037116
X313830Y-042662
X300980Y-042662
X244578Y-024266
X244578Y-037116
X267734Y-042662
X254884Y-042662
X198498Y-024266
X198498Y-037116
X221654Y-042662
X208804Y-042662
X152416Y-024266
X152416Y-037116
X175572Y-042662
X162722Y-042662
X106341Y-024266
X106341Y-037116
X129497Y-042662
X116647Y-042662
T14
X080586Y-035451
X080586Y-025451
X034486Y-035451
X034486Y-025451
X448753Y-035537
X448753Y-025537
X402671Y-035533
X402671Y-025533
X356584Y-035533
X356584Y-025533
X310487Y-035533
X310487Y-025533
X264391Y-035533
X264391Y-025533
X218311Y-035533
X218311Y-025533
X172229Y-035533
X172229Y-025533
X126154Y-035533
X126154Y-025533
T15
X466471Y-046736
X466471Y-003175
X002921Y-003048
X002921Y-046609
M30
