M48
METRIC,LZ,000.000
;FILE_FORMAT=3:3
;TYPE=PLATED
;Layer: PTH_Through_Via
;EasyEDA v6.5.34, 2023-10-13 11:13:59
;8dd2d23bddbb44bbbc94aa604b75b510,674c0623d3a246009f606e19fc16e94a,10
;Gerber Generator version 0.2
;Holesize 1 = 0.305 mm
T01C0.305
;Holesize 2 = 0.310 mm
T02C0.310
%
G05
G90
T01
X051986Y-045351
X090486Y-035151
X090486Y-021651
X050886Y-033751
X047586Y-033951
X060086Y-004251
X044886Y-033851
X116681Y-046531
X100625Y-036217
X107501Y-013537
X107825Y-006895
X096989Y-026749
X120749Y-009109
X162756Y-046531
X146700Y-036217
X153576Y-013537
X153900Y-006895
X143064Y-026749
X166824Y-009109
X208838Y-046531
X192782Y-036217
X199658Y-013537
X199982Y-006895
X189146Y-026749
X212906Y-009109
X254918Y-046531
X238862Y-036217
X245738Y-013537
X246062Y-006895
X235226Y-026749
X258986Y-009109
X301014Y-046531
X284958Y-036217
X291834Y-013537
X292158Y-006895
X281322Y-026749
X305082Y-009109
X347111Y-046531
X331055Y-036217
X337931Y-013537
X338255Y-006895
X327419Y-026749
X351179Y-009109
X393198Y-046531
X377142Y-036217
X384018Y-013537
X384342Y-006895
X373506Y-026749
X397266Y-009109
X423224Y-036221
X430100Y-013540
X430424Y-006899
X419588Y-026753
X443348Y-009113
X158346Y-048457
X160886Y-048457
X204428Y-048457
X206968Y-048457
X250508Y-048457
X253048Y-048457
X296604Y-048457
X299144Y-048457
X342701Y-048457
X345241Y-048457
X388788Y-048457
X391328Y-048457
X437410Y-048461
T02
X064516Y-046355
X115062Y-048006
X109093Y-048387
M30
