G04 Layer: TopLayer*
G04 EasyEDA v6.5.34, 2023-10-13 11:13:59*
G04 8dd2d23bddbb44bbbc94aa604b75b510,674c0623d3a246009f606e19fc16e94a,10*
G04 Gerber Generator version 0.2*
G04 Scale: 100 percent, Rotated: No, Reflected: No *
G04 Dimensions in millimeters *
G04 leading zeros omitted , absolute positions ,4 integer and 5 decimal *
%FSLAX45Y45*%
%MOMM*%

%ADD10C,0.6000*%
%ADD11C,1.0000*%
%ADD12C,1.5000*%
%ADD13C,3.0000*%
%ADD14C,3.5000*%
%ADD15C,3.3000*%
%ADD16C,1.6764*%
%ADD17C,1.7000*%
%ADD18C,1.1999*%
%ADD19R,1.2116X1.2116*%
%ADD20R,1.5748X1.5748*%
%ADD21C,1.5748*%
%ADD22R,0.9000X1.6000*%
%ADD23O,0.8999982X1.5999968*%
%ADD24R,2.2000X1.6000*%
%ADD25O,2.1999956000000003X1.5999968*%
%ADD26C,2.1000*%
%ADD27C,1.6510*%
%ADD28C,3.2000*%
%ADD29C,0.6096*%
%ADD30C,0.6200*%
%ADD31C,0.0188*%

%LPD*%
G36*
X8448598Y-3235096D02*
G01*
X8448598Y-3905097D01*
X8188604Y-4175099D01*
X8188604Y-4435094D01*
X8898585Y-4435094D01*
X8898585Y-3235096D01*
G37*
G36*
X4338574Y-385114D02*
G01*
X4338574Y-705104D01*
X1238605Y-705104D01*
X1238605Y-2605125D01*
X2138578Y-2605125D01*
X3038602Y-1505102D01*
X3938625Y-1205077D01*
X4538624Y-1205077D01*
X4938623Y-805078D01*
X4938623Y-385114D01*
G37*
G36*
X3788613Y-3235096D02*
G01*
X3788613Y-3905097D01*
X3558590Y-4155084D01*
X3558590Y-4425086D01*
X4238599Y-4425086D01*
X4238599Y-3235096D01*
G37*
G36*
X508000Y-533400D02*
G01*
X508000Y-3251200D01*
X45745400Y-3263900D01*
X45745400Y-2844800D01*
X1193800Y-2844800D01*
X1016000Y-2717800D01*
X1016000Y-533400D01*
G37*
G36*
X3638600Y-3365093D02*
G01*
X1308608Y-3375101D01*
X1238605Y-3505098D01*
X1238605Y-4505096D01*
X2838602Y-4505096D01*
X3428593Y-3905097D01*
X3638600Y-3805123D01*
G37*
G36*
X8248599Y-3365093D02*
G01*
X5918606Y-3375101D01*
X5848604Y-3505098D01*
X5848604Y-4475124D01*
X7438593Y-4475124D01*
X8038592Y-3805123D01*
X8248599Y-3805123D01*
G37*
G36*
X8338616Y-405079D02*
G01*
X8338616Y-905103D01*
X7888579Y-1805076D01*
X6438595Y-1805076D01*
X6238595Y-1605127D01*
X5898591Y-1605127D01*
X5898591Y-2605125D01*
X7438593Y-2605125D01*
X7738618Y-2305100D01*
X8888577Y-2305100D01*
X8888577Y-405079D01*
G37*
G36*
X12809321Y-3371494D02*
G01*
X10479328Y-3381451D01*
X10409326Y-3511499D01*
X10406329Y-4311091D01*
X10519714Y-4491075D01*
X12011914Y-4487468D01*
X12599314Y-3911498D01*
X12809321Y-3811473D01*
G37*
G36*
X12917322Y-405079D02*
G01*
X12917322Y-1305102D01*
X12566294Y-1605686D01*
X10422534Y-1605686D01*
X10420705Y-2606497D01*
X11164112Y-2608275D01*
X11666321Y-2305862D01*
X13066725Y-2305862D01*
X13567105Y-1605686D01*
X13572490Y-711098D01*
X13421309Y-405079D01*
G37*
G36*
X12913715Y-3238296D02*
G01*
X12906502Y-3245459D01*
X12906502Y-3954678D01*
X12753492Y-4107687D01*
X12749936Y-4435297D01*
X13367308Y-4438853D01*
X13367308Y-4104081D01*
X13464540Y-3807053D01*
X13464540Y-3240074D01*
X13462711Y-3238296D01*
G37*
G36*
X17416780Y-3371494D02*
G01*
X15086787Y-3381451D01*
X15016784Y-3511499D01*
X15013787Y-4311091D01*
X15127224Y-4491075D01*
X16619423Y-4487468D01*
X17206823Y-3911498D01*
X17416780Y-3811473D01*
G37*
G36*
X17524780Y-405079D02*
G01*
X17524780Y-1305102D01*
X17173803Y-1605686D01*
X15029992Y-1605686D01*
X15028214Y-2606497D01*
X15771622Y-2608275D01*
X16273780Y-2305862D01*
X17674183Y-2305862D01*
X18174614Y-1605686D01*
X18179999Y-711098D01*
X18028818Y-405079D01*
G37*
G36*
X17521224Y-3238296D02*
G01*
X17514011Y-3245459D01*
X17514011Y-3954678D01*
X17361001Y-4107687D01*
X17357394Y-4435297D01*
X17974818Y-4438853D01*
X17974818Y-4104081D01*
X18071998Y-3807053D01*
X18071998Y-3240074D01*
X18070220Y-3238296D01*
G37*
G36*
X22024949Y-3371494D02*
G01*
X19694956Y-3381451D01*
X19624954Y-3511499D01*
X19621957Y-4311091D01*
X19735393Y-4491075D01*
X21227592Y-4487468D01*
X21814993Y-3911498D01*
X22024949Y-3811473D01*
G37*
G36*
X22132950Y-405079D02*
G01*
X22132950Y-1305102D01*
X21781973Y-1605686D01*
X19638162Y-1605686D01*
X19636384Y-2606497D01*
X20379791Y-2608275D01*
X20882000Y-2305862D01*
X22282353Y-2305862D01*
X22782784Y-1605686D01*
X22788168Y-711098D01*
X22636988Y-405079D01*
G37*
G36*
X22129394Y-3238296D02*
G01*
X22122180Y-3245459D01*
X22122180Y-3954678D01*
X21969171Y-4107687D01*
X21965564Y-4435297D01*
X22582987Y-4438853D01*
X22582987Y-4104081D01*
X22680168Y-3807053D01*
X22680168Y-3240074D01*
X22678390Y-3238296D01*
G37*
G36*
X26632966Y-3371494D02*
G01*
X24302974Y-3381451D01*
X24232971Y-3511499D01*
X24229974Y-4311091D01*
X24343410Y-4491075D01*
X25835610Y-4487468D01*
X26423010Y-3911498D01*
X26632966Y-3811473D01*
G37*
G36*
X26740967Y-405079D02*
G01*
X26740967Y-1305102D01*
X26389990Y-1605686D01*
X24246179Y-1605686D01*
X24244401Y-2606497D01*
X24987808Y-2608275D01*
X25489966Y-2305862D01*
X26890370Y-2305862D01*
X27390801Y-1605686D01*
X27396186Y-711098D01*
X27245005Y-405079D01*
G37*
G36*
X26737411Y-3238296D02*
G01*
X26730198Y-3245459D01*
X26730198Y-3954678D01*
X26577188Y-4107687D01*
X26573581Y-4435297D01*
X27191004Y-4438853D01*
X27191004Y-4104081D01*
X27288185Y-3807053D01*
X27288185Y-3240074D01*
X27286407Y-3238296D01*
G37*
G36*
X31242609Y-3371494D02*
G01*
X28912616Y-3381451D01*
X28842614Y-3511499D01*
X28839617Y-4311091D01*
X28953002Y-4491075D01*
X30445202Y-4487468D01*
X31032602Y-3911498D01*
X31242609Y-3811473D01*
G37*
G36*
X31350610Y-405079D02*
G01*
X31350610Y-1305102D01*
X30999633Y-1605686D01*
X28855822Y-1605686D01*
X28854044Y-2606497D01*
X29597400Y-2608275D01*
X30099609Y-2305862D01*
X31500013Y-2305862D01*
X32000444Y-1605686D01*
X32005828Y-711098D01*
X31854597Y-405079D01*
G37*
G36*
X31347003Y-3238296D02*
G01*
X31339840Y-3245459D01*
X31339840Y-3954678D01*
X31186831Y-4107687D01*
X31183224Y-4435297D01*
X31800647Y-4438853D01*
X31800647Y-4104081D01*
X31897827Y-3807053D01*
X31897827Y-3240074D01*
X31895999Y-3238296D01*
G37*
G36*
X35852303Y-3371494D02*
G01*
X33522259Y-3381451D01*
X33452308Y-3511499D01*
X33449310Y-4311091D01*
X33562696Y-4491075D01*
X35054895Y-4487468D01*
X35642296Y-3911498D01*
X35852303Y-3811473D01*
G37*
G36*
X35960304Y-405079D02*
G01*
X35960304Y-1305102D01*
X35609276Y-1605686D01*
X33465465Y-1605686D01*
X33463687Y-2606497D01*
X34207094Y-2608275D01*
X34709303Y-2305862D01*
X36109706Y-2305862D01*
X36610086Y-1605686D01*
X36615471Y-711098D01*
X36464290Y-405079D01*
G37*
G36*
X35956697Y-3238296D02*
G01*
X35949483Y-3245459D01*
X35949483Y-3954678D01*
X35796474Y-4107687D01*
X35792867Y-4435297D01*
X36410290Y-4438853D01*
X36410290Y-4104081D01*
X36507470Y-3807053D01*
X36507470Y-3240074D01*
X36505692Y-3238296D01*
G37*
G36*
X40460980Y-3371494D02*
G01*
X38130988Y-3381451D01*
X38060985Y-3511499D01*
X38057988Y-4311091D01*
X38171374Y-4491075D01*
X39663573Y-4487468D01*
X40250973Y-3911498D01*
X40460980Y-3811473D01*
G37*
G36*
X40568981Y-405079D02*
G01*
X40568981Y-1305102D01*
X40218004Y-1605686D01*
X38074193Y-1605686D01*
X38072415Y-2606497D01*
X38815772Y-2608275D01*
X39317980Y-2305862D01*
X40718384Y-2305862D01*
X41218815Y-1605686D01*
X41224200Y-711098D01*
X41072968Y-405079D01*
G37*
G36*
X40565374Y-3238296D02*
G01*
X40558212Y-3245459D01*
X40558212Y-3954678D01*
X40405202Y-4107687D01*
X40401595Y-4435297D01*
X41018968Y-4438853D01*
X41018968Y-4104081D01*
X41116199Y-3807053D01*
X41116199Y-3240074D01*
X41114370Y-3238296D01*
G37*
G36*
X45069201Y-3371850D02*
G01*
X42739208Y-3381857D01*
X42669206Y-3511854D01*
X42666208Y-4311446D01*
X42779645Y-4491482D01*
X44271844Y-4487875D01*
X44859194Y-3911854D01*
X45069201Y-3811879D01*
G37*
G36*
X45177202Y-405485D02*
G01*
X45177202Y-1305458D01*
X44826224Y-1606042D01*
X42682414Y-1606042D01*
X42680636Y-2606852D01*
X43424043Y-2608681D01*
X43926201Y-2306269D01*
X45326604Y-2306269D01*
X45827035Y-1606042D01*
X45832420Y-711454D01*
X45681239Y-405485D01*
G37*
G36*
X45173595Y-3238652D02*
G01*
X45166432Y-3245866D01*
X45166432Y-3955034D01*
X45013422Y-4108043D01*
X45009816Y-4435652D01*
X45627239Y-4439259D01*
X45627239Y-4104436D01*
X45724419Y-3807460D01*
X45724419Y-3240481D01*
X45722641Y-3238652D01*
G37*
D10*
X12917314Y-4633274D02*
G01*
X12568113Y-4633274D01*
X12110913Y-4176074D01*
D11*
X6451600Y-4635500D02*
G01*
X6788150Y-4635500D01*
X6088595Y-4305089D02*
G01*
X6088595Y-4845093D01*
D10*
X9888735Y-1366278D02*
G01*
X10030940Y-1508478D01*
X11533113Y-1508478D01*
X11747314Y-1294277D01*
X11747314Y-909078D01*
D11*
X5198554Y-4535190D02*
G01*
X4378647Y-4535190D01*
X4298640Y-4615197D01*
X4098477Y-4615197D01*
X4028627Y-4685047D01*
X4028627Y-4845067D01*
D10*
X10145019Y-3911092D02*
G01*
X10145019Y-4379211D01*
X10379199Y-4613399D01*
X11284706Y-4613399D01*
X11471907Y-4800600D01*
X11506200Y-4800600D01*
D12*
X9048501Y-3515103D02*
G01*
X9048501Y-4534915D01*
X8738615Y-4845050D01*
X7428743Y-4845050D01*
X7218685Y-4634992D01*
X6818635Y-4634992D01*
D11*
X5086189Y-4845093D02*
G01*
X4946202Y-4705113D01*
X4865588Y-4705113D01*
X4758593Y-4195104D02*
G01*
X4758593Y-3395116D01*
X5088569Y-3375167D02*
G01*
X5088569Y-4054617D01*
X4949377Y-4194832D01*
X4885631Y-4195086D01*
X2518605Y-4735108D02*
G01*
X3664607Y-4735108D01*
X3774602Y-4845105D01*
X1516192Y-4735108D02*
G01*
X1506184Y-4725101D01*
X1235595Y-4725101D01*
D12*
X9438581Y-135148D02*
G01*
X43865030Y-135148D01*
D10*
X43741019Y-4846055D02*
G01*
X43741019Y-4810249D01*
X43544616Y-4613856D01*
X42639221Y-4613856D01*
X42405015Y-4379658D01*
X42405015Y-3911450D01*
X42664410Y-297464D02*
G01*
X42664410Y-117469D01*
X42668019Y-113865D01*
X43865030Y-722261D02*
G01*
X43407830Y-1179461D01*
X43407830Y-1346862D01*
X42148633Y-702470D02*
G01*
X42316016Y-535068D01*
X43924425Y-535068D01*
X44300625Y-911263D01*
X44334818Y-911263D01*
X42148645Y-1366664D02*
G01*
X42290850Y-1508864D01*
X43793011Y-1508864D01*
X44007211Y-1294660D01*
X44007211Y-909464D01*
X42148633Y-702470D02*
G01*
X41958816Y-892268D01*
X41958816Y-2675260D01*
X45177212Y-4633658D02*
G01*
X44828023Y-4633658D01*
X44370823Y-4176458D01*
D11*
X7605613Y-485104D02*
G01*
X7605613Y-1359700D01*
X7791015Y-1545102D01*
X4701481Y-1365013D02*
G01*
X5131493Y-934994D01*
X5498528Y-934994D01*
X6008563Y-425213D01*
X5631124Y-1915182D02*
G01*
X5631124Y-1642640D01*
X6008563Y-1265194D01*
X6008563Y-1105179D01*
X6558470Y-555005D01*
D10*
X13919720Y-4633274D02*
G01*
X13800310Y-4513856D01*
X13800310Y-4230072D01*
X10782510Y-689482D02*
G01*
X10750115Y-721878D01*
X10750115Y-1353677D01*
D11*
X4611601Y-4705108D02*
G01*
X4471603Y-4845105D01*
X4282602Y-4845105D01*
X4631593Y-4195104D02*
G01*
X4488606Y-4052112D01*
X4488606Y-3385101D01*
X6998604Y-265099D02*
G01*
X6998604Y-135148D01*
D10*
X18527204Y-4633274D02*
G01*
X18407794Y-4513856D01*
X18407794Y-4230072D01*
X15389994Y-689482D02*
G01*
X15357599Y-721878D01*
X15357599Y-1353677D01*
X11605120Y-721878D02*
G01*
X11147920Y-1179078D01*
X11147920Y-1346479D01*
X9888722Y-702083D02*
G01*
X10056119Y-534682D01*
X11664515Y-534682D01*
X12040715Y-910877D01*
X12074908Y-910877D01*
X23135381Y-4633274D02*
G01*
X23015971Y-4513856D01*
X23015971Y-4230072D01*
X19998171Y-689482D02*
G01*
X19965776Y-721878D01*
X19965776Y-1353677D01*
X16088593Y-4845669D02*
G01*
X16088593Y-4809863D01*
X15892200Y-4613473D01*
X14986805Y-4613473D01*
X14752599Y-4379274D01*
X14752599Y-3911066D01*
X15011994Y-297078D02*
G01*
X15011994Y-117083D01*
X15015603Y-113482D01*
X16212604Y-721878D02*
G01*
X15755404Y-1179078D01*
X15755404Y-1346479D01*
X14496206Y-702083D02*
G01*
X14663600Y-534682D01*
X16271999Y-534682D01*
X16648198Y-910877D01*
X16682392Y-910877D01*
X14496219Y-1366278D02*
G01*
X14638423Y-1508478D01*
X16140595Y-1508478D01*
X16354795Y-1294277D01*
X16354795Y-909078D01*
X14496206Y-702083D02*
G01*
X14306400Y-891882D01*
X14306400Y-2674876D01*
X17524796Y-4633274D02*
G01*
X17175596Y-4633274D01*
X16718396Y-4176074D01*
X27743398Y-4633274D02*
G01*
X27623988Y-4513856D01*
X27623988Y-4230072D01*
X24606176Y-689482D02*
G01*
X24573793Y-721878D01*
X24573793Y-1353677D01*
X20696770Y-4845669D02*
G01*
X20696770Y-4809863D01*
X20500380Y-4613473D01*
X19594984Y-4613473D01*
X19360779Y-4379274D01*
X19360779Y-3911066D01*
X19620174Y-297078D02*
G01*
X19620174Y-117083D01*
X19623780Y-113482D01*
X20820781Y-721878D02*
G01*
X20363581Y-1179078D01*
X20363581Y-1346479D01*
X19104383Y-702083D02*
G01*
X19271777Y-534682D01*
X20880176Y-534682D01*
X21256376Y-910877D01*
X21290569Y-910877D01*
X19104396Y-1366278D02*
G01*
X19246601Y-1508478D01*
X20748774Y-1508478D01*
X20962975Y-1294277D01*
X20962975Y-909078D01*
X19104383Y-702083D02*
G01*
X18914579Y-891882D01*
X18914579Y-2674876D01*
X22132975Y-4633274D02*
G01*
X21783774Y-4633274D01*
X21326574Y-4176074D01*
X32353026Y-4633274D02*
G01*
X32233615Y-4513856D01*
X32233615Y-4230072D01*
X29215816Y-689482D02*
G01*
X29183421Y-721878D01*
X29183421Y-1353677D01*
X25304788Y-4845669D02*
G01*
X25304788Y-4809863D01*
X25108395Y-4613473D01*
X24202999Y-4613473D01*
X23968793Y-4379274D01*
X23968793Y-3911066D01*
X24228188Y-297078D02*
G01*
X24228188Y-117083D01*
X24231798Y-113482D01*
X25428798Y-721878D02*
G01*
X24971598Y-1179078D01*
X24971598Y-1346479D01*
X23712401Y-702083D02*
G01*
X23879794Y-534682D01*
X25488193Y-534682D01*
X25864393Y-910877D01*
X25898586Y-910877D01*
X23712413Y-1366278D02*
G01*
X23854618Y-1508478D01*
X25356789Y-1508478D01*
X25570990Y-1294277D01*
X25570990Y-909078D01*
X23712401Y-702083D02*
G01*
X23522594Y-891882D01*
X23522594Y-2674876D01*
X26740990Y-4633274D02*
G01*
X26391791Y-4633274D01*
X25934591Y-4176074D01*
X36962692Y-4633274D02*
G01*
X36843281Y-4513856D01*
X36843281Y-4230072D01*
X33825482Y-689482D02*
G01*
X33793087Y-721878D01*
X33793087Y-1353677D01*
X29914415Y-4845669D02*
G01*
X29914415Y-4809863D01*
X29718025Y-4613473D01*
X28812629Y-4613473D01*
X28578423Y-4379274D01*
X28578423Y-3911066D01*
X28837818Y-297078D02*
G01*
X28837818Y-117083D01*
X28841428Y-113482D01*
X30038426Y-721878D02*
G01*
X29581226Y-1179078D01*
X29581226Y-1346479D01*
X28322028Y-702083D02*
G01*
X28489424Y-534682D01*
X30097821Y-534682D01*
X30474020Y-910877D01*
X30508214Y-910877D01*
X28322041Y-1366278D02*
G01*
X28464245Y-1508478D01*
X29966419Y-1508478D01*
X30180620Y-1294277D01*
X30180620Y-909078D01*
X28322028Y-702083D02*
G01*
X28132224Y-891882D01*
X28132224Y-2674876D01*
X31350620Y-4633274D02*
G01*
X31001418Y-4633274D01*
X30544218Y-4176074D01*
X41571402Y-4633274D02*
G01*
X41451982Y-4513856D01*
X41451982Y-4230072D01*
X38434180Y-689482D02*
G01*
X38401797Y-721878D01*
X38401797Y-1353677D01*
X34524081Y-4845669D02*
G01*
X34524081Y-4809863D01*
X34327691Y-4613473D01*
X33422295Y-4613473D01*
X33188089Y-4379274D01*
X33188089Y-3911066D01*
X33447484Y-297078D02*
G01*
X33447484Y-117083D01*
X33451093Y-113482D01*
X34648091Y-721878D02*
G01*
X34190891Y-1179078D01*
X34190891Y-1346479D01*
X32931694Y-702083D02*
G01*
X33099090Y-534682D01*
X34707487Y-534682D01*
X35083689Y-910877D01*
X35117882Y-910877D01*
X32931707Y-1366278D02*
G01*
X33073914Y-1508478D01*
X34576085Y-1508478D01*
X34790286Y-1294277D01*
X34790286Y-909078D01*
X32931694Y-702083D02*
G01*
X32741890Y-891882D01*
X32741890Y-2674876D01*
X35960286Y-4633274D02*
G01*
X35611084Y-4633274D01*
X35153884Y-4176074D01*
X46179630Y-4633658D02*
G01*
X46060220Y-4514242D01*
X46060220Y-4230458D01*
X43042408Y-689869D02*
G01*
X43010025Y-722261D01*
X43010025Y-1354063D01*
X39132791Y-4845669D02*
G01*
X39132791Y-4809863D01*
X38936388Y-4613473D01*
X38030993Y-4613473D01*
X37796787Y-4379274D01*
X37796787Y-3911066D01*
X38056182Y-297078D02*
G01*
X38056182Y-117083D01*
X38059791Y-113482D01*
X39256792Y-721878D02*
G01*
X38799592Y-1179078D01*
X38799592Y-1346479D01*
X37540394Y-702083D02*
G01*
X37707788Y-534682D01*
X39316197Y-534682D01*
X39692386Y-910877D01*
X39726580Y-910877D01*
X37540417Y-1366278D02*
G01*
X37682611Y-1508478D01*
X39184783Y-1508478D01*
X39398983Y-1294277D01*
X39398983Y-909078D01*
X37540394Y-702083D02*
G01*
X37350588Y-891882D01*
X37350588Y-2674876D01*
X40568984Y-4633274D02*
G01*
X40219795Y-4633274D01*
X39762595Y-4176074D01*
D11*
X2456111Y-4265104D02*
G01*
X2518605Y-4327593D01*
X2518605Y-4735108D01*
D10*
X9888722Y-702083D02*
G01*
X9698918Y-891882D01*
X9698918Y-2674876D01*
D11*
X6998604Y-665093D02*
G01*
X6998604Y-1335092D01*
X6788597Y-1545102D01*
D12*
X2058609Y-195094D02*
G01*
X2058609Y-365013D01*
X2208720Y-515137D01*
X3628577Y-515137D01*
X4008561Y-135148D01*
X6958520Y-135148D01*
D11*
X6998604Y-265099D02*
G01*
X7218611Y-485104D01*
X7351613Y-485104D01*
X6558594Y-555104D02*
G01*
X6558594Y-135148D01*
D12*
X9438581Y-135148D02*
G01*
X9438581Y-805197D01*
X9028620Y-1215156D01*
X9028620Y-2145047D01*
X9048689Y-2165113D01*
D10*
X12749720Y-909078D02*
G01*
X12338509Y-909078D01*
X11913715Y-484281D01*
X11605120Y-321884D02*
G01*
X11767517Y-484281D01*
X11913715Y-484281D01*
X11605120Y-321884D02*
G01*
X11605120Y-100881D01*
X11601510Y-97284D01*
X10404513Y-297078D02*
G01*
X10404513Y-117083D01*
X10408122Y-113482D01*
X14670013Y-3621681D02*
G01*
X14520590Y-3621681D01*
X14275805Y-3866466D01*
X14275805Y-4901473D01*
X17357204Y-909078D02*
G01*
X16945991Y-909078D01*
X16521198Y-484281D01*
X16212604Y-321884D02*
G01*
X16375001Y-484281D01*
X16521198Y-484281D01*
X16212604Y-321884D02*
G01*
X16212604Y-100881D01*
X16208994Y-97284D01*
X19278191Y-3621681D02*
G01*
X19128767Y-3621681D01*
X18883983Y-3866466D01*
X18883983Y-4901473D01*
X21965381Y-909078D02*
G01*
X21554170Y-909078D01*
X21129376Y-484281D01*
X20820781Y-321884D02*
G01*
X20983178Y-484281D01*
X21129376Y-484281D01*
X20820781Y-321884D02*
G01*
X20820781Y-100881D01*
X20817171Y-97284D01*
X23886195Y-3621681D02*
G01*
X23736782Y-3621681D01*
X23491997Y-3866466D01*
X23491997Y-4901473D01*
X26573398Y-909078D02*
G01*
X26162185Y-909078D01*
X25737393Y-484281D01*
X25428798Y-321884D02*
G01*
X25591193Y-484281D01*
X25737393Y-484281D01*
X25428798Y-321884D02*
G01*
X25428798Y-100881D01*
X25425189Y-97284D01*
X28495835Y-3621681D02*
G01*
X28346412Y-3621681D01*
X28101627Y-3866466D01*
X28101627Y-4901473D01*
X31183026Y-909078D02*
G01*
X30771815Y-909078D01*
X30347020Y-484281D01*
X30038426Y-321884D02*
G01*
X30200823Y-484281D01*
X30347020Y-484281D01*
X30038426Y-321884D02*
G01*
X30038426Y-100881D01*
X30034816Y-97284D01*
X33105501Y-3621681D02*
G01*
X32956078Y-3621681D01*
X32711293Y-3866466D01*
X32711293Y-4901473D01*
X35792691Y-909078D02*
G01*
X35381481Y-909078D01*
X34956689Y-484281D01*
X34648091Y-321884D02*
G01*
X34810489Y-484281D01*
X34956689Y-484281D01*
X34648091Y-321884D02*
G01*
X34648091Y-100881D01*
X34644484Y-97284D01*
X37714199Y-3621681D02*
G01*
X37564776Y-3621681D01*
X37319991Y-3866466D01*
X37319991Y-4901473D01*
X40401392Y-909078D02*
G01*
X39990179Y-909078D01*
X39565386Y-484281D01*
X39256792Y-321884D02*
G01*
X39419187Y-484281D01*
X39565386Y-484281D01*
X39256792Y-321884D02*
G01*
X39256792Y-100881D01*
X39253182Y-97284D01*
X45009630Y-909464D02*
G01*
X44598407Y-909464D01*
X44173625Y-484665D01*
X43865030Y-322267D02*
G01*
X44027415Y-484665D01*
X44173625Y-484665D01*
X43865030Y-322267D02*
G01*
X43865030Y-101264D01*
X43861421Y-97668D01*
X10062530Y-3621681D02*
G01*
X9913106Y-3621681D01*
X9668322Y-3866466D01*
X9677400Y-4851400D01*
D12*
X8738555Y-4845067D02*
G01*
X10464800Y-4845067D01*
D10*
X11668112Y-4653074D02*
G01*
X11932716Y-4917671D01*
X15033599Y-4917671D01*
X15244216Y-4707074D01*
X15695996Y-4707074D01*
X15834593Y-4845669D01*
X16275596Y-4653074D02*
G01*
X16540200Y-4917671D01*
X19641766Y-4917671D01*
X19852380Y-4707074D01*
X20304175Y-4707074D01*
X20442770Y-4845669D01*
X20883773Y-4653074D02*
G01*
X21148377Y-4917671D01*
X24249781Y-4917671D01*
X24460398Y-4707074D01*
X24912190Y-4707074D01*
X25050788Y-4845669D01*
X25491790Y-4653074D02*
G01*
X25756382Y-4917671D01*
X28859424Y-4917671D01*
X29070038Y-4707074D01*
X29521820Y-4707074D01*
X29660415Y-4845669D01*
X30101418Y-4653074D02*
G01*
X30366022Y-4917671D01*
X33469077Y-4917671D01*
X33679681Y-4707074D01*
X34131486Y-4707074D01*
X34270081Y-4845669D01*
X34711083Y-4653074D02*
G01*
X34975688Y-4917671D01*
X38077787Y-4917671D01*
X38288391Y-4707074D01*
X38740184Y-4707074D01*
X38878791Y-4845669D01*
D11*
X6938601Y-135092D02*
G01*
X9438581Y-135148D01*
D10*
X10464800Y-4851400D02*
G01*
X10896600Y-4851400D01*
X10909300Y-4838700D01*
X42322427Y-3622067D02*
G01*
X42173004Y-3622067D01*
X41928219Y-3866852D01*
X41928219Y-4901859D01*
X39319708Y-4653023D02*
G01*
X39584373Y-4917696D01*
X41935400Y-4914900D01*
D13*
G01*
X6088608Y-2422601D03*
G01*
X6088608Y-3707587D03*
G01*
X1438605Y-2422601D03*
G01*
X1438605Y-3707587D03*
D14*
G01*
X8058607Y-3545103D03*
G01*
X8058607Y-2545105D03*
G01*
X3448608Y-3545103D03*
G01*
X3448608Y-2545105D03*
D15*
G01*
X6088608Y-1805101D03*
G01*
X6088608Y-4305096D03*
G01*
X1438605Y-1805101D03*
G01*
X1438605Y-4305096D03*
D16*
G01*
X6998614Y-665098D03*
G01*
X6998614Y-265099D03*
D17*
G01*
X6788607Y-1545107D03*
G01*
X7791018Y-1545107D03*
G01*
X6558610Y-555117D03*
G01*
X6558610Y-1557528D03*
G01*
X6088608Y-4845100D03*
G01*
X5086197Y-4845100D03*
G01*
X4628616Y-1915109D03*
G01*
X5631027Y-1915109D03*
G01*
X2518613Y-4735118D03*
G01*
X1516202Y-4735118D03*
D18*
G01*
X4701616Y-1365097D03*
G01*
X4955616Y-1365097D03*
G01*
X5351602Y-1365097D03*
G01*
X5605602Y-1365097D03*
D19*
G01*
X7351598Y-485089D03*
G01*
X7605598Y-485089D03*
G01*
X4865598Y-4705095D03*
G01*
X4611598Y-4705095D03*
G01*
X1235608Y-4725111D03*
G01*
X981608Y-4725111D03*
D20*
G01*
X4282592Y-4845100D03*
D21*
G01*
X4028617Y-4845100D03*
G01*
X3774617Y-4845100D03*
D13*
G01*
X8361095Y-4265117D03*
G01*
X7076109Y-4265117D03*
G01*
X3741115Y-4265117D03*
G01*
X2456129Y-4265117D03*
D22*
G01*
X4631639Y-4195089D03*
D23*
G01*
X4758639Y-4195089D03*
G01*
X4885639Y-4195089D03*
D24*
G01*
X9164497Y-495071D03*
D25*
G01*
X8608517Y-495071D03*
G01*
X8052511Y-495071D03*
D24*
G01*
X5194477Y-475005D03*
D25*
G01*
X4638497Y-475005D03*
G01*
X4082491Y-475005D03*
D17*
G01*
X2648610Y-175107D03*
G01*
X3651021Y-175107D03*
D26*
G01*
X1368602Y-195097D03*
G01*
X1638604Y-195097D03*
G01*
X2058619Y-195097D03*
G01*
X2328621Y-195097D03*
G01*
X738606Y-205104D03*
G01*
X738606Y-655116D03*
D27*
G01*
X5595620Y-3905097D03*
G01*
X5341620Y-3905097D03*
D24*
G01*
X45968920Y-497204D03*
D25*
G01*
X45412913Y-497204D03*
G01*
X44856908Y-497204D03*
D24*
G01*
X41360699Y-496823D03*
D25*
G01*
X40804693Y-496823D03*
G01*
X40248687Y-496823D03*
D24*
G01*
X36751971Y-496823D03*
D25*
G01*
X36195990Y-496823D03*
G01*
X35639984Y-496823D03*
D24*
G01*
X32142328Y-496823D03*
D25*
G01*
X31586322Y-496823D03*
G01*
X31030316Y-496823D03*
D24*
G01*
X27532685Y-496823D03*
D25*
G01*
X26976679Y-496823D03*
G01*
X26420673Y-496823D03*
D24*
G01*
X22924668Y-496823D03*
D25*
G01*
X22368662Y-496823D03*
G01*
X21812656Y-496823D03*
D24*
G01*
X18316498Y-496823D03*
D25*
G01*
X17760492Y-496823D03*
G01*
X17204486Y-496823D03*
D24*
G01*
X13709015Y-496823D03*
D25*
G01*
X13153009Y-496823D03*
G01*
X12597002Y-496823D03*
D17*
G01*
X45177202Y-4633595D03*
G01*
X46179613Y-4633595D03*
G01*
X43407838Y-1346835D03*
G01*
X43407838Y-344423D03*
D16*
G01*
X43865038Y-722248D03*
G01*
X43865038Y-322249D03*
D17*
G01*
X42664379Y-297561D03*
G01*
X42664379Y-1299971D03*
G01*
X44007277Y-909446D03*
G01*
X45009688Y-909446D03*
G01*
X40568981Y-4633213D03*
G01*
X41571392Y-4633213D03*
G01*
X38799617Y-1346454D03*
G01*
X38799617Y-344043D03*
D16*
G01*
X39256817Y-721868D03*
G01*
X39256817Y-321868D03*
D17*
G01*
X38056159Y-297179D03*
G01*
X38056159Y-1299590D03*
G01*
X39399057Y-909065D03*
G01*
X40401468Y-909065D03*
G01*
X35960278Y-4633213D03*
G01*
X36962689Y-4633213D03*
G01*
X34190914Y-1346454D03*
G01*
X34190914Y-344043D03*
D16*
G01*
X34648114Y-721868D03*
G01*
X34648114Y-321868D03*
D17*
G01*
X33447456Y-297179D03*
G01*
X33447456Y-1299590D03*
G01*
X34790354Y-909065D03*
G01*
X35792765Y-909065D03*
G01*
X31350610Y-4633213D03*
G01*
X32353021Y-4633213D03*
G01*
X29581246Y-1346454D03*
G01*
X29581246Y-344043D03*
D16*
G01*
X30038446Y-721868D03*
G01*
X30038446Y-321868D03*
D17*
G01*
X28837788Y-297179D03*
G01*
X28837788Y-1299590D03*
G01*
X30180686Y-909065D03*
G01*
X31183097Y-909065D03*
G01*
X26740967Y-4633213D03*
G01*
X27743378Y-4633213D03*
G01*
X24971603Y-1346454D03*
G01*
X24971603Y-344043D03*
D16*
G01*
X25428803Y-721868D03*
G01*
X25428803Y-321868D03*
D17*
G01*
X24228145Y-297179D03*
G01*
X24228145Y-1299590D03*
G01*
X25571043Y-909065D03*
G01*
X26573454Y-909065D03*
G01*
X22132950Y-4633213D03*
G01*
X23135361Y-4633213D03*
G01*
X20363586Y-1346454D03*
G01*
X20363586Y-344043D03*
D16*
G01*
X20820786Y-721868D03*
G01*
X20820786Y-321868D03*
D17*
G01*
X19620128Y-297179D03*
G01*
X19620128Y-1299590D03*
G01*
X20963026Y-909065D03*
G01*
X21965437Y-909065D03*
G01*
X17524780Y-4633213D03*
G01*
X18527191Y-4633213D03*
G01*
X15755416Y-1346454D03*
G01*
X15755416Y-344043D03*
D16*
G01*
X16212616Y-721868D03*
G01*
X16212616Y-321868D03*
D17*
G01*
X15011958Y-297179D03*
G01*
X15011958Y-1299590D03*
G01*
X16354856Y-909065D03*
G01*
X17357267Y-909065D03*
G01*
X12917297Y-4633213D03*
G01*
X13919708Y-4633213D03*
G01*
X11147933Y-1346454D03*
G01*
X11147933Y-344043D03*
D16*
G01*
X11605133Y-721868D03*
G01*
X11605133Y-321868D03*
D17*
G01*
X10404475Y-297179D03*
G01*
X10404475Y-1299590D03*
G01*
X11747372Y-909065D03*
G01*
X12749784Y-909065D03*
D22*
G01*
X42179240Y-4592193D03*
D23*
G01*
X42306240Y-4592193D03*
G01*
X42433240Y-4592193D03*
D22*
G01*
X37571019Y-4591812D03*
D23*
G01*
X37698019Y-4591812D03*
G01*
X37825019Y-4591812D03*
D22*
G01*
X32962316Y-4591812D03*
D23*
G01*
X33089316Y-4591812D03*
G01*
X33216316Y-4591812D03*
D22*
G01*
X28352648Y-4591812D03*
D23*
G01*
X28479648Y-4591812D03*
G01*
X28606648Y-4591812D03*
D22*
G01*
X23743005Y-4591812D03*
D23*
G01*
X23870005Y-4591812D03*
G01*
X23997005Y-4591812D03*
D22*
G01*
X19134988Y-4591812D03*
D23*
G01*
X19261988Y-4591812D03*
G01*
X19388988Y-4591812D03*
D22*
G01*
X14526818Y-4591812D03*
D23*
G01*
X14653818Y-4591812D03*
G01*
X14780818Y-4591812D03*
D22*
G01*
X9919334Y-4591812D03*
D23*
G01*
X10046334Y-4591812D03*
G01*
X10173334Y-4591812D03*
D15*
G01*
X42879924Y-4309567D03*
G01*
X42879924Y-1809546D03*
G01*
X38271704Y-4309186D03*
G01*
X38271704Y-1809165D03*
G01*
X33663000Y-4309186D03*
G01*
X33663000Y-1809165D03*
G01*
X29053332Y-4309186D03*
G01*
X29053332Y-1809165D03*
G01*
X24443690Y-4309186D03*
G01*
X24443690Y-1809165D03*
G01*
X19835672Y-4309186D03*
G01*
X19835672Y-1809165D03*
G01*
X15227503Y-4309186D03*
G01*
X15227503Y-1809165D03*
G01*
X10620019Y-4309186D03*
G01*
X10620019Y-1809165D03*
D19*
G01*
X46060106Y-4230496D03*
G01*
X45806106Y-4230496D03*
G01*
X44173648Y-484759D03*
G01*
X44427648Y-484759D03*
D18*
G01*
X42148506Y-702437D03*
G01*
X42402506Y-702437D03*
G01*
X42148633Y-1366672D03*
G01*
X42402633Y-1366672D03*
D19*
G01*
X41451885Y-4230115D03*
G01*
X41197885Y-4230115D03*
G01*
X39565427Y-484378D03*
G01*
X39819427Y-484378D03*
D18*
G01*
X37540285Y-702055D03*
G01*
X37794285Y-702055D03*
G01*
X37540412Y-1366291D03*
G01*
X37794412Y-1366291D03*
D19*
G01*
X36843182Y-4230115D03*
G01*
X36589182Y-4230115D03*
G01*
X34956724Y-484378D03*
G01*
X35210724Y-484378D03*
D18*
G01*
X32931582Y-702055D03*
G01*
X33185582Y-702055D03*
G01*
X32931709Y-1366291D03*
G01*
X33185709Y-1366291D03*
D19*
G01*
X32233514Y-4230115D03*
G01*
X31979514Y-4230115D03*
G01*
X30347056Y-484378D03*
G01*
X30601056Y-484378D03*
D18*
G01*
X28321914Y-702055D03*
G01*
X28575914Y-702055D03*
G01*
X28322041Y-1366291D03*
G01*
X28576041Y-1366291D03*
D19*
G01*
X27623871Y-4230115D03*
G01*
X27369871Y-4230115D03*
G01*
X25737413Y-484378D03*
G01*
X25991413Y-484378D03*
D18*
G01*
X23712271Y-702055D03*
G01*
X23966271Y-702055D03*
G01*
X23712398Y-1366291D03*
G01*
X23966398Y-1366291D03*
D19*
G01*
X23015854Y-4230115D03*
G01*
X22761854Y-4230115D03*
G01*
X21129396Y-484378D03*
G01*
X21383396Y-484378D03*
D18*
G01*
X19104254Y-702055D03*
G01*
X19358254Y-702055D03*
G01*
X19104381Y-1366291D03*
G01*
X19358381Y-1366291D03*
D19*
G01*
X18407684Y-4230115D03*
G01*
X18153684Y-4230115D03*
G01*
X16521226Y-484378D03*
G01*
X16775226Y-484378D03*
D18*
G01*
X14496084Y-702055D03*
G01*
X14750084Y-702055D03*
G01*
X14496211Y-1366291D03*
G01*
X14750211Y-1366291D03*
D19*
G01*
X13800200Y-4230115D03*
G01*
X13546200Y-4230115D03*
G01*
X11913743Y-484378D03*
G01*
X12167743Y-484378D03*
D18*
G01*
X9888600Y-702055D03*
G01*
X10142600Y-702055D03*
G01*
X9888727Y-1366291D03*
G01*
X10142727Y-1366291D03*
D27*
G01*
X42405020Y-3911447D03*
G01*
X42151020Y-3911447D03*
G01*
X37796800Y-3911066D03*
G01*
X37542800Y-3911066D03*
G01*
X33188097Y-3911066D03*
G01*
X32934097Y-3911066D03*
G01*
X28578429Y-3911066D03*
G01*
X28324429Y-3911066D03*
G01*
X23968786Y-3911066D03*
G01*
X23714786Y-3911066D03*
G01*
X19360768Y-3911066D03*
G01*
X19106768Y-3911066D03*
G01*
X14752599Y-3911066D03*
G01*
X14498599Y-3911066D03*
G01*
X10145115Y-3911066D03*
G01*
X9891115Y-3911066D03*
D13*
G01*
X42893996Y-2426970D03*
G01*
X42893996Y-3711955D03*
G01*
X45209586Y-4266564D03*
G01*
X43924600Y-4266564D03*
G01*
X38285775Y-2426588D03*
G01*
X38285775Y-3711575D03*
G01*
X40601366Y-4266184D03*
G01*
X39316380Y-4266184D03*
G01*
X33677072Y-2426588D03*
G01*
X33677072Y-3711575D03*
G01*
X35992663Y-4266184D03*
G01*
X34707677Y-4266184D03*
G01*
X29067404Y-2426588D03*
G01*
X29067404Y-3711575D03*
G01*
X31382995Y-4266184D03*
G01*
X30098009Y-4266184D03*
G01*
X24457761Y-2426588D03*
G01*
X24457761Y-3711575D03*
G01*
X26773352Y-4266184D03*
G01*
X25488366Y-4266184D03*
G01*
X19849744Y-2426588D03*
G01*
X19849744Y-3711575D03*
G01*
X22165335Y-4266184D03*
G01*
X20880349Y-4266184D03*
G01*
X15241574Y-2426588D03*
G01*
X15241574Y-3711575D03*
G01*
X17557165Y-4266184D03*
G01*
X16272179Y-4266184D03*
G01*
X10634090Y-2426588D03*
G01*
X10634090Y-3711575D03*
G01*
X12949681Y-4266184D03*
G01*
X11664695Y-4266184D03*
D14*
G01*
X44875323Y-3553663D03*
G01*
X44875323Y-2553665D03*
G01*
X40267102Y-3553282D03*
G01*
X40267102Y-2553284D03*
G01*
X35658399Y-3553282D03*
G01*
X35658399Y-2553284D03*
G01*
X31048731Y-3553282D03*
G01*
X31048731Y-2553284D03*
G01*
X26439088Y-3553282D03*
G01*
X26439088Y-2553284D03*
G01*
X21831071Y-3553282D03*
G01*
X21831071Y-2553284D03*
G01*
X17222901Y-3553282D03*
G01*
X17222901Y-2553284D03*
G01*
X12615418Y-3553282D03*
G01*
X12615418Y-2553284D03*
D28*
G01*
X46647100Y-4673600D03*
G01*
X46647100Y-317500D03*
G01*
X292100Y-304800D03*
G01*
X292100Y-4660900D03*
D29*
G01*
X5198618Y-4535119D03*
G01*
X9048622Y-3515105D03*
G01*
X9048622Y-2165095D03*
G01*
X5088610Y-3375101D03*
G01*
X4758613Y-3395116D03*
G01*
X6008624Y-425094D03*
G01*
X4488611Y-3385108D03*
G01*
X11668125Y-4653076D03*
G01*
X10062514Y-3621684D03*
G01*
X10750118Y-1353667D03*
G01*
X10782528Y-689482D03*
G01*
X9698913Y-2674873D03*
G01*
X12074906Y-910869D03*
G01*
X16275608Y-4653076D03*
G01*
X14669998Y-3621684D03*
G01*
X15357602Y-1353667D03*
G01*
X15390012Y-689482D03*
G01*
X14306397Y-2674873D03*
G01*
X16682389Y-910869D03*
G01*
X20883803Y-4653076D03*
G01*
X19278193Y-3621684D03*
G01*
X19965797Y-1353667D03*
G01*
X19998207Y-689482D03*
G01*
X18914592Y-2674873D03*
G01*
X21290584Y-910869D03*
G01*
X25491795Y-4653076D03*
G01*
X23886185Y-3621684D03*
G01*
X24573788Y-1353667D03*
G01*
X24606199Y-689482D03*
G01*
X23522584Y-2674873D03*
G01*
X25898576Y-910869D03*
G01*
X30101438Y-4653076D03*
G01*
X28495828Y-3621684D03*
G01*
X29183431Y-1353667D03*
G01*
X29215841Y-689482D03*
G01*
X28132227Y-2674873D03*
G01*
X30508219Y-910869D03*
G01*
X34711106Y-4653076D03*
G01*
X33105496Y-3621684D03*
G01*
X33793099Y-1353667D03*
G01*
X33825510Y-689482D03*
G01*
X32741895Y-2674873D03*
G01*
X35117887Y-910869D03*
G01*
X39319809Y-4653076D03*
G01*
X37714199Y-3621684D03*
G01*
X38401802Y-1353667D03*
G01*
X38434213Y-689482D03*
G01*
X37350598Y-2674873D03*
G01*
X39726590Y-910869D03*
G01*
X42322419Y-3622065D03*
G01*
X43010023Y-1354048D03*
G01*
X43042433Y-689863D03*
G01*
X41958818Y-2675254D03*
G01*
X44334811Y-911250D03*
D30*
G01*
X6451600Y-4635500D03*
G01*
X11506200Y-4800600D03*
G01*
X10909300Y-4838700D03*
D29*
G01*
X15834613Y-4845685D03*
G01*
X16088613Y-4845685D03*
G01*
X20442783Y-4845685D03*
G01*
X20696783Y-4845685D03*
G01*
X25050800Y-4845685D03*
G01*
X25304800Y-4845685D03*
G01*
X29660418Y-4845685D03*
G01*
X29914418Y-4845685D03*
G01*
X34270086Y-4845685D03*
G01*
X34524086Y-4845685D03*
G01*
X38878789Y-4845685D03*
G01*
X39132789Y-4845685D03*
G01*
X43741009Y-4846065D03*
M02*
