G04 Layer: BottomSilkscreenLayer*
G04 EasyEDA v6.5.34, 2023-10-13 11:13:59*
G04 8dd2d23bddbb44bbbc94aa604b75b510,674c0623d3a246009f606e19fc16e94a,10*
G04 Gerber Generator version 0.2*
G04 Scale: 100 percent, Rotated: No, Reflected: No *
G04 Dimensions in millimeters *
G04 leading zeros omitted , absolute positions ,4 integer and 5 decimal *
%FSLAX45Y45*%
%MOMM*%

%ADD10C,0.1524*%
%ADD11C,0.1500*%
%ADD12C,0.1400*%
%ADD13C,1.0000*%
%ADD14C,0.2000*%
%ADD15C,0.2540*%
%ADD16C,0.0198*%

%LPD*%
G36*
X7120178Y-2396845D02*
G01*
X7034174Y-2397302D01*
X6976872Y-2398268D01*
X6957771Y-2398877D01*
X6946544Y-2399588D01*
X6944207Y-2399944D01*
X6943902Y-2400147D01*
X6945884Y-2403144D01*
X6960717Y-2422753D01*
X7025335Y-2505049D01*
X7070039Y-2561336D01*
X7244842Y-2780233D01*
X6874611Y-2784398D01*
X7661148Y-3376472D01*
X7747203Y-3441039D01*
X7796784Y-3477869D01*
X7810906Y-3488131D01*
X7819440Y-3494074D01*
X7824114Y-3496818D01*
X7824520Y-3496868D01*
X7824622Y-3496614D01*
X7819796Y-3489858D01*
X7787792Y-3449777D01*
X7632750Y-3257854D01*
X7524851Y-3124708D01*
X7442149Y-3022244D01*
X7394143Y-2962351D01*
X7387234Y-2953410D01*
X7388301Y-2953004D01*
X7397038Y-2952191D01*
X7413853Y-2951429D01*
X7437678Y-2950667D01*
X7502042Y-2949448D01*
X7540498Y-2949041D01*
X7735620Y-2947822D01*
X7394092Y-2519934D01*
X7296454Y-2396845D01*
G37*
G36*
X2515057Y-2381758D02*
G01*
X2439416Y-2382164D01*
X2382113Y-2383129D01*
X2363012Y-2383790D01*
X2351735Y-2384501D01*
X2349398Y-2384856D01*
X2349093Y-2385060D01*
X2351074Y-2388057D01*
X2365959Y-2407666D01*
X2393289Y-2442718D01*
X2475280Y-2546248D01*
X2650032Y-2765145D01*
X2279853Y-2769311D01*
X3059582Y-3356305D01*
X3152394Y-3425951D01*
X3202025Y-3462782D01*
X3216097Y-3472992D01*
X3226054Y-3479901D01*
X3229356Y-3481730D01*
X3229864Y-3481628D01*
X3229051Y-3480155D01*
X3219348Y-3467506D01*
X3175558Y-3412947D01*
X2906877Y-3080918D01*
X2831592Y-2987548D01*
X2792476Y-2938322D01*
X2793492Y-2937916D01*
X2802280Y-2937103D01*
X2819095Y-2936341D01*
X2842920Y-2935579D01*
X2907284Y-2934360D01*
X2945688Y-2933954D01*
X3140811Y-2932734D01*
X2746451Y-2438450D01*
X2701696Y-2381758D01*
G37*
G36*
X11756186Y-2218080D02*
G01*
X11682323Y-2218588D01*
X11627916Y-2219604D01*
X11610695Y-2220264D01*
X11601551Y-2220976D01*
X11600383Y-2221331D01*
X11603431Y-2225852D01*
X11620042Y-2247544D01*
X11648744Y-2284323D01*
X11732514Y-2390038D01*
X11901322Y-2601417D01*
X11531142Y-2605633D01*
X12324283Y-3202686D01*
X12411659Y-3268217D01*
X12457379Y-3302101D01*
X12469977Y-3311144D01*
X12477343Y-3316173D01*
X12480798Y-3318052D01*
X12481102Y-3318001D01*
X12480798Y-3317138D01*
X12476327Y-3311093D01*
X12444323Y-3270961D01*
X12289231Y-3079038D01*
X12181382Y-2945942D01*
X12098629Y-2843428D01*
X12049099Y-2781554D01*
X12043765Y-2774645D01*
X12044781Y-2774238D01*
X12053519Y-2773426D01*
X12070384Y-2772613D01*
X12123928Y-2771241D01*
X12196978Y-2770276D01*
X12392101Y-2769006D01*
X12032843Y-2318867D01*
X11952986Y-2218080D01*
G37*
G36*
X16363696Y-2218080D02*
G01*
X16289832Y-2218588D01*
X16235426Y-2219604D01*
X16218204Y-2220264D01*
X16209060Y-2220976D01*
X16207841Y-2221331D01*
X16209822Y-2224379D01*
X16224707Y-2243937D01*
X16289324Y-2326284D01*
X16508831Y-2601417D01*
X16138601Y-2605633D01*
X16911370Y-3187344D01*
X17002607Y-3255822D01*
X17056252Y-3295751D01*
X17081754Y-3314141D01*
X17086884Y-3317443D01*
X17088307Y-3318052D01*
X17088612Y-3317951D01*
X17087799Y-3316478D01*
X17082008Y-3308807D01*
X17045178Y-3262782D01*
X16884497Y-3063951D01*
X16777055Y-2931363D01*
X16697960Y-2833319D01*
X16651224Y-2774645D01*
X16652290Y-2774238D01*
X16661028Y-2773426D01*
X16677843Y-2772613D01*
X16731437Y-2771241D01*
X16804487Y-2770276D01*
X16999559Y-2769006D01*
X16650665Y-2331872D01*
X16560444Y-2218080D01*
G37*
G36*
X20971865Y-2218080D02*
G01*
X20898002Y-2218588D01*
X20843595Y-2219604D01*
X20826374Y-2220264D01*
X20817230Y-2220976D01*
X20816062Y-2221331D01*
X20817992Y-2224379D01*
X20832876Y-2243937D01*
X20897494Y-2326284D01*
X21117001Y-2601417D01*
X20746770Y-2605633D01*
X21526500Y-3192576D01*
X21615146Y-3259074D01*
X21681592Y-3308299D01*
X21693581Y-3316579D01*
X21696070Y-3317951D01*
X21696680Y-3318052D01*
X21696680Y-3317544D01*
X21693327Y-3312871D01*
X21668892Y-3282086D01*
X21522893Y-3101238D01*
X21327567Y-2859938D01*
X21269960Y-2788158D01*
X21259393Y-2774645D01*
X21260460Y-2774238D01*
X21269198Y-2773426D01*
X21286012Y-2772613D01*
X21339606Y-2771241D01*
X21412657Y-2770276D01*
X21607729Y-2769006D01*
X21258834Y-2331872D01*
X21168614Y-2218080D01*
G37*
G36*
X25579882Y-2218080D02*
G01*
X25506019Y-2218588D01*
X25451612Y-2219604D01*
X25434391Y-2220264D01*
X25425247Y-2220976D01*
X25424028Y-2221331D01*
X25426009Y-2224379D01*
X25440894Y-2243937D01*
X25505511Y-2326284D01*
X25725018Y-2601417D01*
X25354788Y-2605633D01*
X26127557Y-3187344D01*
X26218794Y-3255822D01*
X26272439Y-3295751D01*
X26297940Y-3314141D01*
X26303071Y-3317443D01*
X26304494Y-3318052D01*
X26304798Y-3317951D01*
X26303986Y-3316478D01*
X26298194Y-3308807D01*
X26261364Y-3262782D01*
X26100684Y-3063951D01*
X25993242Y-2931363D01*
X25914146Y-2833319D01*
X25867410Y-2774645D01*
X25868477Y-2774238D01*
X25877215Y-2773426D01*
X25894030Y-2772613D01*
X25947624Y-2771241D01*
X26020674Y-2770276D01*
X26215746Y-2769006D01*
X25866852Y-2331872D01*
X25776631Y-2218080D01*
G37*
G36*
X30189474Y-2218080D02*
G01*
X30115662Y-2218588D01*
X30061255Y-2219604D01*
X30043983Y-2220264D01*
X30034890Y-2220976D01*
X30033671Y-2221331D01*
X30035652Y-2224379D01*
X30050536Y-2243937D01*
X30077867Y-2278989D01*
X30115154Y-2326284D01*
X30334661Y-2601417D01*
X29964430Y-2605633D01*
X30737200Y-3187344D01*
X30832806Y-3259074D01*
X30899252Y-3308299D01*
X30908447Y-3314700D01*
X30913425Y-3317798D01*
X30914339Y-3318052D01*
X30914289Y-3317544D01*
X30909615Y-3311093D01*
X30877611Y-3270961D01*
X30536235Y-2848762D01*
X30485689Y-2785719D01*
X30477053Y-2774645D01*
X30478069Y-2774238D01*
X30486858Y-2773426D01*
X30503672Y-2772613D01*
X30557215Y-2771241D01*
X30630317Y-2770276D01*
X30825389Y-2769006D01*
X30480152Y-2336444D01*
X30386274Y-2218080D01*
G37*
G36*
X34799168Y-2218080D02*
G01*
X34725305Y-2218588D01*
X34670898Y-2219604D01*
X34653677Y-2220264D01*
X34644533Y-2220976D01*
X34643364Y-2221331D01*
X34646412Y-2225852D01*
X34662973Y-2247544D01*
X34730029Y-2332888D01*
X34944304Y-2601417D01*
X34574073Y-2605633D01*
X35360610Y-3197707D01*
X35450729Y-3265271D01*
X35498379Y-3300628D01*
X35511689Y-3310280D01*
X35519614Y-3315766D01*
X35522357Y-3317443D01*
X35523779Y-3318052D01*
X35524084Y-3318001D01*
X35523779Y-3317138D01*
X35519258Y-3311093D01*
X35487254Y-3270961D01*
X35332212Y-3079038D01*
X35224313Y-2945942D01*
X35141611Y-2843428D01*
X35092030Y-2781554D01*
X35086696Y-2774645D01*
X35087763Y-2774238D01*
X35096500Y-2773426D01*
X35113315Y-2772613D01*
X35166909Y-2771241D01*
X35239960Y-2770276D01*
X35435082Y-2769006D01*
X35086137Y-2331872D01*
X34995916Y-2218080D01*
G37*
G36*
X39407846Y-2218080D02*
G01*
X39334033Y-2218588D01*
X39279626Y-2219604D01*
X39262354Y-2220264D01*
X39253261Y-2220976D01*
X39252042Y-2221331D01*
X39254023Y-2224379D01*
X39268908Y-2243937D01*
X39296238Y-2278989D01*
X39333525Y-2326284D01*
X39553032Y-2601417D01*
X39182802Y-2605633D01*
X39962531Y-3192576D01*
X40059406Y-3265271D01*
X40107057Y-3300628D01*
X40128342Y-3315766D01*
X40132050Y-3317951D01*
X40132812Y-3317951D01*
X40131796Y-3316173D01*
X40122297Y-3303828D01*
X40078507Y-3249269D01*
X39804238Y-2910332D01*
X39730984Y-2819400D01*
X39695424Y-2774645D01*
X39696440Y-2774238D01*
X39705229Y-2773426D01*
X39722044Y-2772613D01*
X39775587Y-2771241D01*
X39848637Y-2770276D01*
X40043760Y-2769006D01*
X39691310Y-2327402D01*
X39604645Y-2218080D01*
G37*
G36*
X44036589Y-2218436D02*
G01*
X43950585Y-2218893D01*
X43893282Y-2219807D01*
X43874182Y-2220468D01*
X43862955Y-2221179D01*
X43860567Y-2221534D01*
X43860262Y-2221738D01*
X43862244Y-2224735D01*
X43877128Y-2244344D01*
X43941746Y-2326640D01*
X43986450Y-2382926D01*
X44161252Y-2601823D01*
X43791022Y-2605989D01*
X44584213Y-3203041D01*
X44671589Y-3268573D01*
X44717309Y-3302457D01*
X44729908Y-3311550D01*
X44737223Y-3316579D01*
X44739712Y-3318001D01*
X44740931Y-3318459D01*
X44740931Y-3317900D01*
X44736867Y-3312261D01*
X44707302Y-3275228D01*
X44555206Y-3086912D01*
X44441262Y-2946298D01*
X44358560Y-2843834D01*
X44310554Y-2783941D01*
X44303645Y-2775000D01*
X44304661Y-2774594D01*
X44313449Y-2773781D01*
X44330264Y-2773019D01*
X44354089Y-2772257D01*
X44418453Y-2771038D01*
X44456908Y-2770632D01*
X44651980Y-2769412D01*
X44265189Y-2284679D01*
X44212865Y-2218436D01*
G37*
D10*
X2688597Y-329770D02*
G01*
X2688597Y-438873D01*
X2688597Y-329770D02*
G01*
X2641838Y-329770D01*
X2626253Y-334965D01*
X2621056Y-340161D01*
X2615862Y-350553D01*
X2615862Y-366138D01*
X2621056Y-376529D01*
X2626253Y-381723D01*
X2641838Y-386920D01*
X2688597Y-386920D01*
X2581572Y-329770D02*
G01*
X2581572Y-407703D01*
X2576375Y-423288D01*
X2565984Y-433679D01*
X2550398Y-438873D01*
X2540007Y-438873D01*
X2524422Y-433679D01*
X2514031Y-423288D01*
X2508834Y-407703D01*
X2508834Y-329770D01*
X2401808Y-345356D02*
G01*
X2412199Y-334965D01*
X2427785Y-329770D01*
X2448567Y-329770D01*
X2464153Y-334965D01*
X2474544Y-345356D01*
X2474544Y-355747D01*
X2469349Y-366138D01*
X2464153Y-371335D01*
X2453761Y-376529D01*
X2422591Y-386920D01*
X2412199Y-392115D01*
X2407003Y-397311D01*
X2401808Y-407703D01*
X2401808Y-423288D01*
X2412199Y-433679D01*
X2427785Y-438873D01*
X2448567Y-438873D01*
X2464153Y-433679D01*
X2474544Y-423288D01*
X2367518Y-329770D02*
G01*
X2367518Y-438873D01*
X2294783Y-329770D02*
G01*
X2294783Y-438873D01*
X2367518Y-381723D02*
G01*
X2294783Y-381723D01*
X1948604Y-400540D02*
G01*
X1938213Y-395343D01*
X1922627Y-379757D01*
X1922627Y-488861D01*
X1883140Y-405734D02*
G01*
X1883140Y-400540D01*
X1877946Y-390149D01*
X1872749Y-384952D01*
X1862358Y-379757D01*
X1841578Y-379757D01*
X1831187Y-384952D01*
X1825990Y-390149D01*
X1820796Y-400540D01*
X1820796Y-410931D01*
X1825990Y-421322D01*
X1836381Y-436907D01*
X1888337Y-488861D01*
X1815599Y-488861D01*
X1781309Y-379757D02*
G01*
X1739747Y-488861D01*
X1698183Y-379757D02*
G01*
X1739747Y-488861D01*
X1160668Y-345742D02*
G01*
X1165865Y-335351D01*
X1176256Y-324959D01*
X1186644Y-319765D01*
X1207427Y-319765D01*
X1217818Y-324959D01*
X1228209Y-335351D01*
X1233406Y-345742D01*
X1238600Y-361330D01*
X1238600Y-387306D01*
X1233406Y-402892D01*
X1228209Y-413283D01*
X1217818Y-423674D01*
X1207427Y-428868D01*
X1186644Y-428868D01*
X1176256Y-423674D01*
X1165865Y-413283D01*
X1160668Y-402892D01*
X1160668Y-387306D01*
X1186644Y-387306D02*
G01*
X1160668Y-387306D01*
X1126378Y-319765D02*
G01*
X1126378Y-428868D01*
X1126378Y-319765D02*
G01*
X1053642Y-428868D01*
X1053642Y-319765D02*
G01*
X1053642Y-428868D01*
X1019352Y-319765D02*
G01*
X1019352Y-428868D01*
X1019352Y-319765D02*
G01*
X982985Y-319765D01*
X967397Y-324959D01*
X957005Y-335351D01*
X951811Y-345742D01*
X946614Y-361330D01*
X946614Y-387306D01*
X951811Y-402892D01*
X957005Y-413283D01*
X967397Y-423674D01*
X982985Y-428868D01*
X1019352Y-428868D01*
X886647Y-829754D02*
G01*
X938603Y-902489D01*
X860671Y-902489D01*
X886647Y-829754D02*
G01*
X886647Y-938857D01*
X764037Y-829754D02*
G01*
X815990Y-829754D01*
X821187Y-876513D01*
X815990Y-871319D01*
X800404Y-866122D01*
X784819Y-866122D01*
X769231Y-871319D01*
X758840Y-881707D01*
X753645Y-897295D01*
X753645Y-907686D01*
X758840Y-923272D01*
X769231Y-933663D01*
X784819Y-938857D01*
X800404Y-938857D01*
X815990Y-933663D01*
X821187Y-928469D01*
X826381Y-918077D01*
X688182Y-829754D02*
G01*
X703767Y-834948D01*
X714159Y-850536D01*
X719355Y-876513D01*
X719355Y-892098D01*
X714159Y-918077D01*
X703767Y-933663D01*
X688182Y-938857D01*
X677791Y-938857D01*
X662205Y-933663D01*
X651814Y-918077D01*
X646617Y-892098D01*
X646617Y-876513D01*
X651814Y-850536D01*
X662205Y-834948D01*
X677791Y-829754D01*
X688182Y-829754D01*
X612327Y-829754D02*
G01*
X570765Y-938857D01*
X529201Y-829754D02*
G01*
X570765Y-938857D01*
D11*
X6368600Y-93736D02*
G01*
X6368600Y-236918D01*
X6368600Y-93736D02*
G01*
X6279964Y-93736D01*
X6368600Y-161917D02*
G01*
X6314053Y-161917D01*
X6368600Y-236918D02*
G01*
X6279964Y-236918D01*
X6234963Y-93736D02*
G01*
X6234963Y-236918D01*
X6234963Y-236918D02*
G01*
X6153144Y-236918D01*
X6108146Y-93736D02*
G01*
X6108146Y-236918D01*
X6108146Y-93736D02*
G01*
X6019510Y-93736D01*
X6108146Y-161917D02*
G01*
X6053599Y-161917D01*
X6108146Y-236918D02*
G01*
X6019510Y-236918D01*
X5872236Y-127828D02*
G01*
X5879056Y-114190D01*
X5892690Y-100553D01*
X5906328Y-93736D01*
X5933600Y-93736D01*
X5947237Y-100553D01*
X5960872Y-114190D01*
X5967691Y-127828D01*
X5974509Y-148282D01*
X5974509Y-182371D01*
X5967691Y-202826D01*
X5960872Y-216463D01*
X5947237Y-230098D01*
X5933600Y-236918D01*
X5906328Y-236918D01*
X5892690Y-230098D01*
X5879056Y-216463D01*
X5872236Y-202826D01*
X5779508Y-93736D02*
G01*
X5779508Y-236918D01*
X5827237Y-93736D02*
G01*
X5731781Y-93736D01*
X5686783Y-93736D02*
G01*
X5686783Y-236918D01*
X5686783Y-93736D02*
G01*
X5625419Y-93736D01*
X5604964Y-100553D01*
X5598144Y-107373D01*
X5591327Y-121008D01*
X5591327Y-134645D01*
X5598144Y-148282D01*
X5604964Y-155100D01*
X5625419Y-161917D01*
X5686783Y-161917D01*
X5639054Y-161917D02*
G01*
X5591327Y-236918D01*
X5505419Y-93736D02*
G01*
X5519054Y-100553D01*
X5532691Y-114190D01*
X5539508Y-127828D01*
X5546328Y-148282D01*
X5546328Y-182371D01*
X5539508Y-202826D01*
X5532691Y-216463D01*
X5519054Y-230098D01*
X5505419Y-236918D01*
X5478145Y-236918D01*
X5464510Y-230098D01*
X5450873Y-216463D01*
X5444055Y-202826D01*
X5437235Y-182371D01*
X5437235Y-148282D01*
X5444055Y-127828D01*
X5450873Y-114190D01*
X5464510Y-100553D01*
X5478145Y-93736D01*
X5505419Y-93736D01*
X5392237Y-93736D02*
G01*
X5392237Y-236918D01*
X5392237Y-93736D02*
G01*
X5296781Y-236918D01*
X5296781Y-93736D02*
G01*
X5296781Y-236918D01*
X5210873Y-93736D02*
G01*
X5224510Y-100553D01*
X5238145Y-114190D01*
X5244962Y-127828D01*
X5251782Y-148282D01*
X5251782Y-182371D01*
X5244962Y-202826D01*
X5238145Y-216463D01*
X5224510Y-230098D01*
X5210873Y-236918D01*
X5183601Y-236918D01*
X5169964Y-230098D01*
X5156327Y-216463D01*
X5149509Y-202826D01*
X5142692Y-182371D01*
X5142692Y-148282D01*
X5149509Y-127828D01*
X5156327Y-114190D01*
X5169964Y-100553D01*
X5183601Y-93736D01*
X5210873Y-93736D01*
X5056781Y-93736D02*
G01*
X5070419Y-100553D01*
X5084053Y-114190D01*
X5090873Y-127828D01*
X5097691Y-148282D01*
X5097691Y-182371D01*
X5090873Y-202826D01*
X5084053Y-216463D01*
X5070419Y-230098D01*
X5056781Y-236918D01*
X5029509Y-236918D01*
X5015872Y-230098D01*
X5002237Y-216463D01*
X4995418Y-202826D01*
X4988600Y-182371D01*
X4988600Y-148282D01*
X4995418Y-127828D01*
X5002237Y-114190D01*
X5015872Y-100553D01*
X5029509Y-93736D01*
X5056781Y-93736D01*
X4943599Y-93736D02*
G01*
X4943599Y-236918D01*
X4943599Y-93736D02*
G01*
X4882235Y-93736D01*
X4861780Y-100553D01*
X4854963Y-107373D01*
X4848146Y-121008D01*
X4848146Y-134645D01*
X4854963Y-148282D01*
X4861780Y-155100D01*
X4882235Y-161917D01*
X4943599Y-161917D02*
G01*
X4882235Y-161917D01*
X4861780Y-168737D01*
X4854963Y-175554D01*
X4848146Y-189191D01*
X4848146Y-209646D01*
X4854963Y-223281D01*
X4861780Y-230098D01*
X4882235Y-236918D01*
X4943599Y-236918D01*
X4707691Y-114190D02*
G01*
X4721326Y-100553D01*
X4741781Y-93736D01*
X4769055Y-93736D01*
X4789510Y-100553D01*
X4803145Y-114190D01*
X4803145Y-127828D01*
X4796327Y-141462D01*
X4789510Y-148282D01*
X4775873Y-155100D01*
X4734963Y-168737D01*
X4721326Y-175554D01*
X4714509Y-182371D01*
X4707691Y-196009D01*
X4707691Y-216463D01*
X4721326Y-230098D01*
X4741781Y-236918D01*
X4769055Y-236918D01*
X4789510Y-230098D01*
X4803145Y-216463D01*
X4655873Y-202826D02*
G01*
X4662690Y-209646D01*
X4655873Y-216463D01*
X4649055Y-209646D01*
X4655873Y-202826D01*
X4501781Y-127828D02*
G01*
X4508601Y-114190D01*
X4522236Y-100553D01*
X4535873Y-93736D01*
X4563145Y-93736D01*
X4576782Y-100553D01*
X4590417Y-114190D01*
X4597237Y-127828D01*
X4604054Y-148282D01*
X4604054Y-182371D01*
X4597237Y-202826D01*
X4590417Y-216463D01*
X4576782Y-230098D01*
X4563145Y-236918D01*
X4535873Y-236918D01*
X4522236Y-230098D01*
X4508601Y-216463D01*
X4501781Y-202826D01*
X4415873Y-93736D02*
G01*
X4429508Y-100553D01*
X4443145Y-114190D01*
X4449963Y-127828D01*
X4456783Y-148282D01*
X4456783Y-182371D01*
X4449963Y-202826D01*
X4443145Y-216463D01*
X4429508Y-230098D01*
X4415873Y-236918D01*
X4388599Y-236918D01*
X4374964Y-230098D01*
X4361327Y-216463D01*
X4354509Y-202826D01*
X4347690Y-182371D01*
X4347690Y-148282D01*
X4354509Y-127828D01*
X4361327Y-114190D01*
X4374964Y-100553D01*
X4388599Y-93736D01*
X4415873Y-93736D01*
X4302691Y-93736D02*
G01*
X4302691Y-236918D01*
X4302691Y-93736D02*
G01*
X4248144Y-236918D01*
X4193600Y-93736D02*
G01*
X4248144Y-236918D01*
X4193600Y-93736D02*
G01*
X4193600Y-236918D01*
D12*
X8923380Y-2188928D02*
G01*
X8923380Y-2322565D01*
X8834290Y-2188928D02*
G01*
X8834290Y-2322565D01*
X8923380Y-2252565D02*
G01*
X8834290Y-2252565D01*
X8792288Y-2188928D02*
G01*
X8792288Y-2322565D01*
X8654834Y-2220747D02*
G01*
X8661199Y-2208019D01*
X8673927Y-2195291D01*
X8686652Y-2188928D01*
X8712108Y-2188928D01*
X8724833Y-2195291D01*
X8737561Y-2208019D01*
X8743927Y-2220747D01*
X8750289Y-2239838D01*
X8750289Y-2271656D01*
X8743927Y-2290747D01*
X8737561Y-2303472D01*
X8724833Y-2316200D01*
X8712108Y-2322565D01*
X8686652Y-2322565D01*
X8673927Y-2316200D01*
X8661199Y-2303472D01*
X8654834Y-2290747D01*
X8654834Y-2271656D01*
X8686652Y-2271656D02*
G01*
X8654834Y-2271656D01*
X8612835Y-2188928D02*
G01*
X8612835Y-2322565D01*
X8523744Y-2188928D02*
G01*
X8523744Y-2322565D01*
X8612835Y-2252565D02*
G01*
X8523744Y-2252565D01*
X8383744Y-2188928D02*
G01*
X8332835Y-2322565D01*
X8281926Y-2188928D02*
G01*
X8332835Y-2322565D01*
X8201743Y-2188928D02*
G01*
X8214471Y-2195291D01*
X8227199Y-2208019D01*
X8233562Y-2220747D01*
X8239925Y-2239838D01*
X8239925Y-2271656D01*
X8233562Y-2290747D01*
X8227199Y-2303472D01*
X8214471Y-2316200D01*
X8201743Y-2322565D01*
X8176290Y-2322565D01*
X8163562Y-2316200D01*
X8150834Y-2303472D01*
X8144471Y-2290747D01*
X8138109Y-2271656D01*
X8138109Y-2239838D01*
X8144471Y-2220747D01*
X8150834Y-2208019D01*
X8163562Y-2195291D01*
X8176290Y-2188928D01*
X8201743Y-2188928D01*
X8096107Y-2188928D02*
G01*
X8096107Y-2322565D01*
X8096107Y-2322565D02*
G01*
X8019745Y-2322565D01*
X7933199Y-2188928D02*
G01*
X7933199Y-2322565D01*
X7977743Y-2188928D02*
G01*
X7888653Y-2188928D01*
X7795745Y-2188928D02*
G01*
X7846654Y-2322565D01*
X7795745Y-2188928D02*
G01*
X7744835Y-2322565D01*
X7827563Y-2278019D02*
G01*
X7763926Y-2278019D01*
X7607381Y-2220747D02*
G01*
X7613743Y-2208019D01*
X7626471Y-2195291D01*
X7639199Y-2188928D01*
X7664653Y-2188928D01*
X7677381Y-2195291D01*
X7690109Y-2208019D01*
X7696471Y-2220747D01*
X7702834Y-2239838D01*
X7702834Y-2271656D01*
X7696471Y-2290747D01*
X7690109Y-2303472D01*
X7677381Y-2316200D01*
X7664653Y-2322565D01*
X7639199Y-2322565D01*
X7626471Y-2316200D01*
X7613743Y-2303472D01*
X7607381Y-2290747D01*
X7607381Y-2271656D01*
X7639199Y-2271656D02*
G01*
X7607381Y-2271656D01*
X7565379Y-2188928D02*
G01*
X7565379Y-2322565D01*
X7565379Y-2188928D02*
G01*
X7482654Y-2188928D01*
X7565379Y-2252565D02*
G01*
X7514470Y-2252565D01*
X7565379Y-2322565D02*
G01*
X7482654Y-2322565D01*
X4328601Y-2173828D02*
G01*
X4328601Y-2307465D01*
X4239511Y-2173828D02*
G01*
X4239511Y-2307465D01*
X4328601Y-2237465D02*
G01*
X4239511Y-2237465D01*
X4197510Y-2173828D02*
G01*
X4197510Y-2307465D01*
X4060055Y-2205647D02*
G01*
X4066420Y-2192919D01*
X4079148Y-2180191D01*
X4091873Y-2173828D01*
X4117329Y-2173828D01*
X4130055Y-2180191D01*
X4142783Y-2192919D01*
X4149148Y-2205647D01*
X4155511Y-2224737D01*
X4155511Y-2256556D01*
X4149148Y-2275646D01*
X4142783Y-2288372D01*
X4130055Y-2301100D01*
X4117329Y-2307465D01*
X4091873Y-2307465D01*
X4079148Y-2301100D01*
X4066420Y-2288372D01*
X4060055Y-2275646D01*
X4060055Y-2256556D01*
X4091873Y-2256556D02*
G01*
X4060055Y-2256556D01*
X4018056Y-2173828D02*
G01*
X4018056Y-2307465D01*
X3928965Y-2173828D02*
G01*
X3928965Y-2307465D01*
X4018056Y-2237465D02*
G01*
X3928965Y-2237465D01*
X3788966Y-2173828D02*
G01*
X3738057Y-2307465D01*
X3687147Y-2173828D02*
G01*
X3738057Y-2307465D01*
X3606965Y-2173828D02*
G01*
X3619693Y-2180191D01*
X3632420Y-2192919D01*
X3638783Y-2205647D01*
X3645146Y-2224737D01*
X3645146Y-2256556D01*
X3638783Y-2275646D01*
X3632420Y-2288372D01*
X3619693Y-2301100D01*
X3606965Y-2307465D01*
X3581511Y-2307465D01*
X3568783Y-2301100D01*
X3556055Y-2288372D01*
X3549693Y-2275646D01*
X3543330Y-2256556D01*
X3543330Y-2224737D01*
X3549693Y-2205647D01*
X3556055Y-2192919D01*
X3568783Y-2180191D01*
X3581511Y-2173828D01*
X3606965Y-2173828D01*
X3501329Y-2173828D02*
G01*
X3501329Y-2307465D01*
X3501329Y-2307465D02*
G01*
X3424966Y-2307465D01*
X3338421Y-2173828D02*
G01*
X3338421Y-2307465D01*
X3382965Y-2173828D02*
G01*
X3293874Y-2173828D01*
X3200966Y-2173828D02*
G01*
X3251875Y-2307465D01*
X3200966Y-2173828D02*
G01*
X3150057Y-2307465D01*
X3232784Y-2262919D02*
G01*
X3169147Y-2262919D01*
X3012602Y-2205647D02*
G01*
X3018965Y-2192919D01*
X3031693Y-2180191D01*
X3044421Y-2173828D01*
X3069874Y-2173828D01*
X3082602Y-2180191D01*
X3095330Y-2192919D01*
X3101693Y-2205647D01*
X3108055Y-2224737D01*
X3108055Y-2256556D01*
X3101693Y-2275646D01*
X3095330Y-2288372D01*
X3082602Y-2301100D01*
X3069874Y-2307465D01*
X3044421Y-2307465D01*
X3031693Y-2301100D01*
X3018965Y-2288372D01*
X3012602Y-2275646D01*
X3012602Y-2256556D01*
X3044421Y-2256556D02*
G01*
X3012602Y-2256556D01*
X2970601Y-2173828D02*
G01*
X2970601Y-2307465D01*
X2970601Y-2173828D02*
G01*
X2887875Y-2173828D01*
X2970601Y-2237465D02*
G01*
X2919691Y-2237465D01*
X2970601Y-2307465D02*
G01*
X2887875Y-2307465D01*
D11*
X14081112Y-61716D02*
G01*
X14081112Y-204899D01*
X14081112Y-61716D02*
G01*
X13992476Y-61716D01*
X14081112Y-129898D02*
G01*
X14026565Y-129898D01*
X14081112Y-204899D02*
G01*
X13992476Y-204899D01*
X13947475Y-61716D02*
G01*
X13947475Y-204899D01*
X13947475Y-204899D02*
G01*
X13865656Y-204899D01*
X13820658Y-61716D02*
G01*
X13820658Y-204899D01*
X13820658Y-61716D02*
G01*
X13732022Y-61716D01*
X13820658Y-129898D02*
G01*
X13766111Y-129898D01*
X13820658Y-204899D02*
G01*
X13732022Y-204899D01*
X13584748Y-95808D02*
G01*
X13591567Y-82171D01*
X13605202Y-68534D01*
X13618839Y-61716D01*
X13646111Y-61716D01*
X13659749Y-68534D01*
X13673383Y-82171D01*
X13680203Y-95808D01*
X13687021Y-116263D01*
X13687021Y-150352D01*
X13680203Y-170807D01*
X13673383Y-184444D01*
X13659749Y-198079D01*
X13646111Y-204899D01*
X13618839Y-204899D01*
X13605202Y-198079D01*
X13591567Y-184444D01*
X13584748Y-170807D01*
X13492020Y-61716D02*
G01*
X13492020Y-204899D01*
X13539749Y-61716D02*
G01*
X13444293Y-61716D01*
X13399295Y-61716D02*
G01*
X13399295Y-204899D01*
X13399295Y-61716D02*
G01*
X13337931Y-61716D01*
X13317476Y-68534D01*
X13310656Y-75354D01*
X13303839Y-88988D01*
X13303839Y-102626D01*
X13310656Y-116263D01*
X13317476Y-123080D01*
X13337931Y-129898D01*
X13399295Y-129898D01*
X13351565Y-129898D02*
G01*
X13303839Y-204899D01*
X13217931Y-61716D02*
G01*
X13231566Y-68534D01*
X13245203Y-82171D01*
X13252020Y-95808D01*
X13258840Y-116263D01*
X13258840Y-150352D01*
X13252020Y-170807D01*
X13245203Y-184444D01*
X13231566Y-198079D01*
X13217931Y-204899D01*
X13190656Y-204899D01*
X13177022Y-198079D01*
X13163384Y-184444D01*
X13156567Y-170807D01*
X13149747Y-150352D01*
X13149747Y-116263D01*
X13156567Y-95808D01*
X13163384Y-82171D01*
X13177022Y-68534D01*
X13190656Y-61716D01*
X13217931Y-61716D01*
X13104749Y-61716D02*
G01*
X13104749Y-204899D01*
X13104749Y-61716D02*
G01*
X13009293Y-204899D01*
X13009293Y-61716D02*
G01*
X13009293Y-204899D01*
X12923385Y-61716D02*
G01*
X12937022Y-68534D01*
X12950657Y-82171D01*
X12957474Y-95808D01*
X12964294Y-116263D01*
X12964294Y-150352D01*
X12957474Y-170807D01*
X12950657Y-184444D01*
X12937022Y-198079D01*
X12923385Y-204899D01*
X12896113Y-204899D01*
X12882476Y-198079D01*
X12868838Y-184444D01*
X12862021Y-170807D01*
X12855204Y-150352D01*
X12855204Y-116263D01*
X12862021Y-95808D01*
X12868838Y-82171D01*
X12882476Y-68534D01*
X12896113Y-61716D01*
X12923385Y-61716D01*
X12769293Y-61716D02*
G01*
X12782931Y-68534D01*
X12796565Y-82171D01*
X12803385Y-95808D01*
X12810202Y-116263D01*
X12810202Y-150352D01*
X12803385Y-170807D01*
X12796565Y-184444D01*
X12782931Y-198079D01*
X12769293Y-204899D01*
X12742021Y-204899D01*
X12728384Y-198079D01*
X12714749Y-184444D01*
X12707929Y-170807D01*
X12701112Y-150352D01*
X12701112Y-116263D01*
X12707929Y-95808D01*
X12714749Y-82171D01*
X12728384Y-68534D01*
X12742021Y-61716D01*
X12769293Y-61716D01*
X12656111Y-61716D02*
G01*
X12656111Y-204899D01*
X12656111Y-61716D02*
G01*
X12594747Y-61716D01*
X12574292Y-68534D01*
X12567475Y-75354D01*
X12560658Y-88988D01*
X12560658Y-102626D01*
X12567475Y-116263D01*
X12574292Y-123080D01*
X12594747Y-129898D01*
X12656111Y-129898D02*
G01*
X12594747Y-129898D01*
X12574292Y-136718D01*
X12567475Y-143535D01*
X12560658Y-157172D01*
X12560658Y-177627D01*
X12567475Y-191262D01*
X12574292Y-198079D01*
X12594747Y-204899D01*
X12656111Y-204899D01*
X12420203Y-82171D02*
G01*
X12433838Y-68534D01*
X12454293Y-61716D01*
X12481567Y-61716D01*
X12502022Y-68534D01*
X12515656Y-82171D01*
X12515656Y-95808D01*
X12508839Y-109443D01*
X12502022Y-116263D01*
X12488384Y-123080D01*
X12447475Y-136718D01*
X12433838Y-143535D01*
X12427021Y-150352D01*
X12420203Y-163990D01*
X12420203Y-184444D01*
X12433838Y-198079D01*
X12454293Y-204899D01*
X12481567Y-204899D01*
X12502022Y-198079D01*
X12515656Y-184444D01*
X12368385Y-170807D02*
G01*
X12375202Y-177627D01*
X12368385Y-184444D01*
X12361567Y-177627D01*
X12368385Y-170807D01*
X12214293Y-95808D02*
G01*
X12221113Y-82171D01*
X12234748Y-68534D01*
X12248385Y-61716D01*
X12275657Y-61716D01*
X12289294Y-68534D01*
X12302929Y-82171D01*
X12309749Y-95808D01*
X12316566Y-116263D01*
X12316566Y-150352D01*
X12309749Y-170807D01*
X12302929Y-184444D01*
X12289294Y-198079D01*
X12275657Y-204899D01*
X12248385Y-204899D01*
X12234748Y-198079D01*
X12221113Y-184444D01*
X12214293Y-170807D01*
X12128385Y-61716D02*
G01*
X12142020Y-68534D01*
X12155657Y-82171D01*
X12162475Y-95808D01*
X12169294Y-116263D01*
X12169294Y-150352D01*
X12162475Y-170807D01*
X12155657Y-184444D01*
X12142020Y-198079D01*
X12128385Y-204899D01*
X12101111Y-204899D01*
X12087476Y-198079D01*
X12073839Y-184444D01*
X12067021Y-170807D01*
X12060201Y-150352D01*
X12060201Y-116263D01*
X12067021Y-95808D01*
X12073839Y-82171D01*
X12087476Y-68534D01*
X12101111Y-61716D01*
X12128385Y-61716D01*
X12015203Y-61716D02*
G01*
X12015203Y-204899D01*
X12015203Y-61716D02*
G01*
X11960656Y-204899D01*
X11906112Y-61716D02*
G01*
X11960656Y-204899D01*
X11906112Y-61716D02*
G01*
X11906112Y-204899D01*
D12*
X13531113Y-2165802D02*
G01*
X13531113Y-2299439D01*
X13442022Y-2165802D02*
G01*
X13442022Y-2299439D01*
X13531113Y-2229439D02*
G01*
X13442022Y-2229439D01*
X13400021Y-2165802D02*
G01*
X13400021Y-2299439D01*
X13262566Y-2197620D02*
G01*
X13268932Y-2184892D01*
X13281659Y-2172164D01*
X13294385Y-2165802D01*
X13319841Y-2165802D01*
X13332566Y-2172164D01*
X13345294Y-2184892D01*
X13351659Y-2197620D01*
X13358022Y-2216711D01*
X13358022Y-2248529D01*
X13351659Y-2267620D01*
X13345294Y-2280345D01*
X13332566Y-2293073D01*
X13319841Y-2299439D01*
X13294385Y-2299439D01*
X13281659Y-2293073D01*
X13268932Y-2280345D01*
X13262566Y-2267620D01*
X13262566Y-2248529D01*
X13294385Y-2248529D02*
G01*
X13262566Y-2248529D01*
X13220567Y-2165802D02*
G01*
X13220567Y-2299439D01*
X13131477Y-2165802D02*
G01*
X13131477Y-2299439D01*
X13220567Y-2229439D02*
G01*
X13131477Y-2229439D01*
X12991477Y-2165802D02*
G01*
X12940568Y-2299439D01*
X12889659Y-2165802D02*
G01*
X12940568Y-2299439D01*
X12809476Y-2165802D02*
G01*
X12822204Y-2172164D01*
X12834932Y-2184892D01*
X12841295Y-2197620D01*
X12847657Y-2216711D01*
X12847657Y-2248529D01*
X12841295Y-2267620D01*
X12834932Y-2280345D01*
X12822204Y-2293073D01*
X12809476Y-2299439D01*
X12784023Y-2299439D01*
X12771295Y-2293073D01*
X12758567Y-2280345D01*
X12752204Y-2267620D01*
X12745841Y-2248529D01*
X12745841Y-2216711D01*
X12752204Y-2197620D01*
X12758567Y-2184892D01*
X12771295Y-2172164D01*
X12784023Y-2165802D01*
X12809476Y-2165802D01*
X12703840Y-2165802D02*
G01*
X12703840Y-2299439D01*
X12703840Y-2299439D02*
G01*
X12627477Y-2299439D01*
X12540932Y-2165802D02*
G01*
X12540932Y-2299439D01*
X12585476Y-2165802D02*
G01*
X12496385Y-2165802D01*
X12403477Y-2165802D02*
G01*
X12454387Y-2299439D01*
X12403477Y-2165802D02*
G01*
X12352568Y-2299439D01*
X12435296Y-2254892D02*
G01*
X12371659Y-2254892D01*
X12215113Y-2197620D02*
G01*
X12221476Y-2184892D01*
X12234204Y-2172164D01*
X12246932Y-2165802D01*
X12272385Y-2165802D01*
X12285113Y-2172164D01*
X12297841Y-2184892D01*
X12304204Y-2197620D01*
X12310567Y-2216711D01*
X12310567Y-2248529D01*
X12304204Y-2267620D01*
X12297841Y-2280345D01*
X12285113Y-2293073D01*
X12272385Y-2299439D01*
X12246932Y-2299439D01*
X12234204Y-2293073D01*
X12221476Y-2280345D01*
X12215113Y-2267620D01*
X12215113Y-2248529D01*
X12246932Y-2248529D02*
G01*
X12215113Y-2248529D01*
X12173112Y-2165802D02*
G01*
X12173112Y-2299439D01*
X12173112Y-2165802D02*
G01*
X12090387Y-2165802D01*
X12173112Y-2229439D02*
G01*
X12122203Y-2229439D01*
X12173112Y-2299439D02*
G01*
X12090387Y-2299439D01*
D11*
X18688598Y-61716D02*
G01*
X18688598Y-204899D01*
X18688598Y-61716D02*
G01*
X18599962Y-61716D01*
X18688598Y-129898D02*
G01*
X18634052Y-129898D01*
X18688598Y-204899D02*
G01*
X18599962Y-204899D01*
X18554961Y-61716D02*
G01*
X18554961Y-204899D01*
X18554961Y-204899D02*
G01*
X18473143Y-204899D01*
X18428144Y-61716D02*
G01*
X18428144Y-204899D01*
X18428144Y-61716D02*
G01*
X18339508Y-61716D01*
X18428144Y-129898D02*
G01*
X18373598Y-129898D01*
X18428144Y-204899D02*
G01*
X18339508Y-204899D01*
X18192234Y-95808D02*
G01*
X18199054Y-82171D01*
X18212688Y-68534D01*
X18226326Y-61716D01*
X18253598Y-61716D01*
X18267235Y-68534D01*
X18280870Y-82171D01*
X18287690Y-95808D01*
X18294507Y-116263D01*
X18294507Y-150352D01*
X18287690Y-170807D01*
X18280870Y-184444D01*
X18267235Y-198079D01*
X18253598Y-204899D01*
X18226326Y-204899D01*
X18212688Y-198079D01*
X18199054Y-184444D01*
X18192234Y-170807D01*
X18099506Y-61716D02*
G01*
X18099506Y-204899D01*
X18147235Y-61716D02*
G01*
X18051779Y-61716D01*
X18006781Y-61716D02*
G01*
X18006781Y-204899D01*
X18006781Y-61716D02*
G01*
X17945417Y-61716D01*
X17924962Y-68534D01*
X17918142Y-75354D01*
X17911325Y-88988D01*
X17911325Y-102626D01*
X17918142Y-116263D01*
X17924962Y-123080D01*
X17945417Y-129898D01*
X18006781Y-129898D01*
X17959052Y-129898D02*
G01*
X17911325Y-204899D01*
X17825417Y-61716D02*
G01*
X17839052Y-68534D01*
X17852689Y-82171D01*
X17859507Y-95808D01*
X17866326Y-116263D01*
X17866326Y-150352D01*
X17859507Y-170807D01*
X17852689Y-184444D01*
X17839052Y-198079D01*
X17825417Y-204899D01*
X17798143Y-204899D01*
X17784508Y-198079D01*
X17770871Y-184444D01*
X17764053Y-170807D01*
X17757233Y-150352D01*
X17757233Y-116263D01*
X17764053Y-95808D01*
X17770871Y-82171D01*
X17784508Y-68534D01*
X17798143Y-61716D01*
X17825417Y-61716D01*
X17712235Y-61716D02*
G01*
X17712235Y-204899D01*
X17712235Y-61716D02*
G01*
X17616779Y-204899D01*
X17616779Y-61716D02*
G01*
X17616779Y-204899D01*
X17530871Y-61716D02*
G01*
X17544508Y-68534D01*
X17558143Y-82171D01*
X17564961Y-95808D01*
X17571780Y-116263D01*
X17571780Y-150352D01*
X17564961Y-170807D01*
X17558143Y-184444D01*
X17544508Y-198079D01*
X17530871Y-204899D01*
X17503599Y-204899D01*
X17489962Y-198079D01*
X17476325Y-184444D01*
X17469507Y-170807D01*
X17462690Y-150352D01*
X17462690Y-116263D01*
X17469507Y-95808D01*
X17476325Y-82171D01*
X17489962Y-68534D01*
X17503599Y-61716D01*
X17530871Y-61716D01*
X17376780Y-61716D02*
G01*
X17390417Y-68534D01*
X17404052Y-82171D01*
X17410871Y-95808D01*
X17417689Y-116263D01*
X17417689Y-150352D01*
X17410871Y-170807D01*
X17404052Y-184444D01*
X17390417Y-198079D01*
X17376780Y-204899D01*
X17349508Y-204899D01*
X17335870Y-198079D01*
X17322236Y-184444D01*
X17315416Y-170807D01*
X17308598Y-150352D01*
X17308598Y-116263D01*
X17315416Y-95808D01*
X17322236Y-82171D01*
X17335870Y-68534D01*
X17349508Y-61716D01*
X17376780Y-61716D01*
X17263597Y-61716D02*
G01*
X17263597Y-204899D01*
X17263597Y-61716D02*
G01*
X17202233Y-61716D01*
X17181779Y-68534D01*
X17174961Y-75354D01*
X17168144Y-88988D01*
X17168144Y-102626D01*
X17174961Y-116263D01*
X17181779Y-123080D01*
X17202233Y-129898D01*
X17263597Y-129898D02*
G01*
X17202233Y-129898D01*
X17181779Y-136718D01*
X17174961Y-143535D01*
X17168144Y-157172D01*
X17168144Y-177627D01*
X17174961Y-191262D01*
X17181779Y-198079D01*
X17202233Y-204899D01*
X17263597Y-204899D01*
X17027690Y-82171D02*
G01*
X17041324Y-68534D01*
X17061779Y-61716D01*
X17089053Y-61716D01*
X17109508Y-68534D01*
X17123143Y-82171D01*
X17123143Y-95808D01*
X17116325Y-109443D01*
X17109508Y-116263D01*
X17095871Y-123080D01*
X17054962Y-136718D01*
X17041324Y-143535D01*
X17034507Y-150352D01*
X17027690Y-163990D01*
X17027690Y-184444D01*
X17041324Y-198079D01*
X17061779Y-204899D01*
X17089053Y-204899D01*
X17109508Y-198079D01*
X17123143Y-184444D01*
X16975871Y-170807D02*
G01*
X16982688Y-177627D01*
X16975871Y-184444D01*
X16969054Y-177627D01*
X16975871Y-170807D01*
X16821779Y-95808D02*
G01*
X16828599Y-82171D01*
X16842234Y-68534D01*
X16855871Y-61716D01*
X16883143Y-61716D01*
X16896781Y-68534D01*
X16910415Y-82171D01*
X16917235Y-95808D01*
X16924053Y-116263D01*
X16924053Y-150352D01*
X16917235Y-170807D01*
X16910415Y-184444D01*
X16896781Y-198079D01*
X16883143Y-204899D01*
X16855871Y-204899D01*
X16842234Y-198079D01*
X16828599Y-184444D01*
X16821779Y-170807D01*
X16735872Y-61716D02*
G01*
X16749506Y-68534D01*
X16763144Y-82171D01*
X16769961Y-95808D01*
X16776781Y-116263D01*
X16776781Y-150352D01*
X16769961Y-170807D01*
X16763144Y-184444D01*
X16749506Y-198079D01*
X16735872Y-204899D01*
X16708597Y-204899D01*
X16694962Y-198079D01*
X16681325Y-184444D01*
X16674508Y-170807D01*
X16667688Y-150352D01*
X16667688Y-116263D01*
X16674508Y-95808D01*
X16681325Y-82171D01*
X16694962Y-68534D01*
X16708597Y-61716D01*
X16735872Y-61716D01*
X16622689Y-61716D02*
G01*
X16622689Y-204899D01*
X16622689Y-61716D02*
G01*
X16568143Y-204899D01*
X16513599Y-61716D02*
G01*
X16568143Y-204899D01*
X16513599Y-61716D02*
G01*
X16513599Y-204899D01*
D12*
X18138599Y-2165802D02*
G01*
X18138599Y-2299439D01*
X18049509Y-2165802D02*
G01*
X18049509Y-2299439D01*
X18138599Y-2229439D02*
G01*
X18049509Y-2229439D01*
X18007507Y-2165802D02*
G01*
X18007507Y-2299439D01*
X17870053Y-2197620D02*
G01*
X17876418Y-2184892D01*
X17889146Y-2172164D01*
X17901871Y-2165802D01*
X17927327Y-2165802D01*
X17940053Y-2172164D01*
X17952780Y-2184892D01*
X17959146Y-2197620D01*
X17965508Y-2216711D01*
X17965508Y-2248529D01*
X17959146Y-2267620D01*
X17952780Y-2280345D01*
X17940053Y-2293073D01*
X17927327Y-2299439D01*
X17901871Y-2299439D01*
X17889146Y-2293073D01*
X17876418Y-2280345D01*
X17870053Y-2267620D01*
X17870053Y-2248529D01*
X17901871Y-2248529D02*
G01*
X17870053Y-2248529D01*
X17828054Y-2165802D02*
G01*
X17828054Y-2299439D01*
X17738963Y-2165802D02*
G01*
X17738963Y-2299439D01*
X17828054Y-2229439D02*
G01*
X17738963Y-2229439D01*
X17598964Y-2165802D02*
G01*
X17548054Y-2299439D01*
X17497145Y-2165802D02*
G01*
X17548054Y-2299439D01*
X17416962Y-2165802D02*
G01*
X17429690Y-2172164D01*
X17442418Y-2184892D01*
X17448781Y-2197620D01*
X17455144Y-2216711D01*
X17455144Y-2248529D01*
X17448781Y-2267620D01*
X17442418Y-2280345D01*
X17429690Y-2293073D01*
X17416962Y-2299439D01*
X17391509Y-2299439D01*
X17378781Y-2293073D01*
X17366053Y-2280345D01*
X17359690Y-2267620D01*
X17353328Y-2248529D01*
X17353328Y-2216711D01*
X17359690Y-2197620D01*
X17366053Y-2184892D01*
X17378781Y-2172164D01*
X17391509Y-2165802D01*
X17416962Y-2165802D01*
X17311326Y-2165802D02*
G01*
X17311326Y-2299439D01*
X17311326Y-2299439D02*
G01*
X17234964Y-2299439D01*
X17148418Y-2165802D02*
G01*
X17148418Y-2299439D01*
X17192962Y-2165802D02*
G01*
X17103872Y-2165802D01*
X17010964Y-2165802D02*
G01*
X17061873Y-2299439D01*
X17010964Y-2165802D02*
G01*
X16960054Y-2299439D01*
X17042782Y-2254892D02*
G01*
X16979145Y-2254892D01*
X16822600Y-2197620D02*
G01*
X16828963Y-2184892D01*
X16841690Y-2172164D01*
X16854418Y-2165802D01*
X16879872Y-2165802D01*
X16892600Y-2172164D01*
X16905328Y-2184892D01*
X16911690Y-2197620D01*
X16918053Y-2216711D01*
X16918053Y-2248529D01*
X16911690Y-2267620D01*
X16905328Y-2280345D01*
X16892600Y-2293073D01*
X16879872Y-2299439D01*
X16854418Y-2299439D01*
X16841690Y-2293073D01*
X16828963Y-2280345D01*
X16822600Y-2267620D01*
X16822600Y-2248529D01*
X16854418Y-2248529D02*
G01*
X16822600Y-2248529D01*
X16780598Y-2165802D02*
G01*
X16780598Y-2299439D01*
X16780598Y-2165802D02*
G01*
X16697873Y-2165802D01*
X16780598Y-2229439D02*
G01*
X16729689Y-2229439D01*
X16780598Y-2299439D02*
G01*
X16697873Y-2299439D01*
D11*
X23296770Y-61716D02*
G01*
X23296770Y-204899D01*
X23296770Y-61716D02*
G01*
X23208134Y-61716D01*
X23296770Y-129898D02*
G01*
X23242224Y-129898D01*
X23296770Y-204899D02*
G01*
X23208134Y-204899D01*
X23163133Y-61716D02*
G01*
X23163133Y-204899D01*
X23163133Y-204899D02*
G01*
X23081315Y-204899D01*
X23036316Y-61716D02*
G01*
X23036316Y-204899D01*
X23036316Y-61716D02*
G01*
X22947680Y-61716D01*
X23036316Y-129898D02*
G01*
X22981770Y-129898D01*
X23036316Y-204899D02*
G01*
X22947680Y-204899D01*
X22800406Y-95808D02*
G01*
X22807226Y-82171D01*
X22820861Y-68534D01*
X22834498Y-61716D01*
X22861770Y-61716D01*
X22875407Y-68534D01*
X22889042Y-82171D01*
X22895862Y-95808D01*
X22902679Y-116263D01*
X22902679Y-150352D01*
X22895862Y-170807D01*
X22889042Y-184444D01*
X22875407Y-198079D01*
X22861770Y-204899D01*
X22834498Y-204899D01*
X22820861Y-198079D01*
X22807226Y-184444D01*
X22800406Y-170807D01*
X22707678Y-61716D02*
G01*
X22707678Y-204899D01*
X22755407Y-61716D02*
G01*
X22659952Y-61716D01*
X22614953Y-61716D02*
G01*
X22614953Y-204899D01*
X22614953Y-61716D02*
G01*
X22553589Y-61716D01*
X22533135Y-68534D01*
X22526315Y-75354D01*
X22519497Y-88988D01*
X22519497Y-102626D01*
X22526315Y-116263D01*
X22533135Y-123080D01*
X22553589Y-129898D01*
X22614953Y-129898D01*
X22567224Y-129898D02*
G01*
X22519497Y-204899D01*
X22433589Y-61716D02*
G01*
X22447224Y-68534D01*
X22460861Y-82171D01*
X22467679Y-95808D01*
X22474499Y-116263D01*
X22474499Y-150352D01*
X22467679Y-170807D01*
X22460861Y-184444D01*
X22447224Y-198079D01*
X22433589Y-204899D01*
X22406315Y-204899D01*
X22392680Y-198079D01*
X22379043Y-184444D01*
X22372226Y-170807D01*
X22365406Y-150352D01*
X22365406Y-116263D01*
X22372226Y-95808D01*
X22379043Y-82171D01*
X22392680Y-68534D01*
X22406315Y-61716D01*
X22433589Y-61716D01*
X22320407Y-61716D02*
G01*
X22320407Y-204899D01*
X22320407Y-61716D02*
G01*
X22224951Y-204899D01*
X22224951Y-61716D02*
G01*
X22224951Y-204899D01*
X22139043Y-61716D02*
G01*
X22152681Y-68534D01*
X22166315Y-82171D01*
X22173133Y-95808D01*
X22179953Y-116263D01*
X22179953Y-150352D01*
X22173133Y-170807D01*
X22166315Y-184444D01*
X22152681Y-198079D01*
X22139043Y-204899D01*
X22111771Y-204899D01*
X22098134Y-198079D01*
X22084497Y-184444D01*
X22077679Y-170807D01*
X22070862Y-150352D01*
X22070862Y-116263D01*
X22077679Y-95808D01*
X22084497Y-82171D01*
X22098134Y-68534D01*
X22111771Y-61716D01*
X22139043Y-61716D01*
X21984952Y-61716D02*
G01*
X21998589Y-68534D01*
X22012224Y-82171D01*
X22019044Y-95808D01*
X22025861Y-116263D01*
X22025861Y-150352D01*
X22019044Y-170807D01*
X22012224Y-184444D01*
X21998589Y-198079D01*
X21984952Y-204899D01*
X21957680Y-204899D01*
X21944042Y-198079D01*
X21930408Y-184444D01*
X21923588Y-170807D01*
X21916770Y-150352D01*
X21916770Y-116263D01*
X21923588Y-95808D01*
X21930408Y-82171D01*
X21944042Y-68534D01*
X21957680Y-61716D01*
X21984952Y-61716D01*
X21871769Y-61716D02*
G01*
X21871769Y-204899D01*
X21871769Y-61716D02*
G01*
X21810405Y-61716D01*
X21789951Y-68534D01*
X21783133Y-75354D01*
X21776316Y-88988D01*
X21776316Y-102626D01*
X21783133Y-116263D01*
X21789951Y-123080D01*
X21810405Y-129898D01*
X21871769Y-129898D02*
G01*
X21810405Y-129898D01*
X21789951Y-136718D01*
X21783133Y-143535D01*
X21776316Y-157172D01*
X21776316Y-177627D01*
X21783133Y-191262D01*
X21789951Y-198079D01*
X21810405Y-204899D01*
X21871769Y-204899D01*
X21635862Y-82171D02*
G01*
X21649496Y-68534D01*
X21669951Y-61716D01*
X21697226Y-61716D01*
X21717680Y-68534D01*
X21731315Y-82171D01*
X21731315Y-95808D01*
X21724498Y-109443D01*
X21717680Y-116263D01*
X21704043Y-123080D01*
X21663134Y-136718D01*
X21649496Y-143535D01*
X21642679Y-150352D01*
X21635862Y-163990D01*
X21635862Y-184444D01*
X21649496Y-198079D01*
X21669951Y-204899D01*
X21697226Y-204899D01*
X21717680Y-198079D01*
X21731315Y-184444D01*
X21584043Y-170807D02*
G01*
X21590861Y-177627D01*
X21584043Y-184444D01*
X21577226Y-177627D01*
X21584043Y-170807D01*
X21429952Y-95808D02*
G01*
X21436771Y-82171D01*
X21450406Y-68534D01*
X21464043Y-61716D01*
X21491315Y-61716D01*
X21504953Y-68534D01*
X21518587Y-82171D01*
X21525407Y-95808D01*
X21532225Y-116263D01*
X21532225Y-150352D01*
X21525407Y-170807D01*
X21518587Y-184444D01*
X21504953Y-198079D01*
X21491315Y-204899D01*
X21464043Y-204899D01*
X21450406Y-198079D01*
X21436771Y-184444D01*
X21429952Y-170807D01*
X21344044Y-61716D02*
G01*
X21357678Y-68534D01*
X21371316Y-82171D01*
X21378133Y-95808D01*
X21384953Y-116263D01*
X21384953Y-150352D01*
X21378133Y-170807D01*
X21371316Y-184444D01*
X21357678Y-198079D01*
X21344044Y-204899D01*
X21316769Y-204899D01*
X21303134Y-198079D01*
X21289497Y-184444D01*
X21282680Y-170807D01*
X21275860Y-150352D01*
X21275860Y-116263D01*
X21282680Y-95808D01*
X21289497Y-82171D01*
X21303134Y-68534D01*
X21316769Y-61716D01*
X21344044Y-61716D01*
X21230861Y-61716D02*
G01*
X21230861Y-204899D01*
X21230861Y-61716D02*
G01*
X21176315Y-204899D01*
X21121771Y-61716D02*
G01*
X21176315Y-204899D01*
X21121771Y-61716D02*
G01*
X21121771Y-204899D01*
D12*
X22746771Y-2165802D02*
G01*
X22746771Y-2299439D01*
X22657681Y-2165802D02*
G01*
X22657681Y-2299439D01*
X22746771Y-2229439D02*
G01*
X22657681Y-2229439D01*
X22615679Y-2165802D02*
G01*
X22615679Y-2299439D01*
X22478225Y-2197620D02*
G01*
X22484590Y-2184892D01*
X22497318Y-2172164D01*
X22510043Y-2165802D01*
X22535499Y-2165802D01*
X22548225Y-2172164D01*
X22560953Y-2184892D01*
X22567318Y-2197620D01*
X22573681Y-2216711D01*
X22573681Y-2248529D01*
X22567318Y-2267620D01*
X22560953Y-2280345D01*
X22548225Y-2293073D01*
X22535499Y-2299439D01*
X22510043Y-2299439D01*
X22497318Y-2293073D01*
X22484590Y-2280345D01*
X22478225Y-2267620D01*
X22478225Y-2248529D01*
X22510043Y-2248529D02*
G01*
X22478225Y-2248529D01*
X22436226Y-2165802D02*
G01*
X22436226Y-2299439D01*
X22347135Y-2165802D02*
G01*
X22347135Y-2299439D01*
X22436226Y-2229439D02*
G01*
X22347135Y-2229439D01*
X22207136Y-2165802D02*
G01*
X22156226Y-2299439D01*
X22105317Y-2165802D02*
G01*
X22156226Y-2299439D01*
X22025135Y-2165802D02*
G01*
X22037862Y-2172164D01*
X22050590Y-2184892D01*
X22056953Y-2197620D01*
X22063316Y-2216711D01*
X22063316Y-2248529D01*
X22056953Y-2267620D01*
X22050590Y-2280345D01*
X22037862Y-2293073D01*
X22025135Y-2299439D01*
X21999681Y-2299439D01*
X21986953Y-2293073D01*
X21974225Y-2280345D01*
X21967863Y-2267620D01*
X21961500Y-2248529D01*
X21961500Y-2216711D01*
X21967863Y-2197620D01*
X21974225Y-2184892D01*
X21986953Y-2172164D01*
X21999681Y-2165802D01*
X22025135Y-2165802D01*
X21919498Y-2165802D02*
G01*
X21919498Y-2299439D01*
X21919498Y-2299439D02*
G01*
X21843136Y-2299439D01*
X21756590Y-2165802D02*
G01*
X21756590Y-2299439D01*
X21801134Y-2165802D02*
G01*
X21712044Y-2165802D01*
X21619136Y-2165802D02*
G01*
X21670045Y-2299439D01*
X21619136Y-2165802D02*
G01*
X21568227Y-2299439D01*
X21650954Y-2254892D02*
G01*
X21587317Y-2254892D01*
X21430772Y-2197620D02*
G01*
X21437135Y-2184892D01*
X21449863Y-2172164D01*
X21462591Y-2165802D01*
X21488044Y-2165802D01*
X21500772Y-2172164D01*
X21513500Y-2184892D01*
X21519862Y-2197620D01*
X21526225Y-2216711D01*
X21526225Y-2248529D01*
X21519862Y-2267620D01*
X21513500Y-2280345D01*
X21500772Y-2293073D01*
X21488044Y-2299439D01*
X21462591Y-2299439D01*
X21449863Y-2293073D01*
X21437135Y-2280345D01*
X21430772Y-2267620D01*
X21430772Y-2248529D01*
X21462591Y-2248529D02*
G01*
X21430772Y-2248529D01*
X21388771Y-2165802D02*
G01*
X21388771Y-2299439D01*
X21388771Y-2165802D02*
G01*
X21306045Y-2165802D01*
X21388771Y-2229439D02*
G01*
X21337861Y-2229439D01*
X21388771Y-2299439D02*
G01*
X21306045Y-2299439D01*
D11*
X27904785Y-61716D02*
G01*
X27904785Y-204899D01*
X27904785Y-61716D02*
G01*
X27816149Y-61716D01*
X27904785Y-129898D02*
G01*
X27850238Y-129898D01*
X27904785Y-204899D02*
G01*
X27816149Y-204899D01*
X27771148Y-61716D02*
G01*
X27771148Y-204899D01*
X27771148Y-204899D02*
G01*
X27689329Y-204899D01*
X27644331Y-61716D02*
G01*
X27644331Y-204899D01*
X27644331Y-61716D02*
G01*
X27555695Y-61716D01*
X27644331Y-129898D02*
G01*
X27589784Y-129898D01*
X27644331Y-204899D02*
G01*
X27555695Y-204899D01*
X27408421Y-95808D02*
G01*
X27415241Y-82171D01*
X27428875Y-68534D01*
X27442513Y-61716D01*
X27469785Y-61716D01*
X27483422Y-68534D01*
X27497057Y-82171D01*
X27503876Y-95808D01*
X27510694Y-116263D01*
X27510694Y-150352D01*
X27503876Y-170807D01*
X27497057Y-184444D01*
X27483422Y-198079D01*
X27469785Y-204899D01*
X27442513Y-204899D01*
X27428875Y-198079D01*
X27415241Y-184444D01*
X27408421Y-170807D01*
X27315693Y-61716D02*
G01*
X27315693Y-204899D01*
X27363422Y-61716D02*
G01*
X27267966Y-61716D01*
X27222968Y-61716D02*
G01*
X27222968Y-204899D01*
X27222968Y-61716D02*
G01*
X27161604Y-61716D01*
X27141149Y-68534D01*
X27134329Y-75354D01*
X27127512Y-88988D01*
X27127512Y-102626D01*
X27134329Y-116263D01*
X27141149Y-123080D01*
X27161604Y-129898D01*
X27222968Y-129898D01*
X27175239Y-129898D02*
G01*
X27127512Y-204899D01*
X27041604Y-61716D02*
G01*
X27055239Y-68534D01*
X27068876Y-82171D01*
X27075693Y-95808D01*
X27082513Y-116263D01*
X27082513Y-150352D01*
X27075693Y-170807D01*
X27068876Y-184444D01*
X27055239Y-198079D01*
X27041604Y-204899D01*
X27014330Y-204899D01*
X27000695Y-198079D01*
X26987058Y-184444D01*
X26980240Y-170807D01*
X26973420Y-150352D01*
X26973420Y-116263D01*
X26980240Y-95808D01*
X26987058Y-82171D01*
X27000695Y-68534D01*
X27014330Y-61716D01*
X27041604Y-61716D01*
X26928422Y-61716D02*
G01*
X26928422Y-204899D01*
X26928422Y-61716D02*
G01*
X26832966Y-204899D01*
X26832966Y-61716D02*
G01*
X26832966Y-204899D01*
X26747058Y-61716D02*
G01*
X26760695Y-68534D01*
X26774330Y-82171D01*
X26781147Y-95808D01*
X26787967Y-116263D01*
X26787967Y-150352D01*
X26781147Y-170807D01*
X26774330Y-184444D01*
X26760695Y-198079D01*
X26747058Y-204899D01*
X26719786Y-204899D01*
X26706149Y-198079D01*
X26692512Y-184444D01*
X26685694Y-170807D01*
X26678877Y-150352D01*
X26678877Y-116263D01*
X26685694Y-95808D01*
X26692512Y-82171D01*
X26706149Y-68534D01*
X26719786Y-61716D01*
X26747058Y-61716D01*
X26592966Y-61716D02*
G01*
X26606604Y-68534D01*
X26620238Y-82171D01*
X26627058Y-95808D01*
X26633876Y-116263D01*
X26633876Y-150352D01*
X26627058Y-170807D01*
X26620238Y-184444D01*
X26606604Y-198079D01*
X26592966Y-204899D01*
X26565694Y-204899D01*
X26552057Y-198079D01*
X26538422Y-184444D01*
X26531603Y-170807D01*
X26524785Y-150352D01*
X26524785Y-116263D01*
X26531603Y-95808D01*
X26538422Y-82171D01*
X26552057Y-68534D01*
X26565694Y-61716D01*
X26592966Y-61716D01*
X26479784Y-61716D02*
G01*
X26479784Y-204899D01*
X26479784Y-61716D02*
G01*
X26418420Y-61716D01*
X26397965Y-68534D01*
X26391148Y-75354D01*
X26384331Y-88988D01*
X26384331Y-102626D01*
X26391148Y-116263D01*
X26397965Y-123080D01*
X26418420Y-129898D01*
X26479784Y-129898D02*
G01*
X26418420Y-129898D01*
X26397965Y-136718D01*
X26391148Y-143535D01*
X26384331Y-157172D01*
X26384331Y-177627D01*
X26391148Y-191262D01*
X26397965Y-198079D01*
X26418420Y-204899D01*
X26479784Y-204899D01*
X26243876Y-82171D02*
G01*
X26257511Y-68534D01*
X26277966Y-61716D01*
X26305240Y-61716D01*
X26325695Y-68534D01*
X26339330Y-82171D01*
X26339330Y-95808D01*
X26332512Y-109443D01*
X26325695Y-116263D01*
X26312058Y-123080D01*
X26271148Y-136718D01*
X26257511Y-143535D01*
X26250694Y-150352D01*
X26243876Y-163990D01*
X26243876Y-184444D01*
X26257511Y-198079D01*
X26277966Y-204899D01*
X26305240Y-204899D01*
X26325695Y-198079D01*
X26339330Y-184444D01*
X26192058Y-170807D02*
G01*
X26198875Y-177627D01*
X26192058Y-184444D01*
X26185241Y-177627D01*
X26192058Y-170807D01*
X26037966Y-95808D02*
G01*
X26044786Y-82171D01*
X26058421Y-68534D01*
X26072058Y-61716D01*
X26099330Y-61716D01*
X26112967Y-68534D01*
X26126602Y-82171D01*
X26133422Y-95808D01*
X26140239Y-116263D01*
X26140239Y-150352D01*
X26133422Y-170807D01*
X26126602Y-184444D01*
X26112967Y-198079D01*
X26099330Y-204899D01*
X26072058Y-204899D01*
X26058421Y-198079D01*
X26044786Y-184444D01*
X26037966Y-170807D01*
X25952058Y-61716D02*
G01*
X25965693Y-68534D01*
X25979330Y-82171D01*
X25986148Y-95808D01*
X25992968Y-116263D01*
X25992968Y-150352D01*
X25986148Y-170807D01*
X25979330Y-184444D01*
X25965693Y-198079D01*
X25952058Y-204899D01*
X25924784Y-204899D01*
X25911149Y-198079D01*
X25897512Y-184444D01*
X25890694Y-170807D01*
X25883875Y-150352D01*
X25883875Y-116263D01*
X25890694Y-95808D01*
X25897512Y-82171D01*
X25911149Y-68534D01*
X25924784Y-61716D01*
X25952058Y-61716D01*
X25838876Y-61716D02*
G01*
X25838876Y-204899D01*
X25838876Y-61716D02*
G01*
X25784329Y-204899D01*
X25729785Y-61716D02*
G01*
X25784329Y-204899D01*
X25729785Y-61716D02*
G01*
X25729785Y-204899D01*
D12*
X27354786Y-2165802D02*
G01*
X27354786Y-2299439D01*
X27265696Y-2165802D02*
G01*
X27265696Y-2299439D01*
X27354786Y-2229439D02*
G01*
X27265696Y-2229439D01*
X27223694Y-2165802D02*
G01*
X27223694Y-2299439D01*
X27086239Y-2197620D02*
G01*
X27092605Y-2184892D01*
X27105333Y-2172164D01*
X27118058Y-2165802D01*
X27143514Y-2165802D01*
X27156239Y-2172164D01*
X27168967Y-2184892D01*
X27175333Y-2197620D01*
X27181695Y-2216711D01*
X27181695Y-2248529D01*
X27175333Y-2267620D01*
X27168967Y-2280345D01*
X27156239Y-2293073D01*
X27143514Y-2299439D01*
X27118058Y-2299439D01*
X27105333Y-2293073D01*
X27092605Y-2280345D01*
X27086239Y-2267620D01*
X27086239Y-2248529D01*
X27118058Y-2248529D02*
G01*
X27086239Y-2248529D01*
X27044241Y-2165802D02*
G01*
X27044241Y-2299439D01*
X26955150Y-2165802D02*
G01*
X26955150Y-2299439D01*
X27044241Y-2229439D02*
G01*
X26955150Y-2229439D01*
X26815150Y-2165802D02*
G01*
X26764241Y-2299439D01*
X26713332Y-2165802D02*
G01*
X26764241Y-2299439D01*
X26633149Y-2165802D02*
G01*
X26645877Y-2172164D01*
X26658605Y-2184892D01*
X26664968Y-2197620D01*
X26671330Y-2216711D01*
X26671330Y-2248529D01*
X26664968Y-2267620D01*
X26658605Y-2280345D01*
X26645877Y-2293073D01*
X26633149Y-2299439D01*
X26607696Y-2299439D01*
X26594968Y-2293073D01*
X26582240Y-2280345D01*
X26575877Y-2267620D01*
X26569515Y-2248529D01*
X26569515Y-2216711D01*
X26575877Y-2197620D01*
X26582240Y-2184892D01*
X26594968Y-2172164D01*
X26607696Y-2165802D01*
X26633149Y-2165802D01*
X26527513Y-2165802D02*
G01*
X26527513Y-2299439D01*
X26527513Y-2299439D02*
G01*
X26451151Y-2299439D01*
X26364605Y-2165802D02*
G01*
X26364605Y-2299439D01*
X26409149Y-2165802D02*
G01*
X26320059Y-2165802D01*
X26227150Y-2165802D02*
G01*
X26278060Y-2299439D01*
X26227150Y-2165802D02*
G01*
X26176241Y-2299439D01*
X26258969Y-2254892D02*
G01*
X26195332Y-2254892D01*
X26038787Y-2197620D02*
G01*
X26045149Y-2184892D01*
X26057877Y-2172164D01*
X26070605Y-2165802D01*
X26096059Y-2165802D01*
X26108786Y-2172164D01*
X26121514Y-2184892D01*
X26127877Y-2197620D01*
X26134240Y-2216711D01*
X26134240Y-2248529D01*
X26127877Y-2267620D01*
X26121514Y-2280345D01*
X26108786Y-2293073D01*
X26096059Y-2299439D01*
X26070605Y-2299439D01*
X26057877Y-2293073D01*
X26045149Y-2280345D01*
X26038787Y-2267620D01*
X26038787Y-2248529D01*
X26070605Y-2248529D02*
G01*
X26038787Y-2248529D01*
X25996785Y-2165802D02*
G01*
X25996785Y-2299439D01*
X25996785Y-2165802D02*
G01*
X25914060Y-2165802D01*
X25996785Y-2229439D02*
G01*
X25945876Y-2229439D01*
X25996785Y-2299439D02*
G01*
X25914060Y-2299439D01*
D11*
X32514420Y-61716D02*
G01*
X32514420Y-204899D01*
X32514420Y-61716D02*
G01*
X32425784Y-61716D01*
X32514420Y-129898D02*
G01*
X32459874Y-129898D01*
X32514420Y-204899D02*
G01*
X32425784Y-204899D01*
X32380783Y-61716D02*
G01*
X32380783Y-204899D01*
X32380783Y-204899D02*
G01*
X32298965Y-204899D01*
X32253966Y-61716D02*
G01*
X32253966Y-204899D01*
X32253966Y-61716D02*
G01*
X32165330Y-61716D01*
X32253966Y-129898D02*
G01*
X32199419Y-129898D01*
X32253966Y-204899D02*
G01*
X32165330Y-204899D01*
X32018056Y-95808D02*
G01*
X32024876Y-82171D01*
X32038510Y-68534D01*
X32052148Y-61716D01*
X32079420Y-61716D01*
X32093057Y-68534D01*
X32106692Y-82171D01*
X32113512Y-95808D01*
X32120329Y-116263D01*
X32120329Y-150352D01*
X32113512Y-170807D01*
X32106692Y-184444D01*
X32093057Y-198079D01*
X32079420Y-204899D01*
X32052148Y-204899D01*
X32038510Y-198079D01*
X32024876Y-184444D01*
X32018056Y-170807D01*
X31925328Y-61716D02*
G01*
X31925328Y-204899D01*
X31973057Y-61716D02*
G01*
X31877601Y-61716D01*
X31832603Y-61716D02*
G01*
X31832603Y-204899D01*
X31832603Y-61716D02*
G01*
X31771239Y-61716D01*
X31750784Y-68534D01*
X31743964Y-75354D01*
X31737147Y-88988D01*
X31737147Y-102626D01*
X31743964Y-116263D01*
X31750784Y-123080D01*
X31771239Y-129898D01*
X31832603Y-129898D01*
X31784874Y-129898D02*
G01*
X31737147Y-204899D01*
X31651239Y-61716D02*
G01*
X31664874Y-68534D01*
X31678511Y-82171D01*
X31685329Y-95808D01*
X31692148Y-116263D01*
X31692148Y-150352D01*
X31685329Y-170807D01*
X31678511Y-184444D01*
X31664874Y-198079D01*
X31651239Y-204899D01*
X31623965Y-204899D01*
X31610330Y-198079D01*
X31596693Y-184444D01*
X31589875Y-170807D01*
X31583055Y-150352D01*
X31583055Y-116263D01*
X31589875Y-95808D01*
X31596693Y-82171D01*
X31610330Y-68534D01*
X31623965Y-61716D01*
X31651239Y-61716D01*
X31538057Y-61716D02*
G01*
X31538057Y-204899D01*
X31538057Y-61716D02*
G01*
X31442601Y-204899D01*
X31442601Y-61716D02*
G01*
X31442601Y-204899D01*
X31356693Y-61716D02*
G01*
X31370330Y-68534D01*
X31383965Y-82171D01*
X31390783Y-95808D01*
X31397602Y-116263D01*
X31397602Y-150352D01*
X31390783Y-170807D01*
X31383965Y-184444D01*
X31370330Y-198079D01*
X31356693Y-204899D01*
X31329421Y-204899D01*
X31315784Y-198079D01*
X31302147Y-184444D01*
X31295329Y-170807D01*
X31288512Y-150352D01*
X31288512Y-116263D01*
X31295329Y-95808D01*
X31302147Y-82171D01*
X31315784Y-68534D01*
X31329421Y-61716D01*
X31356693Y-61716D01*
X31202602Y-61716D02*
G01*
X31216239Y-68534D01*
X31229874Y-82171D01*
X31236693Y-95808D01*
X31243511Y-116263D01*
X31243511Y-150352D01*
X31236693Y-170807D01*
X31229874Y-184444D01*
X31216239Y-198079D01*
X31202602Y-204899D01*
X31175330Y-204899D01*
X31161692Y-198079D01*
X31148058Y-184444D01*
X31141238Y-170807D01*
X31134420Y-150352D01*
X31134420Y-116263D01*
X31141238Y-95808D01*
X31148058Y-82171D01*
X31161692Y-68534D01*
X31175330Y-61716D01*
X31202602Y-61716D01*
X31089419Y-61716D02*
G01*
X31089419Y-204899D01*
X31089419Y-61716D02*
G01*
X31028055Y-61716D01*
X31007601Y-68534D01*
X31000783Y-75354D01*
X30993966Y-88988D01*
X30993966Y-102626D01*
X31000783Y-116263D01*
X31007601Y-123080D01*
X31028055Y-129898D01*
X31089419Y-129898D02*
G01*
X31028055Y-129898D01*
X31007601Y-136718D01*
X31000783Y-143535D01*
X30993966Y-157172D01*
X30993966Y-177627D01*
X31000783Y-191262D01*
X31007601Y-198079D01*
X31028055Y-204899D01*
X31089419Y-204899D01*
X30853512Y-82171D02*
G01*
X30867146Y-68534D01*
X30887601Y-61716D01*
X30914875Y-61716D01*
X30935330Y-68534D01*
X30948965Y-82171D01*
X30948965Y-95808D01*
X30942147Y-109443D01*
X30935330Y-116263D01*
X30921693Y-123080D01*
X30880784Y-136718D01*
X30867146Y-143535D01*
X30860329Y-150352D01*
X30853512Y-163990D01*
X30853512Y-184444D01*
X30867146Y-198079D01*
X30887601Y-204899D01*
X30914875Y-204899D01*
X30935330Y-198079D01*
X30948965Y-184444D01*
X30801693Y-170807D02*
G01*
X30808510Y-177627D01*
X30801693Y-184444D01*
X30794876Y-177627D01*
X30801693Y-170807D01*
X30647601Y-95808D02*
G01*
X30654421Y-82171D01*
X30668056Y-68534D01*
X30681693Y-61716D01*
X30708965Y-61716D01*
X30722603Y-68534D01*
X30736237Y-82171D01*
X30743057Y-95808D01*
X30749875Y-116263D01*
X30749875Y-150352D01*
X30743057Y-170807D01*
X30736237Y-184444D01*
X30722603Y-198079D01*
X30708965Y-204899D01*
X30681693Y-204899D01*
X30668056Y-198079D01*
X30654421Y-184444D01*
X30647601Y-170807D01*
X30561694Y-61716D02*
G01*
X30575328Y-68534D01*
X30588965Y-82171D01*
X30595783Y-95808D01*
X30602603Y-116263D01*
X30602603Y-150352D01*
X30595783Y-170807D01*
X30588965Y-184444D01*
X30575328Y-198079D01*
X30561694Y-204899D01*
X30534419Y-204899D01*
X30520784Y-198079D01*
X30507147Y-184444D01*
X30500330Y-170807D01*
X30493510Y-150352D01*
X30493510Y-116263D01*
X30500330Y-95808D01*
X30507147Y-82171D01*
X30520784Y-68534D01*
X30534419Y-61716D01*
X30561694Y-61716D01*
X30448511Y-61716D02*
G01*
X30448511Y-204899D01*
X30448511Y-61716D02*
G01*
X30393965Y-204899D01*
X30339421Y-61716D02*
G01*
X30393965Y-204899D01*
X30339421Y-61716D02*
G01*
X30339421Y-204899D01*
D12*
X31964421Y-2165802D02*
G01*
X31964421Y-2299439D01*
X31875331Y-2165802D02*
G01*
X31875331Y-2299439D01*
X31964421Y-2229439D02*
G01*
X31875331Y-2229439D01*
X31833329Y-2165802D02*
G01*
X31833329Y-2299439D01*
X31695875Y-2197620D02*
G01*
X31702240Y-2184892D01*
X31714968Y-2172164D01*
X31727693Y-2165802D01*
X31753149Y-2165802D01*
X31765875Y-2172164D01*
X31778602Y-2184892D01*
X31784968Y-2197620D01*
X31791330Y-2216711D01*
X31791330Y-2248529D01*
X31784968Y-2267620D01*
X31778602Y-2280345D01*
X31765875Y-2293073D01*
X31753149Y-2299439D01*
X31727693Y-2299439D01*
X31714968Y-2293073D01*
X31702240Y-2280345D01*
X31695875Y-2267620D01*
X31695875Y-2248529D01*
X31727693Y-2248529D02*
G01*
X31695875Y-2248529D01*
X31653876Y-2165802D02*
G01*
X31653876Y-2299439D01*
X31564785Y-2165802D02*
G01*
X31564785Y-2299439D01*
X31653876Y-2229439D02*
G01*
X31564785Y-2229439D01*
X31424786Y-2165802D02*
G01*
X31373876Y-2299439D01*
X31322967Y-2165802D02*
G01*
X31373876Y-2299439D01*
X31242784Y-2165802D02*
G01*
X31255512Y-2172164D01*
X31268240Y-2184892D01*
X31274603Y-2197620D01*
X31280966Y-2216711D01*
X31280966Y-2248529D01*
X31274603Y-2267620D01*
X31268240Y-2280345D01*
X31255512Y-2293073D01*
X31242784Y-2299439D01*
X31217331Y-2299439D01*
X31204603Y-2293073D01*
X31191875Y-2280345D01*
X31185512Y-2267620D01*
X31179150Y-2248529D01*
X31179150Y-2216711D01*
X31185512Y-2197620D01*
X31191875Y-2184892D01*
X31204603Y-2172164D01*
X31217331Y-2165802D01*
X31242784Y-2165802D01*
X31137148Y-2165802D02*
G01*
X31137148Y-2299439D01*
X31137148Y-2299439D02*
G01*
X31060786Y-2299439D01*
X30974240Y-2165802D02*
G01*
X30974240Y-2299439D01*
X31018784Y-2165802D02*
G01*
X30929694Y-2165802D01*
X30836786Y-2165802D02*
G01*
X30887695Y-2299439D01*
X30836786Y-2165802D02*
G01*
X30785876Y-2299439D01*
X30868604Y-2254892D02*
G01*
X30804967Y-2254892D01*
X30648422Y-2197620D02*
G01*
X30654785Y-2184892D01*
X30667512Y-2172164D01*
X30680240Y-2165802D01*
X30705694Y-2165802D01*
X30718422Y-2172164D01*
X30731150Y-2184892D01*
X30737512Y-2197620D01*
X30743875Y-2216711D01*
X30743875Y-2248529D01*
X30737512Y-2267620D01*
X30731150Y-2280345D01*
X30718422Y-2293073D01*
X30705694Y-2299439D01*
X30680240Y-2299439D01*
X30667512Y-2293073D01*
X30654785Y-2280345D01*
X30648422Y-2267620D01*
X30648422Y-2248529D01*
X30680240Y-2248529D02*
G01*
X30648422Y-2248529D01*
X30606420Y-2165802D02*
G01*
X30606420Y-2299439D01*
X30606420Y-2165802D02*
G01*
X30523695Y-2165802D01*
X30606420Y-2229439D02*
G01*
X30555511Y-2229439D01*
X30606420Y-2299439D02*
G01*
X30523695Y-2299439D01*
D11*
X37124081Y-61716D02*
G01*
X37124081Y-204899D01*
X37124081Y-61716D02*
G01*
X37035445Y-61716D01*
X37124081Y-129898D02*
G01*
X37069534Y-129898D01*
X37124081Y-204899D02*
G01*
X37035445Y-204899D01*
X36990444Y-61716D02*
G01*
X36990444Y-204899D01*
X36990444Y-204899D02*
G01*
X36908625Y-204899D01*
X36863627Y-61716D02*
G01*
X36863627Y-204899D01*
X36863627Y-61716D02*
G01*
X36774991Y-61716D01*
X36863627Y-129898D02*
G01*
X36809080Y-129898D01*
X36863627Y-204899D02*
G01*
X36774991Y-204899D01*
X36627716Y-95808D02*
G01*
X36634536Y-82171D01*
X36648171Y-68534D01*
X36661808Y-61716D01*
X36689080Y-61716D01*
X36702718Y-68534D01*
X36716352Y-82171D01*
X36723172Y-95808D01*
X36729990Y-116263D01*
X36729990Y-150352D01*
X36723172Y-170807D01*
X36716352Y-184444D01*
X36702718Y-198079D01*
X36689080Y-204899D01*
X36661808Y-204899D01*
X36648171Y-198079D01*
X36634536Y-184444D01*
X36627716Y-170807D01*
X36534989Y-61716D02*
G01*
X36534989Y-204899D01*
X36582718Y-61716D02*
G01*
X36487262Y-61716D01*
X36442263Y-61716D02*
G01*
X36442263Y-204899D01*
X36442263Y-61716D02*
G01*
X36380900Y-61716D01*
X36360445Y-68534D01*
X36353625Y-75354D01*
X36346808Y-88988D01*
X36346808Y-102626D01*
X36353625Y-116263D01*
X36360445Y-123080D01*
X36380900Y-129898D01*
X36442263Y-129898D01*
X36394534Y-129898D02*
G01*
X36346808Y-204899D01*
X36260900Y-61716D02*
G01*
X36274535Y-68534D01*
X36288172Y-82171D01*
X36294989Y-95808D01*
X36301809Y-116263D01*
X36301809Y-150352D01*
X36294989Y-170807D01*
X36288172Y-184444D01*
X36274535Y-198079D01*
X36260900Y-204899D01*
X36233625Y-204899D01*
X36219991Y-198079D01*
X36206353Y-184444D01*
X36199536Y-170807D01*
X36192716Y-150352D01*
X36192716Y-116263D01*
X36199536Y-95808D01*
X36206353Y-82171D01*
X36219991Y-68534D01*
X36233625Y-61716D01*
X36260900Y-61716D01*
X36147717Y-61716D02*
G01*
X36147717Y-204899D01*
X36147717Y-61716D02*
G01*
X36052262Y-204899D01*
X36052262Y-61716D02*
G01*
X36052262Y-204899D01*
X35966354Y-61716D02*
G01*
X35979991Y-68534D01*
X35993626Y-82171D01*
X36000443Y-95808D01*
X36007263Y-116263D01*
X36007263Y-150352D01*
X36000443Y-170807D01*
X35993626Y-184444D01*
X35979991Y-198079D01*
X35966354Y-204899D01*
X35939082Y-204899D01*
X35925445Y-198079D01*
X35911807Y-184444D01*
X35904990Y-170807D01*
X35898173Y-150352D01*
X35898173Y-116263D01*
X35904990Y-95808D01*
X35911807Y-82171D01*
X35925445Y-68534D01*
X35939082Y-61716D01*
X35966354Y-61716D01*
X35812262Y-61716D02*
G01*
X35825899Y-68534D01*
X35839534Y-82171D01*
X35846354Y-95808D01*
X35853171Y-116263D01*
X35853171Y-150352D01*
X35846354Y-170807D01*
X35839534Y-184444D01*
X35825899Y-198079D01*
X35812262Y-204899D01*
X35784990Y-204899D01*
X35771353Y-198079D01*
X35757718Y-184444D01*
X35750898Y-170807D01*
X35744081Y-150352D01*
X35744081Y-116263D01*
X35750898Y-95808D01*
X35757718Y-82171D01*
X35771353Y-68534D01*
X35784990Y-61716D01*
X35812262Y-61716D01*
X35699080Y-61716D02*
G01*
X35699080Y-204899D01*
X35699080Y-61716D02*
G01*
X35637716Y-61716D01*
X35617261Y-68534D01*
X35610444Y-75354D01*
X35603627Y-88988D01*
X35603627Y-102626D01*
X35610444Y-116263D01*
X35617261Y-123080D01*
X35637716Y-129898D01*
X35699080Y-129898D02*
G01*
X35637716Y-129898D01*
X35617261Y-136718D01*
X35610444Y-143535D01*
X35603627Y-157172D01*
X35603627Y-177627D01*
X35610444Y-191262D01*
X35617261Y-198079D01*
X35637716Y-204899D01*
X35699080Y-204899D01*
X35463172Y-82171D02*
G01*
X35476807Y-68534D01*
X35497261Y-61716D01*
X35524536Y-61716D01*
X35544991Y-68534D01*
X35558625Y-82171D01*
X35558625Y-95808D01*
X35551808Y-109443D01*
X35544991Y-116263D01*
X35531353Y-123080D01*
X35490444Y-136718D01*
X35476807Y-143535D01*
X35469990Y-150352D01*
X35463172Y-163990D01*
X35463172Y-184444D01*
X35476807Y-198079D01*
X35497261Y-204899D01*
X35524536Y-204899D01*
X35544991Y-198079D01*
X35558625Y-184444D01*
X35411354Y-170807D02*
G01*
X35418171Y-177627D01*
X35411354Y-184444D01*
X35404536Y-177627D01*
X35411354Y-170807D01*
X35257262Y-95808D02*
G01*
X35264082Y-82171D01*
X35277717Y-68534D01*
X35291354Y-61716D01*
X35318626Y-61716D01*
X35332263Y-68534D01*
X35345898Y-82171D01*
X35352718Y-95808D01*
X35359535Y-116263D01*
X35359535Y-150352D01*
X35352718Y-170807D01*
X35345898Y-184444D01*
X35332263Y-198079D01*
X35318626Y-204899D01*
X35291354Y-204899D01*
X35277717Y-198079D01*
X35264082Y-184444D01*
X35257262Y-170807D01*
X35171354Y-61716D02*
G01*
X35184989Y-68534D01*
X35198626Y-82171D01*
X35205443Y-95808D01*
X35212263Y-116263D01*
X35212263Y-150352D01*
X35205443Y-170807D01*
X35198626Y-184444D01*
X35184989Y-198079D01*
X35171354Y-204899D01*
X35144080Y-204899D01*
X35130445Y-198079D01*
X35116808Y-184444D01*
X35109990Y-170807D01*
X35103170Y-150352D01*
X35103170Y-116263D01*
X35109990Y-95808D01*
X35116808Y-82171D01*
X35130445Y-68534D01*
X35144080Y-61716D01*
X35171354Y-61716D01*
X35058172Y-61716D02*
G01*
X35058172Y-204899D01*
X35058172Y-61716D02*
G01*
X35003625Y-204899D01*
X34949081Y-61716D02*
G01*
X35003625Y-204899D01*
X34949081Y-61716D02*
G01*
X34949081Y-204899D01*
D12*
X36574082Y-2165802D02*
G01*
X36574082Y-2299439D01*
X36484991Y-2165802D02*
G01*
X36484991Y-2299439D01*
X36574082Y-2229439D02*
G01*
X36484991Y-2229439D01*
X36442990Y-2165802D02*
G01*
X36442990Y-2299439D01*
X36305535Y-2197620D02*
G01*
X36311900Y-2184892D01*
X36324628Y-2172164D01*
X36337354Y-2165802D01*
X36362810Y-2165802D01*
X36375535Y-2172164D01*
X36388263Y-2184892D01*
X36394628Y-2197620D01*
X36400991Y-2216711D01*
X36400991Y-2248529D01*
X36394628Y-2267620D01*
X36388263Y-2280345D01*
X36375535Y-2293073D01*
X36362810Y-2299439D01*
X36337354Y-2299439D01*
X36324628Y-2293073D01*
X36311900Y-2280345D01*
X36305535Y-2267620D01*
X36305535Y-2248529D01*
X36337354Y-2248529D02*
G01*
X36305535Y-2248529D01*
X36263536Y-2165802D02*
G01*
X36263536Y-2299439D01*
X36174446Y-2165802D02*
G01*
X36174446Y-2299439D01*
X36263536Y-2229439D02*
G01*
X36174446Y-2229439D01*
X36034446Y-2165802D02*
G01*
X35983537Y-2299439D01*
X35932628Y-2165802D02*
G01*
X35983537Y-2299439D01*
X35852445Y-2165802D02*
G01*
X35865173Y-2172164D01*
X35877901Y-2184892D01*
X35884264Y-2197620D01*
X35890626Y-2216711D01*
X35890626Y-2248529D01*
X35884264Y-2267620D01*
X35877901Y-2280345D01*
X35865173Y-2293073D01*
X35852445Y-2299439D01*
X35826992Y-2299439D01*
X35814264Y-2293073D01*
X35801536Y-2280345D01*
X35795173Y-2267620D01*
X35788810Y-2248529D01*
X35788810Y-2216711D01*
X35795173Y-2197620D01*
X35801536Y-2184892D01*
X35814264Y-2172164D01*
X35826992Y-2165802D01*
X35852445Y-2165802D01*
X35746809Y-2165802D02*
G01*
X35746809Y-2299439D01*
X35746809Y-2299439D02*
G01*
X35670446Y-2299439D01*
X35583901Y-2165802D02*
G01*
X35583901Y-2299439D01*
X35628445Y-2165802D02*
G01*
X35539354Y-2165802D01*
X35446446Y-2165802D02*
G01*
X35497355Y-2299439D01*
X35446446Y-2165802D02*
G01*
X35395537Y-2299439D01*
X35478265Y-2254892D02*
G01*
X35414628Y-2254892D01*
X35258082Y-2197620D02*
G01*
X35264445Y-2184892D01*
X35277173Y-2172164D01*
X35289901Y-2165802D01*
X35315354Y-2165802D01*
X35328082Y-2172164D01*
X35340810Y-2184892D01*
X35347173Y-2197620D01*
X35353536Y-2216711D01*
X35353536Y-2248529D01*
X35347173Y-2267620D01*
X35340810Y-2280345D01*
X35328082Y-2293073D01*
X35315354Y-2299439D01*
X35289901Y-2299439D01*
X35277173Y-2293073D01*
X35264445Y-2280345D01*
X35258082Y-2267620D01*
X35258082Y-2248529D01*
X35289901Y-2248529D02*
G01*
X35258082Y-2248529D01*
X35216081Y-2165802D02*
G01*
X35216081Y-2299439D01*
X35216081Y-2165802D02*
G01*
X35133356Y-2165802D01*
X35216081Y-2229439D02*
G01*
X35165172Y-2229439D01*
X35216081Y-2299439D02*
G01*
X35133356Y-2299439D01*
D11*
X41732789Y-61716D02*
G01*
X41732789Y-204899D01*
X41732789Y-61716D02*
G01*
X41644153Y-61716D01*
X41732789Y-129898D02*
G01*
X41678242Y-129898D01*
X41732789Y-204899D02*
G01*
X41644153Y-204899D01*
X41599152Y-61716D02*
G01*
X41599152Y-204899D01*
X41599152Y-204899D02*
G01*
X41517333Y-204899D01*
X41472335Y-61716D02*
G01*
X41472335Y-204899D01*
X41472335Y-61716D02*
G01*
X41383699Y-61716D01*
X41472335Y-129898D02*
G01*
X41417788Y-129898D01*
X41472335Y-204899D02*
G01*
X41383699Y-204899D01*
X41236425Y-95808D02*
G01*
X41243244Y-82171D01*
X41256879Y-68534D01*
X41270516Y-61716D01*
X41297788Y-61716D01*
X41311426Y-68534D01*
X41325060Y-82171D01*
X41331880Y-95808D01*
X41338698Y-116263D01*
X41338698Y-150352D01*
X41331880Y-170807D01*
X41325060Y-184444D01*
X41311426Y-198079D01*
X41297788Y-204899D01*
X41270516Y-204899D01*
X41256879Y-198079D01*
X41243244Y-184444D01*
X41236425Y-170807D01*
X41143697Y-61716D02*
G01*
X41143697Y-204899D01*
X41191426Y-61716D02*
G01*
X41095970Y-61716D01*
X41050972Y-61716D02*
G01*
X41050972Y-204899D01*
X41050972Y-61716D02*
G01*
X40989608Y-61716D01*
X40969153Y-68534D01*
X40962333Y-75354D01*
X40955516Y-88988D01*
X40955516Y-102626D01*
X40962333Y-116263D01*
X40969153Y-123080D01*
X40989608Y-129898D01*
X41050972Y-129898D01*
X41003242Y-129898D02*
G01*
X40955516Y-204899D01*
X40869608Y-61716D02*
G01*
X40883243Y-68534D01*
X40896880Y-82171D01*
X40903697Y-95808D01*
X40910517Y-116263D01*
X40910517Y-150352D01*
X40903697Y-170807D01*
X40896880Y-184444D01*
X40883243Y-198079D01*
X40869608Y-204899D01*
X40842333Y-204899D01*
X40828699Y-198079D01*
X40815061Y-184444D01*
X40808244Y-170807D01*
X40801424Y-150352D01*
X40801424Y-116263D01*
X40808244Y-95808D01*
X40815061Y-82171D01*
X40828699Y-68534D01*
X40842333Y-61716D01*
X40869608Y-61716D01*
X40756425Y-61716D02*
G01*
X40756425Y-204899D01*
X40756425Y-61716D02*
G01*
X40660970Y-204899D01*
X40660970Y-61716D02*
G01*
X40660970Y-204899D01*
X40575062Y-61716D02*
G01*
X40588699Y-68534D01*
X40602334Y-82171D01*
X40609151Y-95808D01*
X40615971Y-116263D01*
X40615971Y-150352D01*
X40609151Y-170807D01*
X40602334Y-184444D01*
X40588699Y-198079D01*
X40575062Y-204899D01*
X40547790Y-204899D01*
X40534153Y-198079D01*
X40520515Y-184444D01*
X40513698Y-170807D01*
X40506881Y-150352D01*
X40506881Y-116263D01*
X40513698Y-95808D01*
X40520515Y-82171D01*
X40534153Y-68534D01*
X40547790Y-61716D01*
X40575062Y-61716D01*
X40420970Y-61716D02*
G01*
X40434607Y-68534D01*
X40448242Y-82171D01*
X40455062Y-95808D01*
X40461879Y-116263D01*
X40461879Y-150352D01*
X40455062Y-170807D01*
X40448242Y-184444D01*
X40434607Y-198079D01*
X40420970Y-204899D01*
X40393698Y-204899D01*
X40380061Y-198079D01*
X40366426Y-184444D01*
X40359606Y-170807D01*
X40352789Y-150352D01*
X40352789Y-116263D01*
X40359606Y-95808D01*
X40366426Y-82171D01*
X40380061Y-68534D01*
X40393698Y-61716D01*
X40420970Y-61716D01*
X40307788Y-61716D02*
G01*
X40307788Y-204899D01*
X40307788Y-61716D02*
G01*
X40246424Y-61716D01*
X40225969Y-68534D01*
X40219152Y-75354D01*
X40212335Y-88988D01*
X40212335Y-102626D01*
X40219152Y-116263D01*
X40225969Y-123080D01*
X40246424Y-129898D01*
X40307788Y-129898D02*
G01*
X40246424Y-129898D01*
X40225969Y-136718D01*
X40219152Y-143535D01*
X40212335Y-157172D01*
X40212335Y-177627D01*
X40219152Y-191262D01*
X40225969Y-198079D01*
X40246424Y-204899D01*
X40307788Y-204899D01*
X40071880Y-82171D02*
G01*
X40085515Y-68534D01*
X40105970Y-61716D01*
X40133244Y-61716D01*
X40153699Y-68534D01*
X40167333Y-82171D01*
X40167333Y-95808D01*
X40160516Y-109443D01*
X40153699Y-116263D01*
X40140061Y-123080D01*
X40099152Y-136718D01*
X40085515Y-143535D01*
X40078698Y-150352D01*
X40071880Y-163990D01*
X40071880Y-184444D01*
X40085515Y-198079D01*
X40105970Y-204899D01*
X40133244Y-204899D01*
X40153699Y-198079D01*
X40167333Y-184444D01*
X40020062Y-170807D02*
G01*
X40026879Y-177627D01*
X40020062Y-184444D01*
X40013244Y-177627D01*
X40020062Y-170807D01*
X39865970Y-95808D02*
G01*
X39872790Y-82171D01*
X39886425Y-68534D01*
X39900062Y-61716D01*
X39927334Y-61716D01*
X39940971Y-68534D01*
X39954606Y-82171D01*
X39961426Y-95808D01*
X39968243Y-116263D01*
X39968243Y-150352D01*
X39961426Y-170807D01*
X39954606Y-184444D01*
X39940971Y-198079D01*
X39927334Y-204899D01*
X39900062Y-204899D01*
X39886425Y-198079D01*
X39872790Y-184444D01*
X39865970Y-170807D01*
X39780062Y-61716D02*
G01*
X39793697Y-68534D01*
X39807334Y-82171D01*
X39814152Y-95808D01*
X39820971Y-116263D01*
X39820971Y-150352D01*
X39814152Y-170807D01*
X39807334Y-184444D01*
X39793697Y-198079D01*
X39780062Y-204899D01*
X39752788Y-204899D01*
X39739153Y-198079D01*
X39725516Y-184444D01*
X39718698Y-170807D01*
X39711878Y-150352D01*
X39711878Y-116263D01*
X39718698Y-95808D01*
X39725516Y-82171D01*
X39739153Y-68534D01*
X39752788Y-61716D01*
X39780062Y-61716D01*
X39666880Y-61716D02*
G01*
X39666880Y-204899D01*
X39666880Y-61716D02*
G01*
X39612333Y-204899D01*
X39557789Y-61716D02*
G01*
X39612333Y-204899D01*
X39557789Y-61716D02*
G01*
X39557789Y-204899D01*
D12*
X41182790Y-2165802D02*
G01*
X41182790Y-2299439D01*
X41093699Y-2165802D02*
G01*
X41093699Y-2299439D01*
X41182790Y-2229439D02*
G01*
X41093699Y-2229439D01*
X41051698Y-2165802D02*
G01*
X41051698Y-2299439D01*
X40914243Y-2197620D02*
G01*
X40920609Y-2184892D01*
X40933336Y-2172164D01*
X40946062Y-2165802D01*
X40971518Y-2165802D01*
X40984243Y-2172164D01*
X40996971Y-2184892D01*
X41003336Y-2197620D01*
X41009699Y-2216711D01*
X41009699Y-2248529D01*
X41003336Y-2267620D01*
X40996971Y-2280345D01*
X40984243Y-2293073D01*
X40971518Y-2299439D01*
X40946062Y-2299439D01*
X40933336Y-2293073D01*
X40920609Y-2280345D01*
X40914243Y-2267620D01*
X40914243Y-2248529D01*
X40946062Y-2248529D02*
G01*
X40914243Y-2248529D01*
X40872244Y-2165802D02*
G01*
X40872244Y-2299439D01*
X40783154Y-2165802D02*
G01*
X40783154Y-2299439D01*
X40872244Y-2229439D02*
G01*
X40783154Y-2229439D01*
X40643154Y-2165802D02*
G01*
X40592245Y-2299439D01*
X40541336Y-2165802D02*
G01*
X40592245Y-2299439D01*
X40461153Y-2165802D02*
G01*
X40473881Y-2172164D01*
X40486609Y-2184892D01*
X40492972Y-2197620D01*
X40499334Y-2216711D01*
X40499334Y-2248529D01*
X40492972Y-2267620D01*
X40486609Y-2280345D01*
X40473881Y-2293073D01*
X40461153Y-2299439D01*
X40435700Y-2299439D01*
X40422972Y-2293073D01*
X40410244Y-2280345D01*
X40403881Y-2267620D01*
X40397518Y-2248529D01*
X40397518Y-2216711D01*
X40403881Y-2197620D01*
X40410244Y-2184892D01*
X40422972Y-2172164D01*
X40435700Y-2165802D01*
X40461153Y-2165802D01*
X40355517Y-2165802D02*
G01*
X40355517Y-2299439D01*
X40355517Y-2299439D02*
G01*
X40279154Y-2299439D01*
X40192609Y-2165802D02*
G01*
X40192609Y-2299439D01*
X40237153Y-2165802D02*
G01*
X40148062Y-2165802D01*
X40055154Y-2165802D02*
G01*
X40106064Y-2299439D01*
X40055154Y-2165802D02*
G01*
X40004245Y-2299439D01*
X40086973Y-2254892D02*
G01*
X40023336Y-2254892D01*
X39866790Y-2197620D02*
G01*
X39873153Y-2184892D01*
X39885881Y-2172164D01*
X39898609Y-2165802D01*
X39924062Y-2165802D01*
X39936790Y-2172164D01*
X39949518Y-2184892D01*
X39955881Y-2197620D01*
X39962244Y-2216711D01*
X39962244Y-2248529D01*
X39955881Y-2267620D01*
X39949518Y-2280345D01*
X39936790Y-2293073D01*
X39924062Y-2299439D01*
X39898609Y-2299439D01*
X39885881Y-2293073D01*
X39873153Y-2280345D01*
X39866790Y-2267620D01*
X39866790Y-2248529D01*
X39898609Y-2248529D02*
G01*
X39866790Y-2248529D01*
X39824789Y-2165802D02*
G01*
X39824789Y-2299439D01*
X39824789Y-2165802D02*
G01*
X39742064Y-2165802D01*
X39824789Y-2229439D02*
G01*
X39773880Y-2229439D01*
X39824789Y-2299439D02*
G01*
X39742064Y-2299439D01*
D11*
X46341017Y-62100D02*
G01*
X46341017Y-205282D01*
X46341017Y-62100D02*
G01*
X46252381Y-62100D01*
X46341017Y-130281D02*
G01*
X46286470Y-130281D01*
X46341017Y-205282D02*
G01*
X46252381Y-205282D01*
X46207380Y-62100D02*
G01*
X46207380Y-205282D01*
X46207380Y-205282D02*
G01*
X46125561Y-205282D01*
X46080563Y-62100D02*
G01*
X46080563Y-205282D01*
X46080563Y-62100D02*
G01*
X45991927Y-62100D01*
X46080563Y-130281D02*
G01*
X46026016Y-130281D01*
X46080563Y-205282D02*
G01*
X45991927Y-205282D01*
X45844653Y-96192D02*
G01*
X45851472Y-82555D01*
X45865107Y-68917D01*
X45878744Y-62100D01*
X45906016Y-62100D01*
X45919654Y-68917D01*
X45933288Y-82555D01*
X45940108Y-96192D01*
X45946926Y-116646D01*
X45946926Y-150736D01*
X45940108Y-171190D01*
X45933288Y-184828D01*
X45919654Y-198462D01*
X45906016Y-205282D01*
X45878744Y-205282D01*
X45865107Y-198462D01*
X45851472Y-184828D01*
X45844653Y-171190D01*
X45751925Y-62100D02*
G01*
X45751925Y-205282D01*
X45799654Y-62100D02*
G01*
X45704198Y-62100D01*
X45659200Y-62100D02*
G01*
X45659200Y-205282D01*
X45659200Y-62100D02*
G01*
X45597836Y-62100D01*
X45577381Y-68917D01*
X45570561Y-75737D01*
X45563744Y-89372D01*
X45563744Y-103009D01*
X45570561Y-116646D01*
X45577381Y-123464D01*
X45597836Y-130281D01*
X45659200Y-130281D01*
X45611470Y-130281D02*
G01*
X45563744Y-205282D01*
X45477836Y-62100D02*
G01*
X45491471Y-68917D01*
X45505108Y-82555D01*
X45511925Y-96192D01*
X45518745Y-116646D01*
X45518745Y-150736D01*
X45511925Y-171190D01*
X45505108Y-184828D01*
X45491471Y-198462D01*
X45477836Y-205282D01*
X45450561Y-205282D01*
X45436927Y-198462D01*
X45423289Y-184828D01*
X45416472Y-171190D01*
X45409652Y-150736D01*
X45409652Y-116646D01*
X45416472Y-96192D01*
X45423289Y-82555D01*
X45436927Y-68917D01*
X45450561Y-62100D01*
X45477836Y-62100D01*
X45364654Y-62100D02*
G01*
X45364654Y-205282D01*
X45364654Y-62100D02*
G01*
X45269198Y-205282D01*
X45269198Y-62100D02*
G01*
X45269198Y-205282D01*
X45183290Y-62100D02*
G01*
X45196927Y-68917D01*
X45210562Y-82555D01*
X45217379Y-96192D01*
X45224199Y-116646D01*
X45224199Y-150736D01*
X45217379Y-171190D01*
X45210562Y-184828D01*
X45196927Y-198462D01*
X45183290Y-205282D01*
X45156018Y-205282D01*
X45142381Y-198462D01*
X45128743Y-184828D01*
X45121926Y-171190D01*
X45115109Y-150736D01*
X45115109Y-116646D01*
X45121926Y-96192D01*
X45128743Y-82555D01*
X45142381Y-68917D01*
X45156018Y-62100D01*
X45183290Y-62100D01*
X45029198Y-62100D02*
G01*
X45042836Y-68917D01*
X45056470Y-82555D01*
X45063290Y-96192D01*
X45070107Y-116646D01*
X45070107Y-150736D01*
X45063290Y-171190D01*
X45056470Y-184828D01*
X45042836Y-198462D01*
X45029198Y-205282D01*
X45001926Y-205282D01*
X44988289Y-198462D01*
X44974654Y-184828D01*
X44967834Y-171190D01*
X44961017Y-150736D01*
X44961017Y-116646D01*
X44967834Y-96192D01*
X44974654Y-82555D01*
X44988289Y-68917D01*
X45001926Y-62100D01*
X45029198Y-62100D01*
X44916016Y-62100D02*
G01*
X44916016Y-205282D01*
X44916016Y-62100D02*
G01*
X44854652Y-62100D01*
X44834197Y-68917D01*
X44827380Y-75737D01*
X44820563Y-89372D01*
X44820563Y-103009D01*
X44827380Y-116646D01*
X44834197Y-123464D01*
X44854652Y-130281D01*
X44916016Y-130281D02*
G01*
X44854652Y-130281D01*
X44834197Y-137101D01*
X44827380Y-143918D01*
X44820563Y-157556D01*
X44820563Y-178010D01*
X44827380Y-191645D01*
X44834197Y-198462D01*
X44854652Y-205282D01*
X44916016Y-205282D01*
X44680108Y-82555D02*
G01*
X44693743Y-68917D01*
X44714198Y-62100D01*
X44741472Y-62100D01*
X44761927Y-68917D01*
X44775561Y-82555D01*
X44775561Y-96192D01*
X44768744Y-109827D01*
X44761927Y-116646D01*
X44748289Y-123464D01*
X44707380Y-137101D01*
X44693743Y-143918D01*
X44686926Y-150736D01*
X44680108Y-164373D01*
X44680108Y-184828D01*
X44693743Y-198462D01*
X44714198Y-205282D01*
X44741472Y-205282D01*
X44761927Y-198462D01*
X44775561Y-184828D01*
X44628290Y-171190D02*
G01*
X44635107Y-178010D01*
X44628290Y-184828D01*
X44621472Y-178010D01*
X44628290Y-171190D01*
X44474198Y-96192D02*
G01*
X44481018Y-82555D01*
X44494653Y-68917D01*
X44508290Y-62100D01*
X44535562Y-62100D01*
X44549199Y-68917D01*
X44562834Y-82555D01*
X44569654Y-96192D01*
X44576471Y-116646D01*
X44576471Y-150736D01*
X44569654Y-171190D01*
X44562834Y-184828D01*
X44549199Y-198462D01*
X44535562Y-205282D01*
X44508290Y-205282D01*
X44494653Y-198462D01*
X44481018Y-184828D01*
X44474198Y-171190D01*
X44388290Y-62100D02*
G01*
X44401925Y-68917D01*
X44415562Y-82555D01*
X44422380Y-96192D01*
X44429199Y-116646D01*
X44429199Y-150736D01*
X44422380Y-171190D01*
X44415562Y-184828D01*
X44401925Y-198462D01*
X44388290Y-205282D01*
X44361016Y-205282D01*
X44347381Y-198462D01*
X44333744Y-184828D01*
X44326926Y-171190D01*
X44320106Y-150736D01*
X44320106Y-116646D01*
X44326926Y-96192D01*
X44333744Y-82555D01*
X44347381Y-68917D01*
X44361016Y-62100D01*
X44388290Y-62100D01*
X44275108Y-62100D02*
G01*
X44275108Y-205282D01*
X44275108Y-62100D02*
G01*
X44220561Y-205282D01*
X44166017Y-62100D02*
G01*
X44220561Y-205282D01*
X44166017Y-62100D02*
G01*
X44166017Y-205282D01*
D12*
X45791018Y-2166185D02*
G01*
X45791018Y-2299822D01*
X45701927Y-2166185D02*
G01*
X45701927Y-2299822D01*
X45791018Y-2229822D02*
G01*
X45701927Y-2229822D01*
X45659926Y-2166185D02*
G01*
X45659926Y-2299822D01*
X45522471Y-2198004D02*
G01*
X45528837Y-2185276D01*
X45541565Y-2172548D01*
X45554290Y-2166185D01*
X45579746Y-2166185D01*
X45592471Y-2172548D01*
X45605199Y-2185276D01*
X45611564Y-2198004D01*
X45617927Y-2217094D01*
X45617927Y-2248913D01*
X45611564Y-2268004D01*
X45605199Y-2280729D01*
X45592471Y-2293457D01*
X45579746Y-2299822D01*
X45554290Y-2299822D01*
X45541565Y-2293457D01*
X45528837Y-2280729D01*
X45522471Y-2268004D01*
X45522471Y-2248913D01*
X45554290Y-2248913D02*
G01*
X45522471Y-2248913D01*
X45480472Y-2166185D02*
G01*
X45480472Y-2299822D01*
X45391382Y-2166185D02*
G01*
X45391382Y-2299822D01*
X45480472Y-2229822D02*
G01*
X45391382Y-2229822D01*
X45251382Y-2166185D02*
G01*
X45200473Y-2299822D01*
X45149564Y-2166185D02*
G01*
X45200473Y-2299822D01*
X45069381Y-2166185D02*
G01*
X45082109Y-2172548D01*
X45094837Y-2185276D01*
X45101200Y-2198004D01*
X45107562Y-2217094D01*
X45107562Y-2248913D01*
X45101200Y-2268004D01*
X45094837Y-2280729D01*
X45082109Y-2293457D01*
X45069381Y-2299822D01*
X45043928Y-2299822D01*
X45031200Y-2293457D01*
X45018472Y-2280729D01*
X45012109Y-2268004D01*
X45005746Y-2248913D01*
X45005746Y-2217094D01*
X45012109Y-2198004D01*
X45018472Y-2185276D01*
X45031200Y-2172548D01*
X45043928Y-2166185D01*
X45069381Y-2166185D01*
X44963745Y-2166185D02*
G01*
X44963745Y-2299822D01*
X44963745Y-2299822D02*
G01*
X44887382Y-2299822D01*
X44800837Y-2166185D02*
G01*
X44800837Y-2299822D01*
X44845381Y-2166185D02*
G01*
X44756290Y-2166185D01*
X44663382Y-2166185D02*
G01*
X44714292Y-2299822D01*
X44663382Y-2166185D02*
G01*
X44612473Y-2299822D01*
X44695201Y-2255276D02*
G01*
X44631564Y-2255276D01*
X44475018Y-2198004D02*
G01*
X44481381Y-2185276D01*
X44494109Y-2172548D01*
X44506837Y-2166185D01*
X44532290Y-2166185D01*
X44545018Y-2172548D01*
X44557746Y-2185276D01*
X44564109Y-2198004D01*
X44570472Y-2217094D01*
X44570472Y-2248913D01*
X44564109Y-2268004D01*
X44557746Y-2280729D01*
X44545018Y-2293457D01*
X44532290Y-2299822D01*
X44506837Y-2299822D01*
X44494109Y-2293457D01*
X44481381Y-2280729D01*
X44475018Y-2268004D01*
X44475018Y-2248913D01*
X44506837Y-2248913D02*
G01*
X44475018Y-2248913D01*
X44433017Y-2166185D02*
G01*
X44433017Y-2299822D01*
X44433017Y-2166185D02*
G01*
X44350292Y-2166185D01*
X44433017Y-2229822D02*
G01*
X44382108Y-2229822D01*
X44433017Y-2299822D02*
G01*
X44350292Y-2299822D01*
D10*
X5608612Y-2979785D02*
G01*
X5608612Y-3088751D01*
X5608612Y-2979785D02*
G01*
X5572290Y-2979785D01*
X5556542Y-2984865D01*
X5546382Y-2995279D01*
X5541048Y-3005693D01*
X5535968Y-3021441D01*
X5535968Y-3047349D01*
X5541048Y-3062843D01*
X5546382Y-3073257D01*
X5556542Y-3083671D01*
X5572290Y-3088751D01*
X5608612Y-3088751D01*
X5449608Y-2979785D02*
G01*
X5501678Y-3052429D01*
X5423700Y-3052429D01*
X5449608Y-2979785D02*
G01*
X5449608Y-3088751D01*
X958601Y-2979795D02*
G01*
X958601Y-3088761D01*
X958601Y-2979795D02*
G01*
X922279Y-2979795D01*
X906531Y-2984875D01*
X896371Y-2995289D01*
X891037Y-3005703D01*
X885957Y-3021451D01*
X885957Y-3047359D01*
X891037Y-3062853D01*
X896371Y-3073267D01*
X906531Y-3083681D01*
X922279Y-3088761D01*
X958601Y-3088761D01*
X851667Y-3000623D02*
G01*
X841253Y-2995289D01*
X825505Y-2979795D01*
X825505Y-3088761D01*
X42408020Y-2658115D02*
G01*
X42408020Y-2767218D01*
X42408020Y-2658115D02*
G01*
X42371652Y-2658115D01*
X42356064Y-2663309D01*
X42345676Y-2673700D01*
X42340479Y-2684091D01*
X42335284Y-2699679D01*
X42335284Y-2725656D01*
X42340479Y-2741241D01*
X42345676Y-2751632D01*
X42356064Y-2762023D01*
X42371652Y-2767218D01*
X42408020Y-2767218D01*
X42295798Y-2684091D02*
G01*
X42295798Y-2678897D01*
X42290603Y-2668506D01*
X42285406Y-2663309D01*
X42275015Y-2658115D01*
X42254236Y-2658115D01*
X42243844Y-2663309D01*
X42238648Y-2668506D01*
X42233453Y-2678897D01*
X42233453Y-2689288D01*
X42238648Y-2699679D01*
X42249039Y-2715265D01*
X42300994Y-2767218D01*
X42228256Y-2767218D01*
X42162796Y-2658115D02*
G01*
X42178381Y-2663309D01*
X42188772Y-2678897D01*
X42193966Y-2704873D01*
X42193966Y-2720459D01*
X42188772Y-2746438D01*
X42178381Y-2762023D01*
X42162796Y-2767218D01*
X42152404Y-2767218D01*
X42136816Y-2762023D01*
X42126425Y-2746438D01*
X42121231Y-2720459D01*
X42121231Y-2704873D01*
X42126425Y-2678897D01*
X42136816Y-2663309D01*
X42152404Y-2658115D01*
X42162796Y-2658115D01*
X37799792Y-2657731D02*
G01*
X37799792Y-2766834D01*
X37799792Y-2657731D02*
G01*
X37763424Y-2657731D01*
X37747836Y-2662925D01*
X37737448Y-2673316D01*
X37732251Y-2683708D01*
X37727056Y-2699296D01*
X37727056Y-2725272D01*
X37732251Y-2740858D01*
X37737448Y-2751249D01*
X37747836Y-2761640D01*
X37763424Y-2766834D01*
X37799792Y-2766834D01*
X37692766Y-2678513D02*
G01*
X37682375Y-2673316D01*
X37666787Y-2657731D01*
X37666787Y-2766834D01*
X37606521Y-2657731D02*
G01*
X37622106Y-2662925D01*
X37627303Y-2673316D01*
X37627303Y-2683708D01*
X37622106Y-2694099D01*
X37611718Y-2699296D01*
X37590935Y-2704490D01*
X37575347Y-2709684D01*
X37564956Y-2720075D01*
X37559762Y-2730466D01*
X37559762Y-2746054D01*
X37564956Y-2756446D01*
X37570153Y-2761640D01*
X37585738Y-2766834D01*
X37606521Y-2766834D01*
X37622106Y-2761640D01*
X37627303Y-2756446D01*
X37632497Y-2746054D01*
X37632497Y-2730466D01*
X37627303Y-2720075D01*
X37616912Y-2709684D01*
X37601326Y-2704490D01*
X37580544Y-2699296D01*
X37570153Y-2694099D01*
X37564956Y-2683708D01*
X37564956Y-2673316D01*
X37570153Y-2662925D01*
X37585738Y-2657731D01*
X37606521Y-2657731D01*
X33191084Y-2657731D02*
G01*
X33191084Y-2766834D01*
X33191084Y-2657731D02*
G01*
X33154713Y-2657731D01*
X33139128Y-2662925D01*
X33128737Y-2673316D01*
X33123543Y-2683708D01*
X33118346Y-2699296D01*
X33118346Y-2725272D01*
X33123543Y-2740858D01*
X33128737Y-2751249D01*
X33139128Y-2761640D01*
X33154713Y-2766834D01*
X33191084Y-2766834D01*
X33084056Y-2678513D02*
G01*
X33073665Y-2673316D01*
X33058079Y-2657731D01*
X33058079Y-2766834D01*
X32961445Y-2673316D02*
G01*
X32966639Y-2662925D01*
X32982225Y-2657731D01*
X32992616Y-2657731D01*
X33008204Y-2662925D01*
X33018595Y-2678513D01*
X33023789Y-2704490D01*
X33023789Y-2730466D01*
X33018595Y-2751249D01*
X33008204Y-2761640D01*
X32992616Y-2766834D01*
X32987421Y-2766834D01*
X32971833Y-2761640D01*
X32961445Y-2751249D01*
X32956248Y-2735663D01*
X32956248Y-2730466D01*
X32961445Y-2714881D01*
X32971833Y-2704490D01*
X32987421Y-2699296D01*
X32992616Y-2699296D01*
X33008204Y-2704490D01*
X33018595Y-2714881D01*
X33023789Y-2730466D01*
X28581423Y-2657731D02*
G01*
X28581423Y-2766834D01*
X28581423Y-2657731D02*
G01*
X28545055Y-2657731D01*
X28529467Y-2662925D01*
X28519079Y-2673316D01*
X28513882Y-2683708D01*
X28508688Y-2699296D01*
X28508688Y-2725272D01*
X28513882Y-2740858D01*
X28519079Y-2751249D01*
X28529467Y-2761640D01*
X28545055Y-2766834D01*
X28581423Y-2766834D01*
X28474398Y-2678513D02*
G01*
X28464007Y-2673316D01*
X28448419Y-2657731D01*
X28448419Y-2766834D01*
X28362175Y-2657731D02*
G01*
X28414129Y-2730466D01*
X28336199Y-2730466D01*
X28362175Y-2657731D02*
G01*
X28362175Y-2766834D01*
X23971788Y-2657731D02*
G01*
X23971788Y-2766834D01*
X23971788Y-2657731D02*
G01*
X23935420Y-2657731D01*
X23919832Y-2662925D01*
X23909444Y-2673316D01*
X23904247Y-2683708D01*
X23899053Y-2699296D01*
X23899053Y-2725272D01*
X23904247Y-2740858D01*
X23909444Y-2751249D01*
X23919832Y-2761640D01*
X23935420Y-2766834D01*
X23971788Y-2766834D01*
X23864763Y-2678513D02*
G01*
X23854371Y-2673316D01*
X23838783Y-2657731D01*
X23838783Y-2766834D01*
X23799299Y-2683708D02*
G01*
X23799299Y-2678513D01*
X23794102Y-2668122D01*
X23788908Y-2662925D01*
X23778517Y-2657731D01*
X23757735Y-2657731D01*
X23747343Y-2662925D01*
X23742149Y-2668122D01*
X23736952Y-2678513D01*
X23736952Y-2688904D01*
X23742149Y-2699296D01*
X23752540Y-2714881D01*
X23804493Y-2766834D01*
X23731758Y-2766834D01*
X19363773Y-2657731D02*
G01*
X19363773Y-2766834D01*
X19363773Y-2657731D02*
G01*
X19327406Y-2657731D01*
X19311818Y-2662925D01*
X19301429Y-2673316D01*
X19296232Y-2683708D01*
X19291038Y-2699296D01*
X19291038Y-2725272D01*
X19296232Y-2740858D01*
X19301429Y-2751249D01*
X19311818Y-2761640D01*
X19327406Y-2766834D01*
X19363773Y-2766834D01*
X19256748Y-2678513D02*
G01*
X19246357Y-2673316D01*
X19230769Y-2657731D01*
X19230769Y-2766834D01*
X19165308Y-2657731D02*
G01*
X19180893Y-2662925D01*
X19191284Y-2678513D01*
X19196479Y-2704490D01*
X19196479Y-2720075D01*
X19191284Y-2746054D01*
X19180893Y-2761640D01*
X19165308Y-2766834D01*
X19154917Y-2766834D01*
X19139329Y-2761640D01*
X19128938Y-2746054D01*
X19123743Y-2720075D01*
X19123743Y-2704490D01*
X19128938Y-2678513D01*
X19139329Y-2662925D01*
X19154917Y-2657731D01*
X19165308Y-2657731D01*
X14755601Y-2657731D02*
G01*
X14755601Y-2766834D01*
X14755601Y-2657731D02*
G01*
X14719233Y-2657731D01*
X14703645Y-2662925D01*
X14693257Y-2673316D01*
X14688060Y-2683708D01*
X14682866Y-2699296D01*
X14682866Y-2725272D01*
X14688060Y-2740858D01*
X14693257Y-2751249D01*
X14703645Y-2761640D01*
X14719233Y-2766834D01*
X14755601Y-2766834D01*
X14622597Y-2657731D02*
G01*
X14638185Y-2662925D01*
X14643379Y-2673316D01*
X14643379Y-2683708D01*
X14638185Y-2694099D01*
X14627793Y-2699296D01*
X14607011Y-2704490D01*
X14591426Y-2709684D01*
X14581035Y-2720075D01*
X14575838Y-2730466D01*
X14575838Y-2746054D01*
X14581035Y-2756446D01*
X14586229Y-2761640D01*
X14601817Y-2766834D01*
X14622597Y-2766834D01*
X14638185Y-2761640D01*
X14643379Y-2756446D01*
X14648576Y-2746054D01*
X14648576Y-2730466D01*
X14643379Y-2720075D01*
X14632988Y-2709684D01*
X14617402Y-2704490D01*
X14596620Y-2699296D01*
X14586229Y-2694099D01*
X14581035Y-2683708D01*
X14581035Y-2673316D01*
X14586229Y-2662925D01*
X14601817Y-2657731D01*
X14622597Y-2657731D01*
X10148115Y-2657731D02*
G01*
X10148115Y-2766834D01*
X10148115Y-2657731D02*
G01*
X10111747Y-2657731D01*
X10096159Y-2662925D01*
X10085771Y-2673316D01*
X10080574Y-2683708D01*
X10075379Y-2699296D01*
X10075379Y-2725272D01*
X10080574Y-2740858D01*
X10085771Y-2751249D01*
X10096159Y-2761640D01*
X10111747Y-2766834D01*
X10148115Y-2766834D01*
X9978743Y-2673316D02*
G01*
X9983939Y-2662925D01*
X9999525Y-2657731D01*
X10009916Y-2657731D01*
X10025501Y-2662925D01*
X10035893Y-2678513D01*
X10041089Y-2704490D01*
X10041089Y-2730466D01*
X10035893Y-2751249D01*
X10025501Y-2761640D01*
X10009916Y-2766834D01*
X10004719Y-2766834D01*
X9989134Y-2761640D01*
X9978743Y-2751249D01*
X9973548Y-2735663D01*
X9973548Y-2730466D01*
X9978743Y-2714881D01*
X9989134Y-2704490D01*
X10004719Y-2699296D01*
X10009916Y-2699296D01*
X10025501Y-2704490D01*
X10035893Y-2714881D01*
X10041089Y-2730466D01*
G36*
X11343132Y-2804058D02*
G01*
X11343132Y-3306064D01*
X11624106Y-3057093D01*
G37*
G36*
X15950590Y-2804058D02*
G01*
X15950590Y-3306064D01*
X16231616Y-3057093D01*
G37*
G36*
X20558760Y-2804058D02*
G01*
X20558760Y-3306064D01*
X20839785Y-3057093D01*
G37*
G36*
X25166777Y-2804058D02*
G01*
X25166777Y-3306064D01*
X25447802Y-3057093D01*
G37*
G36*
X29776420Y-2804058D02*
G01*
X29776420Y-3306064D01*
X30057445Y-3057093D01*
G37*
G36*
X34386113Y-2804058D02*
G01*
X34386113Y-3306064D01*
X34667088Y-3057093D01*
G37*
G36*
X38994791Y-2804058D02*
G01*
X38994791Y-3306064D01*
X39275816Y-3057093D01*
G37*
G36*
X43603011Y-2804464D02*
G01*
X43603011Y-3306470D01*
X43884037Y-3057448D01*
G37*
G36*
X5644083Y-3268319D02*
G01*
X5644083Y-3357219D01*
X6520383Y-3357981D01*
X6520383Y-3268319D01*
G37*
G36*
X994105Y-3268319D02*
G01*
X994105Y-3357219D01*
X1870405Y-3357981D01*
X1870405Y-3268319D01*
G37*
G36*
X9227007Y-1749704D02*
G01*
X9100007Y-1902104D01*
X9201607Y-2003704D01*
X9354007Y-1876704D01*
G37*
G36*
X4617008Y-1749704D02*
G01*
X4490008Y-1902104D01*
X4591608Y-2003704D01*
X4744008Y-1876704D01*
G37*
G36*
X42449496Y-3272688D02*
G01*
X42449496Y-3361588D01*
X43325796Y-3362350D01*
X43325796Y-3272688D01*
G37*
G36*
X37841275Y-3272282D02*
G01*
X37841275Y-3361182D01*
X38717575Y-3361994D01*
X38717575Y-3272282D01*
G37*
G36*
X33232547Y-3272282D02*
G01*
X33232547Y-3361182D01*
X34108847Y-3361994D01*
X34108847Y-3272282D01*
G37*
G36*
X28622904Y-3272282D02*
G01*
X28622904Y-3361182D01*
X29499204Y-3361994D01*
X29499204Y-3272282D01*
G37*
G36*
X24013261Y-3272282D02*
G01*
X24013261Y-3361182D01*
X24889561Y-3361994D01*
X24889561Y-3272282D01*
G37*
G36*
X19405244Y-3272282D02*
G01*
X19405244Y-3361182D01*
X20281544Y-3361994D01*
X20281544Y-3272282D01*
G37*
G36*
X14797074Y-3272282D02*
G01*
X14797074Y-3361182D01*
X15673374Y-3361994D01*
X15673374Y-3272282D01*
G37*
G36*
X10189616Y-3272282D02*
G01*
X10189616Y-3361182D01*
X11065916Y-3361994D01*
X11065916Y-3272282D01*
G37*
G36*
X46043748Y-1758238D02*
G01*
X45916748Y-1910638D01*
X46018348Y-2012238D01*
X46170748Y-1885238D01*
G37*
G36*
X41435477Y-1757883D02*
G01*
X41308477Y-1910283D01*
X41410077Y-2011883D01*
X41562477Y-1884883D01*
G37*
G36*
X36826799Y-1757883D02*
G01*
X36699799Y-1910283D01*
X36801399Y-2011883D01*
X36953799Y-1884883D01*
G37*
G36*
X32217106Y-1757883D02*
G01*
X32090106Y-1910283D01*
X32191706Y-2011883D01*
X32344106Y-1884883D01*
G37*
G36*
X27607514Y-1757883D02*
G01*
X27480514Y-1910283D01*
X27582114Y-2011883D01*
X27734514Y-1884883D01*
G37*
G36*
X22999496Y-1757883D02*
G01*
X22872496Y-1910283D01*
X22974096Y-2011883D01*
X23126496Y-1884883D01*
G37*
G36*
X18391327Y-1757883D02*
G01*
X18264327Y-1910283D01*
X18365927Y-2011883D01*
X18518327Y-1884883D01*
G37*
G36*
X13783818Y-1757883D02*
G01*
X13656818Y-1910283D01*
X13758418Y-2011883D01*
X13910818Y-1884883D01*
G37*
D13*
X42358022Y-3060458D02*
G01*
X41785021Y-3060458D01*
X44626014Y-3060458D02*
G01*
X46385025Y-3060458D01*
X43403019Y-3056458D02*
G01*
X44249019Y-3056458D01*
X37749794Y-3060072D02*
G01*
X37176793Y-3060072D01*
X40017786Y-3060072D02*
G01*
X41776787Y-3060072D01*
X38794791Y-3056074D02*
G01*
X39640791Y-3056074D01*
X33141097Y-3060072D02*
G01*
X32568095Y-3060072D01*
X35409088Y-3060072D02*
G01*
X37168086Y-3060072D01*
X34186093Y-3056074D02*
G01*
X35032094Y-3056074D01*
X28531431Y-3060072D02*
G01*
X27958430Y-3060072D01*
X30799422Y-3060072D02*
G01*
X32558421Y-3060072D01*
X29576428Y-3056074D02*
G01*
X30422428Y-3056074D01*
X23921801Y-3060072D02*
G01*
X23348800Y-3060072D01*
X26189792Y-3060072D02*
G01*
X27948793Y-3060072D01*
X24966797Y-3056074D02*
G01*
X25812788Y-3056074D01*
X19313786Y-3060072D02*
G01*
X18740785Y-3060072D01*
X21581778Y-3060072D02*
G01*
X23340776Y-3060072D01*
X20358783Y-3056074D02*
G01*
X21204783Y-3056074D01*
X14705606Y-3060072D02*
G01*
X14132608Y-3060072D01*
X16973600Y-3060072D02*
G01*
X18732599Y-3060072D01*
X15750603Y-3056074D02*
G01*
X16596606Y-3056074D01*
X10098125Y-3060072D02*
G01*
X9525124Y-3060072D01*
X12366116Y-3060072D02*
G01*
X14125115Y-3060072D01*
X11143122Y-3056074D02*
G01*
X11989122Y-3056074D01*
D14*
X1638597Y-195094D02*
G01*
X1688597Y-315099D01*
X1718599Y-345094D01*
X1968599Y-345094D01*
X1978596Y-345094D01*
X1998601Y-325102D01*
X2058596Y-195094D01*
X1268666Y-375183D02*
G01*
X1338770Y-375183D01*
X1368493Y-345206D01*
X1368493Y-195094D01*
X738596Y-205097D02*
G01*
X818598Y-375097D01*
X918590Y-375097D01*
D15*
X5644100Y-3367966D02*
G01*
X5644100Y-3357994D01*
X6533100Y-3357994D01*
X5644100Y-2620599D02*
G01*
X6533100Y-2620599D01*
X6533100Y-3522299D01*
X5644100Y-3522299D01*
X5644100Y-2620599D01*
X994097Y-3367966D02*
G01*
X994097Y-3357994D01*
X1883097Y-3357994D01*
X994097Y-2620599D02*
G01*
X1883097Y-2620599D01*
X1883097Y-3522299D01*
X994097Y-3522299D01*
X994097Y-2620599D01*
X7753799Y-3553099D02*
G01*
X7499799Y-3553099D01*
X7626799Y-3680099D02*
G01*
X7626799Y-3426099D01*
X8388799Y-2664099D02*
G01*
X8388799Y-2410099D01*
X3143798Y-3553099D02*
G01*
X2889798Y-3553099D01*
X3016798Y-3680099D02*
G01*
X3016798Y-3426099D01*
X3778798Y-2664099D02*
G01*
X3778798Y-2410099D01*
X42449498Y-3372332D02*
G01*
X42449498Y-3362360D01*
X43338498Y-3362360D01*
X42449498Y-2624965D02*
G01*
X43338498Y-2624965D01*
X43338498Y-3526665D01*
X42449498Y-3526665D01*
X42449498Y-2624965D01*
X37841270Y-3371949D02*
G01*
X37841270Y-3361977D01*
X38730270Y-3361977D01*
X37841270Y-2624581D02*
G01*
X38730270Y-2624581D01*
X38730270Y-3526281D01*
X37841270Y-3526281D01*
X37841270Y-2624581D01*
X33232562Y-3371949D02*
G01*
X33232562Y-3361977D01*
X34121562Y-3361977D01*
X33232562Y-2624581D02*
G01*
X34121562Y-2624581D01*
X34121562Y-3526281D01*
X33232562Y-3526281D01*
X33232562Y-2624581D01*
X28622901Y-3371949D02*
G01*
X28622901Y-3361977D01*
X29511901Y-3361977D01*
X28622901Y-2624581D02*
G01*
X29511901Y-2624581D01*
X29511901Y-3526281D01*
X28622901Y-3526281D01*
X28622901Y-2624581D01*
X24013266Y-3371949D02*
G01*
X24013266Y-3361977D01*
X24902266Y-3361977D01*
X24013266Y-2624581D02*
G01*
X24902266Y-2624581D01*
X24902266Y-3526281D01*
X24013266Y-3526281D01*
X24013266Y-2624581D01*
X19405252Y-3371949D02*
G01*
X19405252Y-3361977D01*
X20294252Y-3361977D01*
X19405252Y-2624581D02*
G01*
X20294252Y-2624581D01*
X20294252Y-3526281D01*
X19405252Y-3526281D01*
X19405252Y-2624581D01*
X14797079Y-3371949D02*
G01*
X14797079Y-3361977D01*
X15686079Y-3361977D01*
X14797079Y-2624581D02*
G01*
X15686079Y-2624581D01*
X15686079Y-3526281D01*
X14797079Y-3526281D01*
X14797079Y-2624581D01*
X10189593Y-3371949D02*
G01*
X10189593Y-3361977D01*
X11078593Y-3361977D01*
X10189593Y-2624581D02*
G01*
X11078593Y-2624581D01*
X11078593Y-3526281D01*
X10189593Y-3526281D01*
X10189593Y-2624581D01*
X44570523Y-3561656D02*
G01*
X44316523Y-3561656D01*
X44443523Y-3688656D02*
G01*
X44443523Y-3434656D01*
X45205523Y-2672656D02*
G01*
X45205523Y-2418656D01*
X39962294Y-3561273D02*
G01*
X39708294Y-3561273D01*
X39835294Y-3688273D02*
G01*
X39835294Y-3434273D01*
X40597294Y-2672273D02*
G01*
X40597294Y-2418273D01*
X35353586Y-3561273D02*
G01*
X35099586Y-3561273D01*
X35226586Y-3688273D02*
G01*
X35226586Y-3434273D01*
X35988586Y-2672273D02*
G01*
X35988586Y-2418273D01*
X30743926Y-3561273D02*
G01*
X30489926Y-3561273D01*
X30616926Y-3688273D02*
G01*
X30616926Y-3434273D01*
X31378926Y-2672273D02*
G01*
X31378926Y-2418273D01*
X26134291Y-3561273D02*
G01*
X25880291Y-3561273D01*
X26007291Y-3688273D02*
G01*
X26007291Y-3434273D01*
X26769291Y-2672273D02*
G01*
X26769291Y-2418273D01*
X21526276Y-3561273D02*
G01*
X21272276Y-3561273D01*
X21399276Y-3688273D02*
G01*
X21399276Y-3434273D01*
X22161276Y-2672273D02*
G01*
X22161276Y-2418273D01*
X16918104Y-3561273D02*
G01*
X16664104Y-3561273D01*
X16791104Y-3688273D02*
G01*
X16791104Y-3434273D01*
X17553104Y-2672273D02*
G01*
X17553104Y-2418273D01*
X12310618Y-3561273D02*
G01*
X12056618Y-3561273D01*
X12183618Y-3688273D02*
G01*
X12183618Y-3434273D01*
X12945618Y-2672273D02*
G01*
X12945618Y-2418273D01*
G75*
G01
X9808616Y-3045104D02*
G03X9808616Y-3045104I-1750009J0D01*
G75*
G01
X9608617Y-3045104D02*
G03X9608617Y-3045104I-1550010J0D01*
G75*
G01
X5198618Y-3045104D02*
G03X5198618Y-3045104I-1750009J0D01*
G75*
G01
X4998618Y-3045104D02*
G03X4998618Y-3045104I-1550010J0D01*
G75*
G01
X46625332Y-3053664D02*
G03X46625332Y-3053664I-1750009J0D01*
G75*
G01
X46425333Y-3053664D02*
G03X46425333Y-3053664I-1550010J0D01*
G75*
G01
X42017112Y-3053283D02*
G03X42017112Y-3053283I-1750009J0D01*
G75*
G01
X41817112Y-3053283D02*
G03X41817112Y-3053283I-1550010J0D01*
G75*
G01
X37408409Y-3053283D02*
G03X37408409Y-3053283I-1750009J0D01*
G75*
G01
X37208409Y-3053283D02*
G03X37208409Y-3053283I-1550010J0D01*
G75*
G01
X32798741Y-3053283D02*
G03X32798741Y-3053283I-1750009J0D01*
G75*
G01
X32598741Y-3053283D02*
G03X32598741Y-3053283I-1550010J0D01*
G75*
G01
X28189098Y-3053283D02*
G03X28189098Y-3053283I-1750009J0D01*
G75*
G01
X27989098Y-3053283D02*
G03X27989098Y-3053283I-1550010J0D01*
G75*
G01
X23581106Y-3053283D02*
G03X23581106Y-3053283I-1750009J0D01*
G75*
G01
X23381106Y-3053283D02*
G03X23381106Y-3053283I-1550010J0D01*
G75*
G01
X18972911Y-3053283D02*
G03X18972911Y-3053283I-1750009J0D01*
G75*
G01
X18772911Y-3053283D02*
G03X18772911Y-3053283I-1550010J0D01*
G75*
G01
X14365427Y-3053283D02*
G03X14365427Y-3053283I-1750009J0D01*
G75*
G01
X14165428Y-3053283D02*
G03X14165428Y-3053283I-1550010J0D01*
M02*
