G04 Layer: TopSolderMaskLayer*
G04 EasyEDA v6.5.34, 2023-10-13 11:13:59*
G04 8dd2d23bddbb44bbbc94aa604b75b510,674c0623d3a246009f606e19fc16e94a,10*
G04 Gerber Generator version 0.2*
G04 Scale: 100 percent, Rotated: No, Reflected: No *
G04 Dimensions in millimeters *
G04 leading zeros omitted , absolute positions ,4 integer and 5 decimal *
%FSLAX45Y45*%
%MOMM*%

%AMMACRO1*1,1,$1,$2,$3*1,1,$1,$4,$5*1,1,$1,0-$2,0-$3*1,1,$1,0-$4,0-$5*20,1,$1,$2,$3,$4,$5,0*20,1,$1,$4,$5,0-$2,0-$3,0*20,1,$1,0-$2,0-$3,0-$4,0-$5,0*20,1,$1,0-$4,0-$5,$2,$3,0*4,1,4,$2,$3,$4,$5,0-$2,0-$3,0-$4,0-$5,$2,$3,0*%
%ADD10C,3.1000*%
%ADD11C,3.6016*%
%ADD12C,3.5032*%
%ADD13C,1.8796*%
%ADD14C,1.9032*%
%ADD15C,1.4031*%
%ADD16MACRO1,0.2032X-0.6058X0.6058X0.6058X0.6058*%
%ADD17MACRO1,0.2032X0.6058X-0.6058X-0.6058X-0.6058*%
%ADD18MACRO1,0.1016X0.7874X-0.7874X-0.7874X-0.7874*%
%ADD19C,1.6764*%
%ADD20MACRO1,0.1016X-0.45X0.8X0.45X0.8*%
%ADD21O,1.0015981999999999X1.7015968*%
%ADD22MACRO1,0.1016X1.1X0.8X1.1X-0.8*%
%ADD23O,2.3015956X1.7015968000000001*%
%ADD24C,2.2016*%
%ADD25C,1.8542*%
%ADD26C,3.3016*%
%ADD27C,0.0130*%

%LPD*%
D10*
G01*
X6088608Y-2422601D03*
G01*
X6088608Y-3707587D03*
G01*
X1438605Y-2422601D03*
G01*
X1438605Y-3707587D03*
D11*
G01*
X8058607Y-3545103D03*
G01*
X8058607Y-2545105D03*
G01*
X3448608Y-3545103D03*
G01*
X3448608Y-2545105D03*
D12*
G01*
X6088608Y-1805101D03*
G01*
X6088608Y-4305096D03*
G01*
X1438605Y-1805101D03*
G01*
X1438605Y-4305096D03*
D13*
G01*
X6998614Y-665098D03*
G01*
X6998614Y-265099D03*
D14*
G01*
X6788607Y-1545107D03*
G01*
X7791018Y-1545107D03*
G01*
X6558610Y-555117D03*
G01*
X6558610Y-1557528D03*
G01*
X6088608Y-4845100D03*
G01*
X5086197Y-4845100D03*
G01*
X4628616Y-1915109D03*
G01*
X5631027Y-1915109D03*
G01*
X2518613Y-4735118D03*
G01*
X1516202Y-4735118D03*
D15*
G01*
X4701616Y-1365097D03*
G01*
X4955616Y-1365097D03*
G01*
X5351602Y-1365097D03*
G01*
X5605602Y-1365097D03*
D16*
G01*
X7351600Y-485099D03*
G01*
X7605600Y-485099D03*
D17*
G01*
X4865598Y-4705103D03*
G01*
X4611598Y-4705103D03*
G01*
X1235598Y-4725101D03*
G01*
X981598Y-4725101D03*
D18*
G01*
X4282600Y-4845103D03*
D19*
G01*
X4028617Y-4845100D03*
G01*
X3774617Y-4845100D03*
D10*
G01*
X8361095Y-4265117D03*
G01*
X7076109Y-4265117D03*
G01*
X3741115Y-4265117D03*
G01*
X2456129Y-4265117D03*
D20*
G01*
X4631629Y-4195084D03*
D21*
G01*
X4758639Y-4195089D03*
G01*
X4885639Y-4195089D03*
D22*
G01*
X9164507Y-495066D03*
D23*
G01*
X8608517Y-495071D03*
G01*
X8052511Y-495071D03*
D22*
G01*
X5194487Y-475000D03*
D23*
G01*
X4638497Y-475005D03*
G01*
X4082491Y-475005D03*
D14*
G01*
X2648610Y-175107D03*
G01*
X3651021Y-175107D03*
D24*
G01*
X1368602Y-195097D03*
G01*
X1638604Y-195097D03*
G01*
X2058619Y-195097D03*
G01*
X2328621Y-195097D03*
G01*
X738606Y-205104D03*
G01*
X738606Y-655116D03*
D25*
G01*
X5595620Y-3905097D03*
G01*
X5341620Y-3905097D03*
D22*
G01*
X45968917Y-497207D03*
D23*
G01*
X45412913Y-497204D03*
G01*
X44856908Y-497204D03*
D22*
G01*
X41360689Y-496824D03*
D23*
G01*
X40804693Y-496823D03*
G01*
X40248687Y-496823D03*
D22*
G01*
X36751981Y-496824D03*
D23*
G01*
X36195990Y-496823D03*
G01*
X35639984Y-496823D03*
D22*
G01*
X32142320Y-496824D03*
D23*
G01*
X31586322Y-496823D03*
G01*
X31030316Y-496823D03*
D22*
G01*
X27532685Y-496824D03*
D23*
G01*
X26976679Y-496823D03*
G01*
X26420673Y-496823D03*
D22*
G01*
X22924670Y-496824D03*
D23*
G01*
X22368662Y-496823D03*
G01*
X21812656Y-496823D03*
D22*
G01*
X18316498Y-496824D03*
D23*
G01*
X17760492Y-496823D03*
G01*
X17204486Y-496823D03*
D22*
G01*
X13709012Y-496824D03*
D23*
G01*
X13153009Y-496823D03*
G01*
X12597002Y-496823D03*
D14*
G01*
X45177202Y-4633595D03*
G01*
X46179613Y-4633595D03*
G01*
X43407838Y-1346835D03*
G01*
X43407838Y-344423D03*
D13*
G01*
X43865038Y-722248D03*
G01*
X43865038Y-322249D03*
D14*
G01*
X42664379Y-297561D03*
G01*
X42664379Y-1299971D03*
G01*
X44007277Y-909446D03*
G01*
X45009688Y-909446D03*
G01*
X40568981Y-4633213D03*
G01*
X41571392Y-4633213D03*
G01*
X38799617Y-1346454D03*
G01*
X38799617Y-344043D03*
D13*
G01*
X39256817Y-721868D03*
G01*
X39256817Y-321868D03*
D14*
G01*
X38056159Y-297179D03*
G01*
X38056159Y-1299590D03*
G01*
X39399057Y-909065D03*
G01*
X40401468Y-909065D03*
G01*
X35960278Y-4633213D03*
G01*
X36962689Y-4633213D03*
G01*
X34190914Y-1346454D03*
G01*
X34190914Y-344043D03*
D13*
G01*
X34648114Y-721868D03*
G01*
X34648114Y-321868D03*
D14*
G01*
X33447456Y-297179D03*
G01*
X33447456Y-1299590D03*
G01*
X34790354Y-909065D03*
G01*
X35792765Y-909065D03*
G01*
X31350610Y-4633213D03*
G01*
X32353021Y-4633213D03*
G01*
X29581246Y-1346454D03*
G01*
X29581246Y-344043D03*
D13*
G01*
X30038446Y-721868D03*
G01*
X30038446Y-321868D03*
D14*
G01*
X28837788Y-297179D03*
G01*
X28837788Y-1299590D03*
G01*
X30180686Y-909065D03*
G01*
X31183097Y-909065D03*
G01*
X26740967Y-4633213D03*
G01*
X27743378Y-4633213D03*
G01*
X24971603Y-1346454D03*
G01*
X24971603Y-344043D03*
D13*
G01*
X25428803Y-721868D03*
G01*
X25428803Y-321868D03*
D14*
G01*
X24228145Y-297179D03*
G01*
X24228145Y-1299590D03*
G01*
X25571043Y-909065D03*
G01*
X26573454Y-909065D03*
G01*
X22132950Y-4633213D03*
G01*
X23135361Y-4633213D03*
G01*
X20363586Y-1346454D03*
G01*
X20363586Y-344043D03*
D13*
G01*
X20820786Y-721868D03*
G01*
X20820786Y-321868D03*
D14*
G01*
X19620128Y-297179D03*
G01*
X19620128Y-1299590D03*
G01*
X20963026Y-909065D03*
G01*
X21965437Y-909065D03*
G01*
X17524780Y-4633213D03*
G01*
X18527191Y-4633213D03*
G01*
X15755416Y-1346454D03*
G01*
X15755416Y-344043D03*
D13*
G01*
X16212616Y-721868D03*
G01*
X16212616Y-321868D03*
D14*
G01*
X15011958Y-297179D03*
G01*
X15011958Y-1299590D03*
G01*
X16354856Y-909065D03*
G01*
X17357267Y-909065D03*
G01*
X12917297Y-4633213D03*
G01*
X13919708Y-4633213D03*
G01*
X11147933Y-1346454D03*
G01*
X11147933Y-344043D03*
D13*
G01*
X11605133Y-721868D03*
G01*
X11605133Y-321868D03*
D14*
G01*
X10404475Y-297179D03*
G01*
X10404475Y-1299590D03*
G01*
X11747372Y-909065D03*
G01*
X12749784Y-909065D03*
D20*
G01*
X42179242Y-4592195D03*
D21*
G01*
X42306240Y-4592193D03*
G01*
X42433240Y-4592193D03*
D20*
G01*
X37571014Y-4591812D03*
D21*
G01*
X37698019Y-4591812D03*
G01*
X37825019Y-4591812D03*
D20*
G01*
X32962306Y-4591812D03*
D21*
G01*
X33089316Y-4591812D03*
G01*
X33216316Y-4591812D03*
D20*
G01*
X28352645Y-4591812D03*
D21*
G01*
X28479648Y-4591812D03*
G01*
X28606648Y-4591812D03*
D20*
G01*
X23743010Y-4591812D03*
D21*
G01*
X23870005Y-4591812D03*
G01*
X23997005Y-4591812D03*
D20*
G01*
X19134996Y-4591812D03*
D21*
G01*
X19261988Y-4591812D03*
G01*
X19388988Y-4591812D03*
D20*
G01*
X14526823Y-4591812D03*
D21*
G01*
X14653818Y-4591812D03*
G01*
X14780818Y-4591812D03*
D20*
G01*
X9919337Y-4591812D03*
D21*
G01*
X10046334Y-4591812D03*
G01*
X10173334Y-4591812D03*
D12*
G01*
X42879924Y-4309567D03*
G01*
X42879924Y-1809546D03*
G01*
X38271704Y-4309186D03*
G01*
X38271704Y-1809165D03*
G01*
X33663000Y-4309186D03*
G01*
X33663000Y-1809165D03*
G01*
X29053332Y-4309186D03*
G01*
X29053332Y-1809165D03*
G01*
X24443690Y-4309186D03*
G01*
X24443690Y-1809165D03*
G01*
X19835672Y-4309186D03*
G01*
X19835672Y-1809165D03*
G01*
X15227503Y-4309186D03*
G01*
X15227503Y-1809165D03*
G01*
X10620019Y-4309186D03*
G01*
X10620019Y-1809165D03*
D17*
G01*
X46060108Y-4230499D03*
G01*
X45806108Y-4230499D03*
D16*
G01*
X44173650Y-484761D03*
G01*
X44427650Y-484761D03*
D15*
G01*
X42148506Y-702437D03*
G01*
X42402506Y-702437D03*
G01*
X42148633Y-1366672D03*
G01*
X42402633Y-1366672D03*
D17*
G01*
X41451880Y-4230116D03*
G01*
X41197880Y-4230116D03*
D16*
G01*
X39565422Y-484377D03*
G01*
X39819422Y-484377D03*
D15*
G01*
X37540285Y-702055D03*
G01*
X37794285Y-702055D03*
G01*
X37540412Y-1366291D03*
G01*
X37794412Y-1366291D03*
D17*
G01*
X36843172Y-4230116D03*
G01*
X36589172Y-4230116D03*
D16*
G01*
X34956714Y-484377D03*
G01*
X35210714Y-484377D03*
D15*
G01*
X32931582Y-702055D03*
G01*
X33185582Y-702055D03*
G01*
X32931709Y-1366291D03*
G01*
X33185709Y-1366291D03*
D17*
G01*
X32233511Y-4230116D03*
G01*
X31979511Y-4230116D03*
D16*
G01*
X30347053Y-484377D03*
G01*
X30601053Y-484377D03*
D15*
G01*
X28321914Y-702055D03*
G01*
X28575914Y-702055D03*
G01*
X28322041Y-1366291D03*
G01*
X28576041Y-1366291D03*
D17*
G01*
X27623876Y-4230116D03*
G01*
X27369876Y-4230116D03*
D16*
G01*
X25737418Y-484377D03*
G01*
X25991418Y-484377D03*
D15*
G01*
X23712271Y-702055D03*
G01*
X23966271Y-702055D03*
G01*
X23712398Y-1366291D03*
G01*
X23966398Y-1366291D03*
D17*
G01*
X23015862Y-4230116D03*
G01*
X22761862Y-4230116D03*
D16*
G01*
X21129404Y-484377D03*
G01*
X21383404Y-484377D03*
D15*
G01*
X19104254Y-702055D03*
G01*
X19358254Y-702055D03*
G01*
X19104381Y-1366291D03*
G01*
X19358381Y-1366291D03*
D17*
G01*
X18407689Y-4230116D03*
G01*
X18153689Y-4230116D03*
D16*
G01*
X16521231Y-484377D03*
G01*
X16775231Y-484377D03*
D15*
G01*
X14496084Y-702055D03*
G01*
X14750084Y-702055D03*
G01*
X14496211Y-1366291D03*
G01*
X14750211Y-1366291D03*
D17*
G01*
X13800203Y-4230116D03*
G01*
X13546203Y-4230116D03*
D16*
G01*
X11913745Y-484377D03*
G01*
X12167745Y-484377D03*
D15*
G01*
X9888600Y-702055D03*
G01*
X10142600Y-702055D03*
G01*
X9888727Y-1366291D03*
G01*
X10142727Y-1366291D03*
D25*
G01*
X42405020Y-3911447D03*
G01*
X42151020Y-3911447D03*
G01*
X37796800Y-3911066D03*
G01*
X37542800Y-3911066D03*
G01*
X33188097Y-3911066D03*
G01*
X32934097Y-3911066D03*
G01*
X28578429Y-3911066D03*
G01*
X28324429Y-3911066D03*
G01*
X23968786Y-3911066D03*
G01*
X23714786Y-3911066D03*
G01*
X19360768Y-3911066D03*
G01*
X19106768Y-3911066D03*
G01*
X14752599Y-3911066D03*
G01*
X14498599Y-3911066D03*
G01*
X10145115Y-3911066D03*
G01*
X9891115Y-3911066D03*
D10*
G01*
X42893996Y-2426970D03*
G01*
X42893996Y-3711955D03*
G01*
X45209586Y-4266564D03*
G01*
X43924600Y-4266564D03*
G01*
X38285775Y-2426588D03*
G01*
X38285775Y-3711575D03*
G01*
X40601366Y-4266184D03*
G01*
X39316380Y-4266184D03*
G01*
X33677072Y-2426588D03*
G01*
X33677072Y-3711575D03*
G01*
X35992663Y-4266184D03*
G01*
X34707677Y-4266184D03*
G01*
X29067404Y-2426588D03*
G01*
X29067404Y-3711575D03*
G01*
X31382995Y-4266184D03*
G01*
X30098009Y-4266184D03*
G01*
X24457761Y-2426588D03*
G01*
X24457761Y-3711575D03*
G01*
X26773352Y-4266184D03*
G01*
X25488366Y-4266184D03*
G01*
X19849744Y-2426588D03*
G01*
X19849744Y-3711575D03*
G01*
X22165335Y-4266184D03*
G01*
X20880349Y-4266184D03*
G01*
X15241574Y-2426588D03*
G01*
X15241574Y-3711575D03*
G01*
X17557165Y-4266184D03*
G01*
X16272179Y-4266184D03*
G01*
X10634090Y-2426588D03*
G01*
X10634090Y-3711575D03*
G01*
X12949681Y-4266184D03*
G01*
X11664695Y-4266184D03*
D11*
G01*
X44875323Y-3553663D03*
G01*
X44875323Y-2553665D03*
G01*
X40267102Y-3553282D03*
G01*
X40267102Y-2553284D03*
G01*
X35658399Y-3553282D03*
G01*
X35658399Y-2553284D03*
G01*
X31048731Y-3553282D03*
G01*
X31048731Y-2553284D03*
G01*
X26439088Y-3553282D03*
G01*
X26439088Y-2553284D03*
G01*
X21831071Y-3553282D03*
G01*
X21831071Y-2553284D03*
G01*
X17222901Y-3553282D03*
G01*
X17222901Y-2553284D03*
G01*
X12615418Y-3553282D03*
G01*
X12615418Y-2553284D03*
D26*
G01*
X46647100Y-4673600D03*
G01*
X46647100Y-317500D03*
G01*
X292100Y-304800D03*
G01*
X292100Y-4660900D03*
M02*
